<?xml version="1.0" encoding="UTF-8"?>
<svg width="1350px" height="279px" viewBox="0 0 1350 279" version="1.1" xmlns="http://www.w3.org/2000/svg" xmlns:xlink="http://www.w3.org/1999/xlink">
    <title>icon-wordmark</title>
    <g id="Page-1" stroke="none" stroke-width="1" fill="none" fill-rule="evenodd">
        <g id="Artboard-Copy-30" transform="translate(-325.000000, -427.000000)">
            <g id="icon-wordmark" transform="translate(325.000000, 427.000000)">
                <g id="Group-3" transform="translate(376.186813, 4.469780)" fill="#FDC772" fill-rule="nonzero">
                    <g id="Group">
                        <path d="M59.4666923,118.205374 C63.2274396,118.205374 67.0376703,117.834247 70.8973846,117.091995 C74.7570989,116.349742 78.9137143,115.186879 83.3672308,113.603407 L83.3672308,113.603407 L86.3362418,112.564253 L86.3362418,78.1237253 C78.9137143,86.0410879 70.551,89.9997692 61.2480989,89.9997692 C56.9925165,89.9997692 53.0338352,89.208033 49.3720549,87.6245604 C45.7102747,86.0410879 42.5185879,83.8638132 39.7969945,81.0927363 C37.0754011,78.3216593 34.9476099,75.0557473 33.4136209,71.295 C31.8796319,67.5342527 31.1126374,63.4271209 31.1126374,58.9736044 C31.1126374,54.6190549 31.8796319,50.5614066 33.4136209,46.8006593 C34.9476099,43.0399121 37.0506593,39.7987418 39.7227692,37.0771484 C42.3948791,34.3555549 45.5865659,32.203022 49.2978297,30.6195495 C53.0090934,29.0360769 57.042,28.2443407 61.3965495,28.2443407 C71.2932527,28.2443407 79.6064835,32.3514725 86.3362418,40.5657363 L86.3362418,40.5657363 L86.3362418,5.82830769 C81.5858242,3.84896703 77.0580824,2.3892033 72.7530165,1.44901648 C68.4479505,0.50882967 64.0686593,0.0387362637 59.6151429,0.0387362637 C51.7967473,0.0387362637 44.3247363,1.4985 37.1991099,4.41802747 C30.0734835,7.33755495 23.8138187,11.3952033 18.4201154,16.5909725 C13.0264121,21.7867418 8.72134615,27.9721813 5.50491758,35.1472912 C2.28848901,42.3224011 0.680274725,50.215022 0.680274725,58.8251538 C0.680274725,67.4352857 2.31323077,75.3773901 5.57914286,82.651467 C8.84505495,89.925544 13.1748626,96.2099505 18.5685659,101.504687 C23.9622692,106.799423 30.1971923,110.906555 37.2733352,113.826082 C44.349478,116.74561 51.7472637,118.205374 59.4666923,118.205374 Z M168.726297,115.087912 L168.726297,90.4451209 L133.840418,90.4451209 L133.840418,3.1561978 L104.74411,3.1561978 L104.74411,115.087912 L168.726297,115.087912 Z M247.405088,115.087912 L247.405088,90.4451209 L212.81611,90.4451209 L212.81611,71.1465495 L245.475231,71.1465495 L245.475231,46.5037582 L212.81611,46.5037582 L212.81611,27.798989 L247.405088,27.798989 L247.405088,3.1561978 L183.719802,3.1561978 L183.719802,115.087912 L247.405088,115.087912 Z M292.237154,115.087912 L301.88644,50.6603736 L326.974582,115.087912 L338.553725,115.087912 L364.977923,50.6603736 L374.627209,115.087912 L403.575066,115.087912 L384.573396,3.1561978 L355.773989,3.1561978 L333.506407,62.8333187 L311.090374,3.1561978 L282.290967,3.1561978 L263.289297,115.087912 L292.237154,115.087912 Z M485.66822,115.087912 L485.66822,90.4451209 L451.079242,90.4451209 L451.079242,71.1465495 L483.738363,71.1465495 L483.738363,46.5037582 L451.079242,46.5037582 L451.079242,27.798989 L485.66822,27.798989 L485.66822,3.1561978 L421.982934,3.1561978 L421.982934,115.087912 L485.66822,115.087912 Z M535.696055,115.087912 L535.696055,46.6522088 L589.435154,115.087912 L618.383011,115.087912 L618.383011,3.1561978 L589.435154,3.1561978 L589.435154,71.5919011 L535.696055,3.1561978 L506.599747,3.1561978 L506.599747,115.087912 L535.696055,115.087912 Z M684.295055,115.087912 L684.295055,27.798989 L708.195593,27.798989 L708.195593,3.1561978 L631.298209,3.1561978 L631.298209,27.798989 L655.198747,27.798989 L655.198747,115.087912 L684.295055,115.087912 Z M750.207099,115.087912 L750.207099,3.1561978 L721.110791,3.1561978 L721.110791,115.087912 L750.207099,115.087912 Z M802.758593,115.087912 L802.758593,46.6522088 L856.497692,115.087912 L885.445549,115.087912 L885.445549,3.1561978 L856.497692,3.1561978 L856.497692,71.5919011 L802.758593,3.1561978 L773.662286,3.1561978 L773.662286,115.087912 L802.758593,115.087912 Z M972.586022,115.087912 L972.586022,90.4451209 L937.997044,90.4451209 L937.997044,71.1465495 L970.656165,71.1465495 L970.656165,46.5037582 L937.997044,46.5037582 L937.997044,27.798989 L972.586022,27.798989 L972.586022,3.1561978 L908.900736,3.1561978 L908.900736,115.087912 L972.586022,115.087912 Z" id="CLEMENTINE"></path>
                        <path d="M59.4666923,264.776802 C63.2274396,264.776802 67.0376703,264.405676 70.8973846,263.663423 C74.7570989,262.92117 78.9137143,261.758308 83.3672308,260.174835 L83.3672308,260.174835 L86.3362418,259.135681 L86.3362418,224.695154 C78.9137143,232.612516 70.551,236.571198 61.2480989,236.571198 C56.9925165,236.571198 53.0338352,235.779462 49.3720549,234.195989 C45.7102747,232.612516 42.5185879,230.435242 39.7969945,227.664165 C37.0754011,224.893088 34.9476099,221.627176 33.4136209,217.866429 C31.8796319,214.105681 31.1126374,209.998549 31.1126374,205.545033 C31.1126374,201.190484 31.8796319,197.132835 33.4136209,193.372088 C34.9476099,189.611341 37.0506593,186.37017 39.7227692,183.648577 C42.3948791,180.926984 45.5865659,178.774451 49.2978297,177.190978 C53.0090934,175.607505 57.042,174.815769 61.3965495,174.815769 C71.2932527,174.815769 79.6064835,178.922901 86.3362418,187.137165 L86.3362418,187.137165 L86.3362418,152.399736 C81.5858242,150.420396 77.0580824,148.960632 72.7530165,148.020445 C68.4479505,147.080258 64.0686593,146.610165 59.6151429,146.610165 C51.7967473,146.610165 44.3247363,148.069929 37.1991099,150.989456 C30.0734835,153.908984 23.8138187,157.966632 18.4201154,163.162401 C13.0264121,168.35817 8.72134615,174.54361 5.50491758,181.71872 C2.28848901,188.89383 0.680274725,196.786451 0.680274725,205.396582 C0.680274725,214.006714 2.31323077,221.948819 5.57914286,229.222896 C8.84505495,236.496973 13.1748626,242.781379 18.5685659,248.076115 C23.9622692,253.370852 30.1971923,257.477984 37.2733352,260.397511 C44.349478,263.317038 51.7472637,264.776802 59.4666923,264.776802 Z M168.726297,261.659341 L168.726297,237.016549 L133.840418,237.016549 L133.840418,149.727626 L104.74411,149.727626 L104.74411,261.659341 L168.726297,261.659341 Z M247.405088,261.659341 L247.405088,237.016549 L212.81611,237.016549 L212.81611,217.717978 L245.475231,217.717978 L245.475231,193.075187 L212.81611,193.075187 L212.81611,174.370418 L247.405088,174.370418 L247.405088,149.727626 L183.719802,149.727626 L183.719802,261.659341 L247.405088,261.659341 Z M288.674341,261.659341 L295.354615,242.212319 L336.920769,242.212319 L343.601044,261.659341 L374.627209,261.659341 L332.021901,149.727626 L300.253484,149.727626 L257.648176,261.659341 L288.674341,261.659341 Z M329.201341,220.093187 L303.074044,220.093187 L316.137692,182.832099 L329.201341,220.093187 Z M416.490264,261.659341 L416.490264,193.223637 L470.229363,261.659341 L499.17722,261.659341 L499.17722,149.727626 L470.229363,149.727626 L470.229363,218.16333 L416.490264,149.727626 L387.393956,149.727626 L387.393956,261.659341 L416.490264,261.659341 Z M551.728714,261.659341 L551.728714,149.727626 L522.632407,149.727626 L522.632407,261.659341 L551.728714,261.659341 Z M604.280209,261.659341 L604.280209,193.223637 L658.019308,261.659341 L686.967165,261.659341 L686.967165,149.727626 L658.019308,149.727626 L658.019308,218.16333 L604.280209,149.727626 L575.183901,149.727626 L575.183901,261.659341 L604.280209,261.659341 Z M766.091308,264.776802 C772.425198,264.776802 778.462187,263.985066 784.202275,262.401593 C789.942363,260.818121 795.212357,258.517137 800.012258,255.498643 C804.812159,252.480148 808.993516,248.719401 812.55633,244.216401 C816.119143,239.713401 818.939703,234.542374 821.018011,228.703319 C822.502516,224.546703 823.492187,220.043703 823.987022,215.194319 C824.481857,210.344934 824.729275,204.951231 824.729275,199.013209 L824.729275,199.013209 L766.982011,199.013209 L766.982011,221.577692 L790.882549,221.577692 C790.387714,224.843604 789.447527,227.614681 788.061989,229.890923 C786.676451,232.167165 784.919786,234.022797 782.791995,235.457819 C780.664203,236.892841 778.264253,237.931995 775.592143,238.57528 C772.920033,239.218566 770.148956,239.540209 767.278912,239.540209 C762.429527,239.540209 758.173945,238.723731 754.512165,237.090775 C750.850385,235.457819 747.782407,233.156835 745.308231,230.187824 C742.834055,227.218813 740.978423,223.705484 739.741335,219.647835 C738.504247,215.590187 737.885703,211.186154 737.885703,206.435736 C737.885703,201.190484 738.603214,196.440066 740.038236,192.184484 C741.473258,187.928901 743.452599,184.291863 745.976258,181.273368 C748.499918,178.254874 751.543154,175.929148 755.105967,174.296192 C758.66878,172.663236 762.627462,171.846758 766.982011,171.846758 C772.227264,171.846758 776.903456,173.182813 781.010588,175.854923 C785.11772,178.527033 788.457857,182.931066 791.031,189.067022 L791.031,189.067022 L818.642802,177.63633 C813.496516,167.046857 806.519341,159.228462 797.711275,154.181143 C788.903209,149.133824 778.660121,146.610165 766.982011,146.610165 C757.976011,146.610165 749.811231,148.045187 742.48767,150.915231 C735.16411,153.785275 728.904445,157.79344 723.708676,162.939725 C718.512907,168.086011 714.504742,174.296192 711.684181,181.570269 C708.863621,188.844346 707.453341,196.835934 707.453341,205.545033 C707.453341,214.353099 708.888363,222.39417 711.758407,229.668247 C714.628451,236.942324 718.636615,243.177247 723.782901,248.373016 C728.929187,253.568786 735.089885,257.601692 742.264995,260.471736 C749.440104,263.34178 757.382209,264.776802 766.091308,264.776802 Z" id="CLEANING"></path>
                    </g>
                </g>
                <g id="Logo" transform="translate(0.000000, 0.623626)">
                    <path d="M299.965051,146.99789 C307.582281,125.354703 305.31176,101.148025 300.953827,82.0683286 C298.32815,70.2362012 294.537676,58.6930416 289.637846,47.6076872 C284.291136,41.2722028 279.859959,45.3005454 275.465403,52.112107 C271.070848,58.9236684 266.63967,68.5184483 261.402824,73.3158385 L259.425274,71.5946374 L257.411103,70.056543 C257.227996,69.4339808 257.081511,68.8480401 256.898406,68.2620992 C256.715298,67.6761585 256.349086,67.2000817 256.349086,66.6507623 C260.86202,51.2440734 260.988842,34.8840889 256.715298,19.4092879 C253.053168,7.80033645 247.267003,0.842289852 243.092176,0 C236.533589,0.601698923 230.095602,2.14336254 223.975858,4.57766224 C210.748274,9.47386692 199.517621,18.6180899 192.042086,30.5787837 C188.150639,30.0011752 184.178459,30.3269691 180.433135,31.5309375 C176.435245,29.6069855 172.250783,28.0976342 167.945272,27.0265179 C158.468648,24.5846157 148.527692,24.5846157 139.051068,27.0265179 C134.747476,28.1039389 130.563643,29.6130631 126.563206,31.5309375 C124.707197,30.9406382 122.79097,30.5598495 120.850283,30.3956773 C118.866483,30.1779387 116.864812,30.1779387 114.881012,30.3956773 C107.42747,18.4301159 96.2062698,9.28309863 82.9838611,4.39455574 C76.8758256,2.03686195 70.4643019,0.557279561 63.9407862,0 C59.729337,0.842289852 53.8699293,7.80033645 50.3176633,19.4092879 C46.0560606,34.8874907 46.1955645,51.2474833 50.7204975,66.6507623 C50.7204975,67.2000817 50.3176633,67.7860224 50.1345568,68.3719631 C49.9514504,68.957904 49.7683438,69.5438447 49.6218586,70.1664069 C48.926054,70.6424837 48.2668706,71.1918031 47.6076872,71.7045013 L45.6301372,73.4257024 C40.2834278,68.6283122 35.9987358,59.0335323 31.5675587,52.2219707 C27.1363818,45.4104094 22.7052047,41.3820667 17.3584952,47.6076872 C12.5054202,58.6695829 8.72822114,70.1728711 6.07913544,81.9584647 C1.721201,101.148025 -0.585940766,125.354703 7.06791049,146.99789 C-5.9322049,177.765995 -0.60012785,213.2236 20.8741399,238.807483 C40.7228833,262.72119 72.5101699,275.758373 106.201764,265.321304 C113.893202,269.74043 122.217882,272.951731 130.884519,274.842841 C138.322638,276.507163 145.932192,277.281641 153.553102,277.149983 C161.174012,277.281641 168.783566,276.507163 176.221686,274.842841 C184.888323,272.951731 193.213003,269.74043 200.904441,265.321304 C234.559413,275.758373 266.346701,262.72119 286.195443,238.807483 C307.657339,213.216213 312.975172,177.759275 299.965051,146.99789 L299.965051,146.99789 Z M276.4908,72.3270633 C278.834562,68.957904 280.958598,65.8450937 282.789662,63.0984962 C286.31121,72.9596421 288.982108,83.1041573 290.773105,93.420931 C293.173902,106.096563 293.384471,119.089903 291.395667,131.836672 C286.995159,123.970734 283.317934,115.721493 280.409278,107.190539 C277.488546,98.5701167 273.541732,90.3322174 268.653842,82.6542693 C271.510303,79.1752461 274.147037,75.6596015 276.4908,72.3270633 Z M223.170189,17.3584952 C228.475577,14.7962291 234.12565,13.019787 239.942745,12.0850283 C242.561035,16.9196466 244.566261,22.0618841 245.912016,27.3927309 C248.002345,35.5347672 248.475143,44.0077864 247.303626,52.3318347 C242.064033,47.3594653 236.037785,43.2883446 229.469053,40.2834278 C223.350122,37.4618716 216.531742,36.5187683 209.876658,37.5734517 C208.741399,36.8776469 207.642759,36.255085 206.580742,35.6691442 C205.518723,35.0832033 204.420084,34.5338839 203.394689,34.0578071 C208.437584,26.8804679 215.249631,21.1280734 223.170189,17.3584952 L223.170189,17.3584952 Z M61.1209462,27.3927309 C62.4667004,22.0618841 64.4719271,16.9196466 67.0902178,12.0850283 C72.9061189,13.0248296 78.5554763,14.8010468 83.8627722,17.3584952 C91.7919578,21.1485056 98.6048372,26.9268367 103.638273,34.1310496 C102.576255,34.6071266 101.514238,35.156446 100.45222,35.7423867 C99.3902026,36.3283274 98.2549422,36.9508896 97.1563033,37.6466942 C90.501243,36.5897857 83.6822133,37.5329785 77.563909,40.3566703 C70.9953762,43.3304501 64.9680441,47.3775499 59.729337,52.3318347 C58.5578191,44.0077864 59.0306161,35.5347672 61.1209462,27.3927309 L61.1209462,27.3927309 Z M16.223235,93.420931 C18.041656,83.1064587 20.7244685,72.9632224 24.2432991,63.0984962 C26.0377429,65.8450937 28.161778,68.957904 30.5421625,72.3270633 C32.9225468,75.6962227 35.4860376,79.1752461 38.2692564,82.727512 C33.3678326,90.3979383 29.4202095,98.6375256 26.5138197,107.263782 C23.589521,115.788588 19.9129104,124.036452 15.5274303,131.909915 C13.5730692,119.133758 13.8083666,106.118101 16.223235,93.420931 L16.223235,93.420931 Z M36.9508896,238.69762 C20.9809921,225.011617 12.1342111,204.782696 12.9273182,183.765673 C11.1694959,172.339828 14.7217618,159.156161 20.7642759,147.144375 C26.3453512,135.863537 34.0986062,125.795505 43.5793446,117.517745 C42.4212767,125.293093 41.7485842,133.13302 41.5651731,140.991997 C41.2235086,148.772881 41.4315464,156.568179 42.1877353,164.319764 C43.2301594,177.686808 46.967317,190.704574 53.1741245,202.58902 C59.2176617,214.505388 69.173218,223.982561 81.372524,229.432431 C82.9137511,239.763567 87.7722613,249.313496 95.2153746,256.642056 L95.2153746,256.642056 C74.1511254,258.942799 53.070916,252.450464 36.9508896,238.69762 L36.9508896,238.69762 Z M153.516481,265.394546 C100.891676,264.515634 86.7924761,236.097507 92.9082328,202.772127 C99.0239896,169.446745 125.28146,131.836672 153.516481,112.976704 C181.71488,131.836672 208.045594,169.629852 214.124729,202.772127 C220.203865,235.914402 206.141285,264.515634 153.516481,265.394546 L153.516481,265.394546 Z M263.52686,117.481124 C272.997103,125.768746 280.748638,135.834542 286.341928,147.107754 C292.384442,159.156161 295.936708,172.339828 294.178886,183.729052 C294.932607,204.764655 286.062833,224.997985 270.082071,238.69762 C254.233263,252.256669 233.569667,258.787007 212.835295,256.822515 L211.780965,256.715298 C215.46793,253.094009 218.546997,248.902025 220.89967,244.300678 C223.293095,239.620953 224.924921,234.589482 225.73368,229.39581 C237.917934,223.923504 247.866877,214.45263 253.93208,202.552399 C260.138888,190.667952 263.876046,177.650187 264.918469,164.283142 C265.674657,156.531557 265.882695,148.73626 265.541031,140.955376 C265.339302,133.097408 264.666704,125.258598 263.52686,117.481124 Z M115.466952,76.7948617 C109.942575,82.8865217 105.250742,89.6841374 101.514238,97.0098181 C97.7863592,104.422972 94.840763,112.204255 92.7251264,120.227721 C89.7588012,136.048122 88.0009789,151.868522 86.2797779,167.835408 C84.5585768,183.802294 82.8739972,199.622694 80.1273999,215.626203 C60.3885203,201.197411 52.8445329,178.272478 53.3938523,154.651741 C54.1696602,131.227657 61.8103062,108.547673 75.3666311,89.4292094 C81.7753582,79.8344295 86.4628843,74.4877199 92.2124282,72.6200338 C97.9619719,70.7157263 104.773533,72.3270633 115.466952,76.7948617 Z M214.783913,72.6200338 C220.533455,74.4877199 225.257603,79.9442932 231.812816,89.3193455 C245.371083,108.43682 253.011931,131.117405 253.785595,154.541877 C254.371535,178.162614 246.827548,201.087548 227.088669,215.516338 C224.342071,199.512831 222.657491,183.582566 220.93629,167.725544 C219.215089,151.868522 217.27416,136.048122 214.454321,120.117857 C212.354961,112.089189 209.408729,104.306227 205.665208,96.8999542 C201.880999,89.625183 197.12553,82.898534 191.529388,76.9047256 C202.259428,72.3270633 209.070989,70.7157263 214.783913,72.6200338 Z M142.823062,81.9950861 C145.886945,84.2309162 147.740233,87.7616321 147.84018,91.5532448 C148.0378,95.2860034 148.0378,99.0266032 147.84018,102.759362 C138.437297,109.866206 129.619886,117.716152 121.472845,126.233614 C113.173283,134.945094 105.718033,144.423561 99.207096,154.541877 C100.244667,137.634252 103.952703,120.99753 110.193485,105.24961 C117.37126,87.891115 128.174543,75.1835245 142.823062,81.9950861 Z M196.766233,105.176368 L196.766233,105.24961 C203.027855,120.991115 206.736644,137.63121 207.752622,154.541877 C201.255075,144.423858 193.811999,134.94528 185.523495,126.233614 C177.337393,117.635175 168.470668,109.711458 159.009676,102.539634 C158.794724,98.8073542 158.794724,95.0657971 159.009676,91.3335169 C159.10054,87.5856567 160.910206,84.08787 163.91693,81.8486009 C178.89504,75.1835245 189.661702,87.891115 196.766233,105.176368 Z M73.4257024,72.5834124 C70.0032644,76.4974476 66.8583873,80.6457484 64.0140287,84.9980325 C61.1406338,89.3643894 58.535704,93.9016147 56.2136923,98.584534 C52.7712902,96.4971199 50.8669827,96.5337414 48.8894327,97.852108 C46.9118826,99.1704747 44.3117704,101.770587 40.2834278,104.773533 C41.2355815,102.246664 42.3342205,99.9761433 43.3596167,97.8887294 C44.3850131,95.8013153 45.3737881,93.9336291 46.2526992,92.3222921 C48.8541569,87.1068171 52.7190691,82.6250298 57.4954377,79.28511 C62.2643255,75.9361758 67.6969591,73.650723 73.4257024,72.5834124 Z M233.717123,72.5834124 C239.394079,73.6728059 244.774385,75.957252 249.500902,79.28511 C254.29702,82.6133802 258.176407,87.0973469 260.780262,92.3222921 C261.659173,93.9336291 262.647948,95.8013153 263.673345,97.8887294 C264.698742,99.9761433 265.797381,102.246664 266.93264,104.773533 C262.68457,101.770587 260.377429,99.1704747 258.253393,97.852108 C256.129358,96.5337414 254.22505,96.4971199 250.929134,98.584534 C248.579101,93.9166424 245.975085,89.3810113 243.128796,84.9980325 C240.272463,80.6541977 237.128192,76.5066957 233.717123,72.5834124 Z M153.369996,36.8776469 C155.998358,36.8632301 158.622245,37.096192 161.206953,37.5734517 C163.605336,37.9900207 165.968236,38.5899278 168.274864,39.3678953 C164.084239,42.8983438 161.452889,47.9373775 160.950604,53.3938523 C160.488864,58.8335364 160.984658,64.3120526 162.415456,69.580466 C160.659047,70.3612061 158.999846,71.3444364 157.471581,72.5101699 C156.184437,73.4677831 154.998112,74.5528455 153.930467,75.7484629 L153.406617,76.3554061 C152.229093,74.9237259 150.88958,73.6333687 149.414895,72.5101699 C147.926435,71.3439195 146.303517,70.3603323 144.580884,69.580466 C146.05213,64.2693154 146.536224,58.733262 146.009115,53.2473672 C145.526352,47.7851596 142.891342,42.7391141 138.684855,39.2214101 C140.958152,38.4753638 143.283961,37.900032 145.642902,37.5002091 L145.496417,37.5734517 C148.093672,37.0977423 150.729566,36.8648029 153.369996,36.8776469 Z M197.75501,44.4582556 L199.000132,45.0441965 L200.318499,45.7033797 C199.305111,48.5098821 198.449283,51.3707996 197.75501,54.2727636 C197.286255,55.8841005 196.823362,57.5130159 196.417891,58.9391957 L196.181913,59.768813 C195.687341,61.5059679 195.30724,62.8260338 195.154896,63.2449816 C192.760673,64.1667007 190.315175,64.9492602 187.830637,65.5887446 C185.363778,66.1633065 183.113896,67.4344261 181.348667,69.2508744 C180.157692,68.7824669 178.933627,68.4030066 177.686537,68.115614 C176.41877,67.8525788 175.133697,67.6812359 173.841301,67.602916 C170.583677,60.6292167 171.872111,52.3774509 177.100597,46.7287761 L177.100597,46.6555335 C182.728649,41.4069696 191.148701,40.5112193 197.75501,44.4582556 Z M129.895744,46.7287761 C135.239054,52.269396 136.687632,60.4973158 133.557873,67.5296733 C132.253371,67.6080043 130.956123,67.779339 129.676016,68.0423715 C128.42984,68.3331396 127.206017,68.7125245 126.013886,69.1776317 C124.237548,67.3756403 121.992126,66.1070401 119.531916,65.5155019 C117.047378,64.8760175 114.60188,64.0934582 112.207657,63.1717389 C111.949843,62.4627505 111.03976,59.1730446 110.001491,55.6485219 L109.715543,54.683229 C109.667486,54.5219641 109.619263,54.3606546 109.570923,54.1995209 C108.822911,51.2877805 107.893353,48.4257221 106.787705,45.6301372 L107.922965,45.0441965 L109.20471,44.4582556 C115.832635,40.4992709 124.284079,41.4266859 129.895744,46.7287761 Z M96.2773923,51.3430597 C96.2773923,51.7092727 96.9731969,53.6502015 97.5225164,55.5911302 C98.0718358,57.5320591 98.6577765,59.5096091 98.8042617,59.9490646 L82.8739972,59.9490646 L82.8739972,59.9490646 C77.4221406,59.9708324 71.9995442,60.7472496 66.760626,62.2562064 C70.8766571,57.9385171 75.6931028,54.3478506 81.0063109,51.63603 C86.7924761,48.7429476 92.7617476,47.6076872 96.2773923,51.3430597 Z M226.02665,51.5261661 C231.337331,54.2710153 236.142255,57.8994759 240.235715,62.2562064 C234.996797,60.7472496 229.574199,59.9708324 224.122343,59.9490646 C218.812256,59.729337 213.538789,59.9856861 208.228699,59.8392007 C208.228699,59.3997452 208.924504,57.4221952 209.510446,55.4812663 C209.693551,54.8747261 209.869506,54.2681859 210.029367,53.7097021 L210.212903,53.0656644 C210.474901,52.1434353 210.673171,51.4391906 210.75557,51.2331957 C214.417699,47.571066 220.240485,48.6330836 226.02665,51.5261661 Z" id="Shape" fill-rule="nonzero"></path>
                    <g id="outer-overlay" transform="translate(12.477181, 12.085028)" fill="#FDC772">
                        <path d="M264.013619,60.242035 C266.357381,56.8728757 268.481417,53.7600654 270.312481,51.0134679 C273.834029,60.8746138 276.504927,71.019129 278.295924,81.3359027 C280.696721,94.0115348 280.90729,107.004875 278.918486,119.751644 C274.517978,111.885706 270.840753,103.636465 267.932097,95.1055107 C265.011364,86.4850883 261.064551,78.2471891 256.176661,70.569241 C259.033122,67.0902178 261.669855,63.5745732 264.013619,60.242035 Z" id="Shape-path"></path>
                        <path d="M210.693008,5.2734669 C215.998396,2.71120081 221.648469,0.934758703 227.465563,-2.62900812e-13 C230.083853,4.83461832 232.08908,9.97685576 233.434835,15.3077026 C235.525164,23.4497389 235.997962,31.922758 234.826444,40.2468064 C229.586852,35.274437 223.560604,31.2033163 216.991872,28.1983995 C210.872941,25.3768433 204.05456,24.43374 197.399477,25.4884234 C196.264218,24.7926186 195.165578,24.1700566 194.103561,23.5841159 C193.041542,22.998175 191.942903,22.4488556 190.917508,21.9727788 C195.960403,14.7954396 202.772449,9.04304505 210.693008,5.2734669 L210.693008,5.2734669 Z" id="Shape-path"></path>
                        <path d="M48.6437651,15.3077026 C49.9895193,9.97685576 51.9947459,4.83461832 54.6130366,-2.62900812e-13 C60.4289377,0.939801268 66.0782952,2.71601844 71.385591,5.2734669 C79.3147766,9.0634773 86.127656,14.8418084 91.1610919,22.0460213 C90.0990743,22.5220983 89.0370566,23.0714177 87.9750389,23.6573584 C86.9130214,24.2432991 85.7777611,24.8658613 84.6791221,25.5616659 C78.0240618,24.5047574 71.2050321,25.4479502 65.0867278,28.271642 C58.518195,31.2454218 52.4908629,35.2925216 47.2521558,40.2468064 C46.080638,31.922758 46.5534349,23.4497389 48.6437651,15.3077026 L48.6437651,15.3077026 Z" id="Shape-path"></path>
                        <path d="M3.7460538,81.3359027 C5.56447484,71.0214304 8.24728729,60.8781941 11.766118,51.0134679 C13.5605617,53.7600654 15.6845969,56.8728757 18.0649813,60.242035 C20.4453656,63.6111944 23.0088565,67.0902178 25.7920752,70.6424837 C20.8906515,78.31291 16.9430283,86.5524973 14.0366385,95.1787533 C11.1123399,103.70356 7.43572918,111.951424 3.05024914,119.824887 C1.09588807,107.04873 1.33118541,94.0330723 3.7460538,81.3359027 L3.7460538,81.3359027 Z" id="Shape-path"></path>
                        <path d="M24.4737084,226.612592 C8.50381096,212.926588 -0.342970022,192.697668 0.450136997,171.680645 C-1.30768531,160.2548 2.24458059,147.071132 8.28709477,135.059347 C13.86817,123.778508 21.621425,113.710477 31.1021634,105.432717 C29.9440956,113.208065 29.271403,121.047991 29.087992,128.906969 C28.7463274,136.687853 28.9543652,144.48315 29.7105541,152.234735 C30.7529782,165.60178 34.4901358,178.619546 40.6969433,190.503991 C46.7404806,202.420359 56.6960369,211.897533 68.8953428,217.347402 C70.4365699,227.678538 75.2950802,237.228467 82.7381934,244.557028 L82.7381934,244.557028 C61.6739442,246.857771 40.5937349,240.365436 24.4737084,226.612592 L24.4737084,226.612592 Z" id="Shape-path"></path>
                        <path d="M141.0393,253.309518 C88.4144946,252.430606 74.3152949,224.012479 80.4310516,190.687099 C86.5468084,157.361717 112.804279,119.751644 141.0393,100.891676 C169.237699,119.751644 195.568413,157.544824 201.647547,190.687099 C207.726684,223.829373 193.664104,252.430606 141.0393,253.309518 L141.0393,253.309518 Z" id="Shape-path"></path>
                        <path d="M251.049679,105.396095 C260.519922,113.683718 268.271457,123.749514 273.864747,135.022725 C279.907261,147.071132 283.459527,160.2548 281.701705,171.644023 C282.455426,192.679626 273.585652,212.912957 257.60489,226.612592 C241.756082,240.171641 221.092486,246.701978 200.358114,244.737487 L199.303784,244.63027 C202.990749,241.008981 206.069816,236.816996 208.422489,232.215649 C210.815914,227.535924 212.44774,222.504454 213.256499,217.310782 C225.440752,211.838476 235.389696,202.367601 241.454899,190.467371 C247.661706,178.582924 251.398864,165.565158 252.441288,152.198114 C253.197476,144.446529 253.405514,136.651232 253.06385,128.870347 C252.862121,121.012379 252.189523,113.17357 251.049679,105.396095 Z" id="Shape-path"></path>
                    </g>
                    <g id="inner-overlay" transform="translate(40.283428, 36.877016)" fill="#FDC772" fill-opacity="0.6" fill-rule="nonzero">
                        <path d="M105.212989,0.696434885 C107.810244,0.22072559 110.446138,-0.012213908 113.086568,0.00063022455 C115.71493,-0.0137866795 118.338817,0.219175236 120.923526,0.696434885 C123.321908,1.11300386 125.684808,1.71291108 127.991436,2.49087849 C123.800811,6.02132713 121.169462,11.0603607 120.667177,16.5168356 C120.205437,21.9565195 120.70123,27.4350357 122.132029,32.7034493 C120.375619,33.4841893 118.716418,34.4674196 117.188153,35.6331531 C115.686485,36.7503686 114.322044,38.0410565 113.123189,39.4783893 L113.123189,39.4783893 C111.945666,38.0467093 110.606152,36.7563519 109.131468,35.6331531 C107.643007,34.4669026 106.020089,33.4833157 104.297456,32.7034493 C105.768702,27.3922985 106.252797,21.8562451 105.725687,16.3703504 C105.242925,10.9081429 102.607914,5.86209728 98.4014274,2.34439329 C100.674724,1.59834706 103.000533,1.02301531 105.359474,0.623192289 L105.212989,0.696434885 Z" id="Path"></path>
                        <path d="M156.482806,68.3725934 C162.744427,84.1140986 166.453215,100.754193 167.469195,117.66486 C160.971647,107.546842 153.528572,98.0682636 145.240067,89.3565972 C137.053965,80.758158 128.18724,72.8344408 118.726248,65.6626173 C118.511297,61.9303373 118.511297,58.1887803 118.726248,54.4565003 C118.817112,50.7086401 120.626778,47.2108531 123.633502,44.9715841 C138.611613,38.3065079 149.378274,51.0140981 156.482806,68.2993509 L156.482806,68.3725934 Z" id="Path"></path>
                        <path d="M209.217476,42.4080932 C214.013592,45.7363634 217.892979,50.2203301 220.496835,55.4452753 C221.375745,57.0566124 222.364521,58.9242986 223.389916,61.0117126 C224.415313,63.0991265 225.513953,65.369647 226.649212,67.8965166 C222.401142,64.8935702 220.094,62.2934579 217.969964,60.9750913 C215.84593,59.6567245 213.941621,59.6201033 210.645705,61.7075172 C208.295673,57.0396257 205.691659,52.5039945 202.845369,48.1210157 C199.989036,43.777181 196.844763,39.6296788 193.433695,35.7063957 C199.110651,36.795789 204.490959,39.0802351 209.217476,42.4080932 L209.217476,42.4080932 Z" id="Path"></path>
                        <path d="M174.500485,35.743017 C180.250028,37.6107032 184.974176,43.0672766 191.529388,52.4423289 C205.087655,71.5598034 212.728504,94.2403884 213.502167,117.66486 C214.088108,141.285598 206.54412,164.21053 186.805241,178.639321 C184.058643,162.635814 182.374063,146.70555 180.652863,130.848528 C178.931662,114.991506 176.990733,99.171105 174.170893,83.2408405 C172.071533,75.2121725 169.125302,67.4292101 165.381781,60.0229376 C161.597572,52.7481661 156.842102,46.0215171 151.24596,40.0277088 C161.976001,35.4500466 168.787562,33.8387095 174.500485,35.743017 L174.500485,35.743017 Z" id="Path"></path>
                        <path d="M167.945272,22.962184 C167.945272,22.5227285 168.641077,20.5451783 169.227018,18.6042496 C169.812958,16.6633208 170.325657,14.722392 170.472142,14.356179 C174.134272,10.6940492 179.957058,11.7560669 185.743223,14.6491494 C191.053903,17.3939984 195.858826,21.0224593 199.952286,25.3791897 C194.713369,23.8702329 189.290773,23.0938157 183.838915,23.072048 C178.528827,22.8523201 173.25536,23.1086692 167.945272,22.962184 L167.945272,22.962184 Z" id="Path"></path>
                        <path d="M67.6395373,8.16717965 L68.9212826,7.58123889 C75.5492073,3.6222541 84.000651,4.54966916 89.612316,9.85175935 C94.9556269,15.3923793 96.4042042,23.6202992 93.2744458,30.6526565 C91.9699438,30.7309875 90.6726957,30.9023221 89.3925882,31.1653547 C88.1464118,31.4561229 86.9225896,31.8355078 85.7304584,32.3006151 C83.9541205,30.4986236 81.7086983,29.2300235 79.2484886,28.6384853 C76.7639505,27.9990009 74.3184522,27.2164414 71.924229,26.2947221 C71.6312587,25.4890535 70.4959985,21.3508469 69.2874956,17.3225041 C68.5394832,14.4107637 67.6099259,11.5487054 66.5042771,8.75312043 L67.6395373,8.16717965 Z" id="Path"></path>
                        <path d="M136.817169,9.77851677 C142.445221,4.52995273 150.865274,3.63420249 157.471581,7.58123889 L158.716705,8.16717965 L160.035072,8.82636302 C159.021684,11.6328653 158.165854,14.4937828 157.471581,17.3957467 C156.2997,21.4240896 155.164439,25.5622962 154.871469,26.3679647 C152.477246,27.289684 150.031748,28.0722434 147.547209,28.7117278 C145.08035,29.2862896 142.830468,30.5574093 141.065239,32.3738576 C139.874264,31.90545 138.650199,31.5259898 137.40311,31.2385974 C136.135342,30.9755622 134.850269,30.804219 133.557873,30.7258992 C130.300249,23.7522001 131.588683,15.5004342 136.817169,9.85175935 L136.817169,9.77851677 Z" id="Path"></path>
                        <path d="M3.07618902,61.0117126 C4.10158537,58.9242986 5.09036041,57.0566124 5.96927155,55.4452753 C8.57072926,50.2298003 12.4356414,45.748013 17.21201,42.4080932 C21.9808979,39.0591589 27.4135313,36.7737062 33.1422746,35.7063957 C29.7198366,39.6204307 26.5749597,43.7687317 23.7306011,48.1210157 C20.8572062,52.4873727 18.2522763,57.0245978 15.9302646,61.7075172 C12.4878626,59.6201033 10.5835551,59.6567245 8.60600502,60.9750913 C6.62845492,62.2934579 4.02834278,64.8935702 3.53142104e-14,67.8965166 C0.952153746,65.369647 2.05079268,63.0991265 3.07618902,61.0117126 Z" id="Path"></path>
                        <path d="M51.9290004,35.743017 C57.6785443,33.8387095 64.4901057,35.4500466 75.1835245,39.917845 C69.6591472,46.0095048 64.9673146,52.8071205 61.2308102,60.1328013 C57.5029314,67.5459548 54.5573352,75.3272384 52.4416986,83.3507042 C49.4753734,99.171105 47.7175511,114.991506 45.9963503,130.958392 C44.2751492,146.925277 42.5905696,162.745678 39.8439721,178.749185 C20.1050926,164.320394 12.5611052,141.395462 13.1104246,117.774724 C13.8862325,94.3506404 21.5268784,71.6706561 35.0832033,52.5521928 C41.4919305,42.9574127 46.1794567,37.6107032 51.9290004,35.743017 Z" id="Path"></path>
                        <path d="M26.4771984,25.3791897 C30.5932293,21.0615003 35.409675,17.4708338 40.7228833,14.7590133 C46.5090483,11.8659308 52.4783198,10.7306705 55.9939645,14.4660429 C55.9939645,14.8322559 56.6897691,16.7731847 57.2390886,18.7141135 C57.788408,20.6550423 58.3743489,22.6325923 58.5208341,23.072048 C53.2107459,23.072048 47.9006577,23.072048 42.5905696,23.072048 C37.138713,23.0938157 31.7161166,23.8702329 26.4771984,25.3791897 L26.4771984,25.3791897 Z" id="Path"></path>
                        <path d="M102.539634,45.1180693 C105.603517,47.3538993 107.456805,50.8846153 107.556752,54.6762279 C107.754372,58.4089866 107.754372,62.1495866 107.556752,65.8823452 C98.1538696,72.9891896 89.3364583,80.8391349 81.1894175,89.3565972 C72.8898551,98.0680772 65.4346054,107.546544 58.9236684,117.66486 C59.9612391,100.757235 63.669275,84.1205133 69.9100578,68.3725934 C77.087832,51.0140981 87.891115,38.3065079 102.539634,45.1180693 Z" id="Path"></path>
                    </g>
                </g>
            </g>
        </g>
    </g>
</svg>