<?xml version="1.0" encoding="UTF-8"?>
<svg width="435px" height="463px" viewBox="0 0 435 463" version="1.1" xmlns="http://www.w3.org/2000/svg" xmlns:xlink="http://www.w3.org/1999/xlink">
    <title>orange-1</title>
    <g id="Page-1" stroke="none" stroke-width="1" fill="none" fill-rule="evenodd">
        <g id="orange-1" fill="#FDC772" fill-rule="nonzero">
            <path d="M351.38,375.91 C351.313333,375.923333 351.253333,375.986667 351.2,376.1 C351.146667,376.2 351.066667,376.256667 350.96,376.27 C339.206667,378.03 327.39,378.82 315.51,378.64 C306.2,378.5 298.18,378.92 289.5,379.17 C287.813333,379.216667 286.656667,380.066667 286.03,381.72 C285.91,382.026667 285.886667,382.343333 285.96,382.67 C287.926667,391.416667 288.526667,399.36 287.76,406.5 C287.053333,413.04 284.123333,419.026667 278.97,424.46 C266.563333,437.526667 252.153333,447.756667 235.74,455.15 C215.62,464.21 195.073333,465.25 174.1,458.27 C165.813333,455.51 159.066667,452.986667 153.86,450.7 C151.666667,449.74 149.87,448.15 148.47,445.93 C148.296667,445.656667 148.063333,445.45 147.77,445.31 C143.47,443.29 134.24,444.78 129.01,444.19 C100.203333,440.943333 77.7666667,427.696667 61.7,404.45 C54.54,394.08 50.16,381.3 42.68,370.6 C37.45,363.1 33.6,355.76 32.91,347.26 C32.25,338.99 32.39,328.28 28.52,324.21 C16.14,311.216667 8.04666667,295.913333 4.24,278.3 C0.933333333,262.986667 -0.44,247.543333 0.12,231.97 C1.08,205.01 10.23,181.48 29.54,162.38 C33.3066667,158.653333 35.6566667,155.986667 36.59,154.38 C41.74,145.53 40.17,134.15 41.47,124.35 C43.7233333,107.243333 49.8566667,91.8566667 59.87,78.19 C63.07,73.8166667 67.3633333,68.72 72.75,62.9 C90.15,44.08 112.2,26.84 137.05,19.35 C147.88,16.08 158,17.71 167.96,22.59 C169.86,23.52 171.53,22.85 172.84,21.18 C181.52,10.07 188.46,4.66 202.96,2.39 C230.98,-2.01666667 257.956667,1.67666667 283.89,13.47 C285.2,14.06 287.55,15.51 288.55,16.6 C299.21,28.11 311.73,38.67 327.81,41.52 C329.41,41.8 331.513333,41.8 334.12,41.52 C350.29,39.79 361.12,48.32 370.48,60.36 C371.926667,62.2133333 373.526667,63.8833333 375.28,65.37 C385.733333,74.2233333 392.95,84.7666667 396.93,97 C399.776667,105.773333 401.57,113.523333 402.31,120.25 C403.2,128.39 403.45,137.6 406.56,145.23 C409.76,153.07 415.36,159.84 419.31,167.21 C437.67,201.48 438.33,241.84 427.5,278.26 C426.65,281.1 426.12,283.72 426,286.92 C425.51,300.45 420.87,311.29 414.02,323.23 C410.673333,329.056667 407.64,335.036667 404.92,341.17 C401.65,348.53 398.18,353.12 391.88,357.14 C386.92,360.306667 380.46,364.016667 372.5,368.27 C365.84,371.836667 358.8,374.383333 351.38,375.91 Z M199.1,28.42 L198.25,29.01 C197.896667,29.2566667 197.916667,29.47 198.31,29.65 C200.296667,30.5833333 201.506667,31.5966667 201.94,32.69 C203.546667,36.77 205.636667,40.41 208.21,43.61 C208.352842,43.7885178 208.416649,44.0173989 208.386365,44.2426381 C208.35608,44.4678773 208.234388,44.6695243 208.05,44.8 L205.8,46.39 C205.573333,46.55 205.6,46.62 205.88,46.6 C207.98,46.41 211.42,46.21 212.98,47.79 C213.500955,48.3189643 213.698733,49.0864123 213.498322,49.8012782 C213.297912,50.5161441 212.730009,51.0689362 212.01,51.25 C205.023333,53.01 197.936667,54.0433333 190.75,54.35 C190.487178,54.3650443 190.243511,54.2124765 190.14226,53.9694748 C190.04101,53.7264731 190.104254,53.4460255 190.3,53.27 C192.226667,51.4966667 194.416667,50.14 196.87,49.2 C197.001602,49.1498449 197.07547,49.0097457 197.042507,48.8728223 C197.009544,48.735899 196.880009,48.6447673 196.74,48.66 C192.96,49.08 192.42,48.54 190.01,45.52 C188.53,43.66 186.54,42.6033333 184.04,42.35 C183.825029,42.3303586 183.619756,42.2468575 183.45,42.11 L180.72,39.88 C180.473333,39.68 180.223333,39.67 179.97,39.85 L177.39,41.67 C177.180814,41.8204461 177.042691,42.0500506 177.008571,42.3040557 C176.974451,42.5580608 177.047392,42.8136976 177.21,43.01 C180.376667,46.8033333 183.153333,50.8466667 185.54,55.14 C189.43,62.17 193.73,57.77 198.98,56.64 C204.08,55.55 209.45,55.14 215.73,55.24 C216.099794,55.2448699 216.433444,55.4725372 216.58,55.82 C218.02,59.4 215.58,60.44 212.59,60.83 C206.836667,61.5966667 201.06,62.33 195.26,63.03 C192.33,63.39 191.3,65.16 192.57,67.81 C197.543333,78.2366667 200.636667,89.19 201.85,100.67 C201.97,101.783333 202.733333,102.443333 204.14,102.65 C204.46,102.696667 204.713333,102.586667 204.9,102.32 C205.973333,100.766667 207.26,99.4166667 208.76,98.27 C208.980746,98.1013777 209.138999,97.8657572 209.21,97.6 L210.39,92.98 C210.483333,92.6133333 210.616667,92.26 210.79,91.92 C211.156667,91.22 211.686667,90.7033333 212.38,90.37 C212.528017,90.2962995 212.61347,90.1372703 212.593237,89.9731625 C212.573005,89.8090548 212.451485,89.6755427 212.29,89.64 C211.296667,89.4333333 210.283333,89.3666667 209.25,89.44 C204.8,89.77 204.62,84.15 208.76,83.85 C211.68,83.64 221.31,82.83 222.43,86.54 C225.6,96.99 217.12,109.94 209.15,115.61 C208.698055,115.928744 208.559922,116.537392 208.83,117.02 C212.62,123.76 210.34,130.03 207.17,137.74 C204.45,144.34 211,147.09 216.26,146.16 C225.66,144.5 230.873333,139.17 231.9,130.17 C232.61,123.99 228.62,119.11 230.48,112.82 C231.55,109.17 235.1,110.35 236.88,112.76 C238.293333,114.673333 239.876667,116.49 241.63,118.21 C241.86037,118.433613 241.993312,118.73902 242,119.06 C242.006667,120.326667 241.6,121.456667 240.78,122.45 C240.567218,122.700978 240.453423,123.021028 240.46,123.35 C240.473333,124.623333 241.066667,125.406667 242.24,125.7 C242.539238,125.774859 242.859816,125.688115 243.09,125.47 C244.89,123.77 249.27,118.8 246.04,116.68 C241.466667,113.673333 237.716667,110.436667 234.79,106.97 C233.663333,105.636667 233.84,104.28 235.32,102.9 C235.574063,102.657466 235.936688,102.563033 236.28,102.65 C241.01,103.88 245.92,108.92 248.07,112.69 C248.142404,112.810296 248.263849,112.892859 248.402343,112.915942 C248.540837,112.939024 248.682495,112.900311 248.79,112.81 C250.096667,111.696667 250.66,110.3 250.48,108.62 C250.441186,108.266225 250.273528,107.941611 250.01,107.71 C247.65,105.643333 245.176667,103.713333 242.59,101.92 C240.42,100.42 240.71,98.46 242.58,96.8 C246.45,93.37 249.88,90.18 250.16,84.63 C250.27,82.29 246.97,72.48 250.66,70.26 C251.706667,69.6266667 252.73,69.7933333 253.73,70.76 C257.31,74.2066667 260.973333,77.5533333 264.72,80.8 C265.86,81.79 266.9,83.64 268.75,82.25 C270.703333,80.7833333 270.746667,79.16 268.88,77.38 C265.12,73.8066667 261.433333,70.1533333 257.82,66.42 C256.806667,65.3733333 256.45,64.1966667 256.75,62.89 C257.020407,61.6905288 258.134924,60.8749237 259.36,60.98 C261.74,61.18 263.55,62.27 265.26,64.15 C269.34,68.62 272.91,73.44 277.25,74.68 C277.783333,74.8333333 277.886667,74.6866667 277.56,74.24 C273.21,68.14 268.75,60.56 262.47,56.37 C261.633425,55.8133124 261.292912,54.7544011 261.65,53.82 C263.87,47.99 269.59,54.17 271.78,56.07 C275.68,59.4566667 278.406667,63.7 279.96,68.8 C280.097448,69.2505436 280.420904,69.6208621 280.848871,69.8176504 C281.276838,70.0144388 281.768507,70.0189328 282.2,69.83 C283.3,69.35 283.47,68.4033333 282.71,66.99 C278.53,59.15 272.883333,52.5633333 265.77,47.23 C264.923333,46.59 264.346667,45.71 264.04,44.59 C263.953333,44.2633333 263.98,43.9433333 264.12,43.63 C265.113333,41.4833333 266.726667,41.1166667 268.96,42.53 C277.26,47.7633333 283.603333,54.7733333 287.99,63.56 C288.23,64.0333333 288.5,64.05 288.8,63.61 L291.22,60.06 C291.446667,59.7266667 291.45,59.39 291.23,59.05 C287.95,53.8833333 284.53,48.8133333 280.97,43.84 C278.97,41.05 276.24,39.13 273.61,37 C269.86,33.95 273.28,32.46 276.16,31.27 C276.486667,31.1366667 276.513333,30.96 276.24,30.74 L274.19,29.09 C273.89,28.8433333 273.71,28.53 273.65,28.15 C273.3,25.96 273.88,20.9 271.72,19.79 C267.54,17.6366667 263.483333,15.27 259.55,12.69 C252.07,7.79 242.37,7.26 232.5,6.95 C225.54,6.73 218.61,8.28 211.6,11.1 C208.746667,12.2533333 205.88,13.3666667 203,14.44 C196.8,16.75 200.06,21.28 200.4,25.71 C200.480968,26.7805295 199.985617,27.813146 199.1,28.42 L199.1,28.42 Z M99.51,95.54 C99.9178792,95.5347087 100.303185,95.7273059 100.542199,96.0559502 C100.781213,96.3845945 100.843851,96.8079198 100.71,97.19 C98.17,104.496667 95.6233333,111.783333 93.07,119.05 C92.5033333,120.656667 92.4933333,122.236667 93.04,123.79 C93.1461717,124.108842 93.405393,124.353036 93.73,124.44 C94.89,124.753333 96.0566667,124.706667 97.23,124.3 C99.9833333,123.36 102.826667,122.923333 105.76,122.99 C108.11,123.04 109.32,120.73 109.38,118.47 C109.47,114.69 109.28,110.72 110.17,107.21 C111.976667,100.136667 115.613333,94.3666667 121.08,89.9 C121.707342,89.3864477 122.522746,89.1620814 123.325983,89.2819959 C124.12922,89.4019105 124.845887,89.8549983 125.3,90.53 C125.586667,90.9633333 125.63,91.51 125.43,92.17 C125.316667,92.55 125.053333,93 124.64,93.52 C118.373333,101.413333 114.756667,110.21 113.79,119.91 C113.667045,121.183842 114.525931,122.344849 115.78,122.6 C135.49,126.58 155.11,134.27 174.52,140.94 C181.71,143.41 187.11,141.89 190.63,134.73 C194.556667,126.73 196.366667,118.15 196.06,108.99 C196.053833,108.813974 195.957015,108.653292 195.805199,108.567126 C195.653382,108.48096 195.469019,108.482052 195.32,108.57 L189.38,112.04 C188.935539,112.302792 188.388958,112.325356 187.92435,112.100091 C187.459741,111.874827 187.138942,111.431715 187.07,110.92 C186.43,106.17 191.31,104.9 194.72,103.59 C195.662124,103.231145 196.230708,102.268287 196.09,101.27 C193.583333,83.1033333 186.9,66.6633333 176.04,51.95 C170.94,45.03 165.37,38.15 159.08,32.67 C154.32,28.53 148.92,26.7466667 142.88,27.32 C138.1,27.77 131.79,30.68 126.49,32.33 C121.98,33.73 117.3,36.24 113.45,39.13 C106.496667,44.3433333 99.39,49.34 92.13,54.12 C79.89,62.18 70.09,71.84 67.69,86.83 C67.3433333,88.99 66.81,90.8733333 66.09,92.48 C64.56,95.91 61.56,101.19 61.21,104.83 C61.1899538,105.055217 61.3363114,105.264503 61.5541258,105.322086 C61.7719403,105.379669 61.9955959,105.268203 62.08,105.06 C64.41,99.71 66.09,94.47 68.94,89.5 C71.12,85.69 74.08,84.26 77.96,87.62 C78.9266667,88.4533333 79.22,89.3366667 78.84,90.27 C74.1333333,101.57 70.8866667,112.15 69.1,122.01 C68.38,125.983333 68.2133333,129.913333 68.6,133.8 C68.6271083,134.067717 68.7974056,134.29962 69.044735,134.405618 C69.2920645,134.511617 69.5774402,134.475003 69.79,134.31 C71.1033333,133.303333 71.7233333,132.04 71.65,130.52 C71.0166667,116.873333 74.6833333,104.593333 82.65,93.68 C83.9166667,91.9466667 85.5233333,90.93 87.47,90.63 C87.8450289,90.5721757 88.2270754,90.6464625 88.55,90.84 C90.93,92.2266667 92.84,94.09 94.28,96.43 C94.4544083,96.7116826 94.740062,96.9062173 95.066054,96.9653152 C95.3920459,97.0244132 95.7278099,96.9425331 95.99,96.74 C97.0166667,95.9533333 98.19,95.5533333 99.51,95.54 Z M351.07,90.99 C354.08,88.17 356.8,91.13 359.25,92.8 C359.366176,92.8796865 359.516297,92.8905244 359.642714,92.828352 C359.769131,92.7661795 359.852192,92.640662 359.86,92.5 C359.95,90.34 359.13,87.47 362.77,88.28 C367.19,89.27 367.82,93.8 369.29,97.5 C369.360579,97.6785414 369.557965,97.7761314 369.742097,97.7235223 C369.926229,97.6709132 370.034464,97.486003 369.99,97.3 C369.55,95.02 367.18,88.58 372.28,89.19 C375.28,89.55 374.48,94.81 379.43,94.73 C379.792125,94.7234999 380.131206,94.5510593 380.349762,94.2622524 C380.568319,93.9734455 380.642139,93.6002668 380.55,93.25 L379.32,88.6 C379.200244,88.1393769 379.290425,87.6493715 379.566326,87.2615656 C379.842228,86.8737597 380.275575,86.6278972 380.75,86.59 C382.29,86.47 383.746667,86.7233333 385.12,87.35 C385.893333,87.7033333 386.03,87.5366667 385.53,86.85 C378.71,77.4633333 371.393333,68.4833333 363.58,59.91 C355.69,51.25 347.62,44.6 335.25,47.78 C330.723333,48.9466667 323.79,51.92 314.45,56.7 C313.036667,57.4266667 309.713333,58.5366667 304.48,60.03 C301,61.03 301.35,63.82 300.03,65.97 C298.496667,68.4766667 296.533333,70.6133333 294.14,72.38 C292.266667,73.7533333 289.8,76.12 286.74,79.48 C276.36,90.8733333 267.57,102.596667 260.37,114.65 C256.516667,121.11 253.813333,125.416667 252.26,127.57 C244.81,137.9 233.25,145.62 239.74,160.33 C240.86,162.88 245.6,161.37 247.37,160.87 C247.721606,160.77344 247.944945,160.425546 247.89,160.06 C246.96,153.75 249.29,150.68 253.22,145.34 C254.33,143.82 254.4,142.2 254.79,140.45 C255.01,139.503333 255.603333,139.026667 256.57,139.02 C257.89,139.006667 258.746667,139.456667 259.14,140.37 C259.86,142.043333 260.876667,146.24 262.19,152.96 C262.456667,154.333333 263.056667,155.093333 263.99,155.24 C266.39,155.61 273.21,154.56 274.31,151.51 C274.663333,150.523333 274.506667,149.59 273.84,148.71 C270.58,144.41 268.496667,139.773333 267.59,134.8 C267.352606,133.486764 268.21869,132.227817 269.53,131.98 C271.51,131.6 272.32,132.23 273.17,134.03 C274.51,136.92 275.8,139.23 276.3,142.52 C277.41,149.87 279.53,152.43 287.12,149.48 C297.77,145.34 310.4,141.8 319.55,138.77 C341.55,131.49 362.82,125.34 386.07,125.2 C386.43,125.193333 386.59,125.013333 386.55,124.66 L385.66,116.85 C385.601006,116.305687 385.294851,115.818773 384.828986,115.528338 C384.36312,115.237903 383.788773,115.175886 383.27,115.36 C381.296667,116.066667 379.756667,117.08 378.65,118.4 C376.37,121.14 371.72,118.65 368.9,118.23 C368.077676,118.101319 367.397393,117.521533 367.14,116.73 C365.06,110.36 364.43,103.44 361.92,97.34 C361.726667,96.86 361.323333,96.32 360.71,95.72 C360.49,95.5066667 360.423333,95.5466667 360.51,95.84 C361.56,99.6 366.24,117.45 362.88,119.8 C362.327518,120.1846 361.629869,120.296376 360.986519,120.103371 C360.343168,119.910365 359.82494,119.433826 359.58,118.81 C356.96,112.16 356.36,104.03 353.25,96.9 C352.61,95.42 350.94,94.03 350.72,91.92 C350.688314,91.5727889 350.817258,91.2301682 351.07,90.99 L351.07,90.99 Z M83.51,123.35 C83.1366667,124.403333 83.51,125.346667 84.63,126.18 C84.9866357,126.446517 85.4363025,126.556585 85.8757166,126.48492 C86.3151307,126.413256 86.7065249,126.16602 86.96,125.8 L87.45,125.1 C87.6033333,124.88 87.68,124.636667 87.68,124.37 C87.6533333,118.743333 88.3766667,113.21 89.85,107.77 C89.9094279,107.565793 89.8029018,107.346711 89.6058558,107.267893 C89.4088099,107.189075 89.1880926,107.277259 89.1,107.47 C86.4,112.77 85.48,117.81 83.51,123.35 Z M59.78,114.35 C59.9,113.12 60.43,111.45 60.18,109.91 C60.1,109.37 59.9533333,109.353333 59.74,109.86 C55.31,120.37 53.69,132.63 52.75,143.79 C52.7427027,144.051124 52.9267568,144.278624 53.1836483,144.326012 C53.4405398,144.3734 53.6936504,144.226541 53.78,143.98 C56.76,133.98 58.76,124.103333 59.78,114.35 Z M54.75,171.69 C54.61,164.92 58.86,156.26 61.55,149.94 C61.6320247,149.765708 61.5745145,149.557638 61.4146236,149.450211 C61.2547327,149.342785 61.0403602,149.368184 60.91,149.51 C48.03,162.64 41.63,179.34 34.04,195.72 C33.9584854,195.882791 33.7813711,195.974528 33.6013766,195.947187 C33.4213821,195.919846 33.2794977,195.779654 33.25,195.6 C32.95,193.426667 33.12,191.266667 33.76,189.12 C34.98,185.02 35.7933333,180.776667 36.2,176.39 C36.2304498,176.182034 36.1024807,175.98358 35.90048,175.925504 C35.6984792,175.867429 35.4846506,175.967617 35.4,176.16 L19.19,208.25 C19.1350532,208.371186 19.0068462,208.441699 18.8750765,208.423205 C18.7433068,208.404711 18.6394638,208.30163 18.62,208.17 C18.1466667,205.41 18.2366667,202.673333 18.89,199.96 C19.6033333,197.026667 21.9866667,191.043333 26.04,182.01 C30.24,172.66 34.4,166.9 42.86,162.3 C45.1,161.07 45.92,159.91 44.56,157.52 C44.3939483,157.229843 44.1028433,157.032963 43.7731281,156.987824 C43.4434129,156.942684 43.1129982,157.054475 42.88,157.29 C37.88,162.256667 32.9033333,167.39 27.95,172.69 C17.28,184.08 10.72,201.92 7.8,216.75 C3.56,238.2 6.41,263.99 13.76,285.79 C15.5,290.97 18.63,295.6 22.56,301.16 C22.6543435,301.297955 22.8332799,301.344621 22.9838923,301.270549 C23.1345046,301.196477 23.2130657,301.023174 23.17,300.86 C17.3766667,281.593333 14.3166667,261.89 13.99,241.75 C13.87,234.06 14.3,225.37 18.16,218.49 C18.3544666,218.142369 18.7216726,217.927029 19.12,217.927029 C19.5183274,217.927029 19.8855334,218.142369 20.08,218.49 C20.3933333,219.043333 20.49,219.79 20.37,220.73 C19.1633333,230.123333 18.8933333,239.546667 19.56,249 C21.24,272.62 23.44,291.67 36.8,310.85 C39.18,314.27 42.06,316.98 45.51,312.52 C45.5933762,312.413397 45.6317918,312.278678 45.6167869,312.14551 C45.601782,312.012342 45.5345873,311.891646 45.43,311.81 C39.25,306.996667 34.82,300.903333 32.14,293.53 C30.51,289.04 25.6,272.09 28.28,268.29 C30.0066667,265.843333 32.2766667,264.856667 35.09,265.33 C35.9396206,265.474834 36.6051656,266.140379 36.75,266.99 C38.79,279.016667 43.5133333,289.88 50.92,299.58 C51.1975565,299.951549 51.7101296,300.054925 52.11,299.82 C54.11,298.68 55.1766667,297.34 55.31,295.8 C55.3966667,294.746667 54.7333333,293.46 53.32,291.94 C45.4333333,283.42 41.37,273.183333 41.13,261.23 C41.06,257.54 46.15,255.5 46.65,260.71 C47.65,271.11 51.2633333,280.543333 57.49,289.01 C57.7273954,289.331354 58.1604695,289.433254 58.51,289.25 C60.6966667,288.11 61.8066667,286.306667 61.84,283.84 C61.8397168,283.504939 61.6890127,283.188827 61.43,282.98 C53.19,276.27 48.33,262.83 46.76,252.67 C46.33,249.87 46.05,245.16 49.87,245.37 C51.1233333,245.436667 51.8033333,246.096667 51.91,247.35 C52.78,258.09 57.71,267.45 62.4,277.05 C62.7809011,277.832013 63.6243124,278.279949 64.49,278.16 C66.3166667,277.906667 67.1366667,277.07 66.95,275.65 C66.87,275.03 66.4733333,274.153333 65.76,273.02 C60.75,265.1 56.08,258.32 54.68,248.77 C53.94,243.76 59.4,240.79 60.48,246.8 C61.8533333,254.466667 64.8966667,261.39 69.61,267.57 C69.8166667,267.843333 70.0666667,267.883333 70.36,267.69 C75.5,264.23 74.14,260.8 71.05,256.27 C68.75,252.9 63.14,240.7 65.77,237.05 C67.56,234.58 70.01,235.71 70.73,238.38 C72.1966667,243.793333 74.0366667,249.076667 76.25,254.23 C76.6833333,255.25 77.5133333,255.643333 78.74,255.41 C82.68,254.65 80.9,249.87 79.35,247.25 C77.4,243.97 75.36,234.37 78.7,231.82 C80.25,230.65 82,231.38 82.39,233.26 C83.23,237.26 84.13,241.246667 85.09,245.22 C85.74,247.89 88.76,248.47 90.38,246.42 C90.9359275,245.727838 90.9644841,244.748753 90.45,244.02 C85.7633333,237.446667 83.4066667,230.25 83.38,222.43 C83.38,219.95 84.01,218.44 86.63,218.29 C87.9102968,218.215452 89.0139371,219.181138 89.11,220.46 C89.63,227.34 91.2466667,233.943333 93.96,240.27 C94.028121,240.42984 94.1574007,240.555753 94.3189819,240.619634 C94.4805631,240.683515 94.660994,240.680046 94.82,240.61 C96.3666667,239.943333 97.45,238.86 98.07,237.36 C99.65,233.55 95.39,230.5 94.26,227.15 C92.8866667,223.11 92.17,218.95 92.11,214.67 C92.06,211.32 91.69,208.03 95.49,207.64 C96.6017824,207.530107 97.6058666,208.301805 97.78,209.4 L100.94,229.64 C101.093333,230.626667 101.666667,231.08 102.66,231 C108.68,230.53 104.79,224.5 103.39,222.02 C102.47,220.373333 102.196667,217.533333 102.57,213.5 C102.83,210.75 103.05,208.26 106.66,208.88 C106.993333,208.933333 107.253333,209.096667 107.44,209.37 C108.146667,210.416667 108.5,211.46 108.5,212.5 C108.486667,216 108.806667,219.32 109.46,222.46 C109.537513,222.826347 109.788539,223.132015 110.132822,223.279281 C110.477106,223.426546 110.871531,223.396967 111.19,223.2 C113.623333,221.7 115.276667,219.566667 116.15,216.8 C116.256667,216.466667 116.133333,216.296667 115.78,216.29 C109.37,216.1 107.1,208 109.57,203.17 C110.54,201.25 112.82,200.84 114.13,202.98 C114.307548,203.269209 114.416994,203.597549 114.45,203.94 C114.83,207.36 114.62,211.88 117.27,214.52 C117.536667,214.78 117.85,214.876667 118.21,214.81 C119.59,214.57 120.543333,213.81 121.07,212.53 C121.201662,212.214884 121.179493,211.856488 121.01,211.56 C119.58,209.09 116.51,204.97 119.2,202.24 C120.053333,201.373333 121.193333,201.213333 122.62,201.76 C122.899821,201.86799 123.121684,202.09349 123.23,202.38 L125.08,207.38 C125.220062,207.756124 125.519109,208.051176 125.897083,208.186167 C126.275058,208.321157 126.693357,208.282301 127.04,208.08 L130,206.34 C130.569277,206.003178 130.968565,205.44027 131.098288,204.791658 C131.22801,204.143045 131.075939,203.469866 130.68,202.94 C128.706667,200.28 128.046667,197.316667 128.7,194.05 C128.766667,193.716667 128.936667,193.45 129.21,193.25 C130.156667,192.53 131.213333,192.166667 132.38,192.16 C133.415051,192.15442 134.287271,192.935964 134.4,193.97 L135.06,199.96 C135.090185,200.246146 135.240986,200.505991 135.475233,200.675487 C135.709479,200.844982 136.005381,200.908361 136.29,200.85 C138.21,200.456667 139.93,199.656667 141.45,198.45 C141.741656,198.219956 141.889935,197.85116 141.84,197.48 C141.53,194.96 139.79,193.11 139.41,191.11 C138.74,187.53 142.63,184.25 144.88,188.57 C146.01,190.72 146.2,194.05 149.97,192.2 C152.54,190.94 153.3,189.76 152.06,186.89 C150.9,184.23 149.54,180.43 153.66,179.32 C154.274048,179.152041 154.92973,179.236 155.481647,179.553259 C156.033564,179.870517 156.436103,180.394855 156.6,181.01 L157.46,184.2 C157.613941,184.774188 158.048841,185.230964 158.61479,185.412876 C159.180738,185.594788 159.800334,185.476957 160.26,185.1 L174.08,173.77 C174.46742,173.452341 174.692851,172.978351 174.694785,172.477354 C174.69672,171.976358 174.474955,171.500641 174.09,171.18 C172.12,169.53 168.63,167.73 171.36,164.6 C174.01,161.57 176.48,165.89 177.41,167.83 C177.543318,168.105327 177.814811,168.287979 178.118574,168.306704 C178.422337,168.325429 178.710249,168.177262 178.87,167.92 C179.636667,166.693333 179.963333,165.303333 179.85,163.75 C179.37,157.21 176.26,152.47 170.52,149.53 C166.053333,147.23 156.3,143.136667 141.26,137.25 C134.72,134.69 127.723333,132.59 120.27,130.95 C115,129.79 112.47,131.85 110.42,136.69 C107.66,143.236667 104.753333,149.606667 101.7,155.8 C101.554178,156.091834 101.232422,156.251485 100.911825,156.191082 C100.591228,156.13068 100.349628,155.86489 100.32,155.54 C99.7266667,148.826667 101.136667,142.556667 104.55,136.73 C104.928863,136.084756 104.95558,135.291893 104.621072,134.620862 C104.286564,133.94983 103.635823,133.490887 102.89,133.4 C97.74,132.79 89.21,134.24 86.63,139.58 C82.37,148.38 78.5533333,155.99 75.18,162.41 C72.7,167.11 72.05,171.91 68.13,175.69 C68.0123498,175.804596 67.8355145,175.833206 67.6877316,175.761554 C67.5399486,175.689901 67.4528915,175.533344 67.47,175.37 C68.69,163.06 73.17,151.59 78.69,140.83 C78.7616646,140.675663 78.7188225,140.492346 78.586178,140.385756 C78.4535336,140.279167 78.2652918,140.276792 78.13,140.38 C72.58,144.78 69.48,148.49 65.76,155.13 C62.6133333,160.776667 59.29,166.39 55.79,171.97 C55.6612177,172.184411 55.4058669,172.287427 55.1643527,172.222404 C54.9228386,172.157381 54.7537252,171.940086 54.75,171.69 Z M363.59,326.53 C362.52,340.93 356.52,352.59 347.81,365.48 C347.734805,365.593942 347.710431,365.73424 347.742536,365.868328 C347.774642,366.002416 347.860435,366.118632 347.98,366.19 C349.62,367.136667 351.13,367.306667 352.51,366.7 C363.4,361.92 374.62,358.72 380.5,347.37 C382.28,343.92 385.14,340.53 387.89,337.68 C396.54,328.74 403.74,317.92 409.89,307.49 C414.343333,299.943333 417.923333,291.693333 420.63,282.74 C432.74,242.68 431.66,200.77 411.48,163.84 C404,150.16 398.14,140.46 383.26,137.93 C376.36,136.76 366.32,137.93 359.37,139.63 C340.27,144.276667 321.01,148.86 301.59,153.38 C301.112752,153.492088 300.707124,153.804745 300.477221,154.237728 C300.247319,154.670711 300.215525,155.181865 300.39,155.64 C300.57,156.12 300.93,156.98 301.31,157.42 C306.563333,163.546667 309.243333,170.72 309.35,178.94 C309.35,179.373333 309.156667,179.5 308.77,179.32 C307.316667,178.633333 306.213333,177.603333 305.46,176.23 C303.906667,173.403333 302.273333,170.026667 300.56,166.1 C300.206667,165.286667 299.703333,164.79 299.05,164.61 C298.848555,164.553503 298.632367,164.600569 298.470976,164.736058 C298.309584,164.871547 298.223346,165.07837 298.24,165.29 L299.01,173.79 C299.061215,174.368312 298.850732,174.939165 298.436348,175.345803 C298.021965,175.752441 297.447243,175.952117 296.87,175.89 C294.52,175.64 293.64,174.69 293.42,172.28 C292.96,167.3 292.486667,163.95 292,162.23 C291.02,158.736667 288.77,157.866667 285.25,159.62 C285.035662,159.72402 284.873177,159.911469 284.799676,160.139509 C284.726175,160.367549 284.747942,160.616692 284.86,160.83 C288.026667,166.736667 289.43,173.05 289.07,179.77 C289.057216,179.950814 288.941594,180.10816 288.772856,180.174374 C288.604117,180.240588 288.412341,180.203866 288.28,180.08 C282.753333,174.833333 281.046667,168.493333 283.16,161.06 C283.26,160.693333 283.126667,160.566667 282.76,160.68 C278.326667,162.026667 273.893333,163.426667 269.46,164.88 C267.41,165.54 266.57,166.65 268.06,168.64 C268.253333,168.9 268.506667,169.073333 268.82,169.16 C270.98,169.76 273.25,169.24 275.15,170.06 C280.12,172.22 281.83,178.79 279.67,183.53 C279.5095,183.883433 279.16065,184.113611 278.772575,184.12214 C278.384499,184.13067 278.025873,183.91604 277.85,183.57 C276.42,180.75 274.21,175.07 272.09,173.37 C271.851405,173.182295 271.527882,173.143763 271.251876,173.270178 C270.975869,173.396594 270.793721,173.666731 270.78,173.97 L270.62,177.98 C270.593515,178.640756 270.137449,179.206216 269.497284,179.372014 C268.857119,179.537812 268.183902,179.264829 267.84,178.7 C263.793333,171.986667 257.59,168.85 249.23,169.29 C240.36,169.76 232.41,173.38 229.71,182.12 C229.581432,182.539375 229.624129,182.992378 229.828657,183.378917 C230.033185,183.765456 230.382709,184.053714 230.8,184.18 C233.126667,184.893333 235.516667,185.12 237.97,184.86 C238.306137,184.82868 238.612363,184.653694 238.81,184.38 C239.73,183.086667 240.333333,181.653333 240.62,180.08 C240.68447,179.738415 240.86922,179.432866 241.14,179.22 C242.233333,178.346667 243.53,178.163333 245.03,178.67 C248.19,179.73 245.57,183.46 244.59,185.1 C244.285205,185.615093 244.202534,186.231432 244.361212,186.805693 C244.519889,187.379955 244.906088,187.862096 245.43,188.14 C247.22,189.09 248.54,189.18 249.78,187.33 C251.85,184.23 254.72,178.99 258.22,180.23 C261.1,181.24 260.11,183.27 258.63,185 C257.31,186.54 256.24,188.253333 255.42,190.14 C255.293333,190.44 255.303333,190.74 255.45,191.04 C256.016667,192.173333 256.94,192.763333 258.22,192.81 C258.576474,192.81676 258.913887,192.644304 259.12,192.35 C260.606667,190.21 261.97,188 263.21,185.72 C265.95,180.69 272.09,184.75 268.55,188.54 C267.003333,190.193333 265.99,192.01 265.51,193.99 C264.71,197.32 269.28,199.17 271.17,195.95 C272.88,193.02 275.74,188.09 279.11,187.54 C280.73,187.273333 281.823333,188.07 282.39,189.93 C282.483333,190.223333 282.433333,190.493333 282.24,190.74 C279.95,193.64 273.74,199.31 277.96,202.87 C278.082774,202.977194 278.246158,203.025582 278.407505,203.002532 C278.568852,202.979482 278.712151,202.887283 278.8,202.75 C280.76,199.69 287.66,188.09 291.99,195.71 C292.257249,196.18411 292.313057,196.748675 292.143807,197.265933 C291.974557,197.783192 291.595815,198.205569 291.1,198.43 C287.226667,200.17 285.406667,202.926667 285.64,206.7 C285.78,209.11 287.48,210.53 289.83,210.2 C290.123606,210.162126 290.390962,210.003157 290.57,209.76 L297.18,200.63 C297.874377,199.676876 299.183405,199.419434 300.18,200.04 C305.46,203.3 299.2,207.8 297.02,210.51 C295,213.01 296.73,216.98 299.89,217.12 C300.227413,217.138524 300.553812,216.984704 300.76,216.71 C302.51,214.37 305.3,211.51 308.27,212.41 C310.65,213.13 311.71,216.09 309.34,217.63 C307.96,218.53 306.916667,219.246667 306.21,219.78 C305.863745,220.039227 305.736313,220.499628 305.9,220.9 C306.653333,222.706667 307.93,224.02 309.73,224.84 C310.731979,225.298478 311.917792,224.90029 312.44,223.93 C314.206667,220.676667 316.226667,217.703333 318.5,215.01 C322.15,210.7 327.4,214.83 324.12,218.13 C320.946667,221.33 318.743333,224.813333 317.51,228.58 C316.74,230.95 318.99,233.51 321.35,233.11 C321.71,233.05 321.963333,232.85 322.11,232.51 C323.81,228.616667 325.666667,224.806667 327.68,221.08 C329.21,218.24 330.63,215.01 334.03,216.99 C335.006432,217.55351 335.381771,218.775542 334.89,219.79 C332.23,225.316667 329.76,230.826667 327.48,236.32 C326.14,239.54 329.02,243.52 331.99,241.44 C332.263333,241.246667 332.446667,240.983333 332.54,240.65 C334.313333,234.276667 336.473333,228.036667 339.02,221.93 C340.96,217.26 347.34,218.38 345.66,222.43 C342.866667,229.21 340.266667,236.063333 337.86,242.99 C337.63,243.64 337.76,244.38 338.06,244.95 C338.160679,245.141406 338.365846,245.254281 338.581413,245.236861 C338.79698,245.219442 338.981361,245.075088 339.05,244.87 C341.69,236.95 345.523333,229.616667 350.55,222.87 C353.18,219.33 357.95,222.83 356.13,225.63 C350.623333,234.07 346.58,242.616667 344,251.27 C342.72,255.56 344.91,259.36 348.09,262.84 C360.47,276.36 364.44,293 364.25,310.98 C364.196667,316.16 363.976667,321.343333 363.59,326.53 Z M222.06,178.38 C225.87,173.82 231.17,166.89 230.3,161.64 C230.264437,161.430445 230.113303,161.259086 229.909833,161.197622 C229.706363,161.136157 229.485634,161.195181 229.34,161.35 C225.553333,165.376667 221.723333,169.433333 217.85,173.52 C215.46,176.03 218.88,178.65 221.14,178.77 C221.491426,178.794827 221.833481,178.649825 222.06,178.38 L222.06,178.38 Z M69.9,346.29 C69.66,348.056667 69.0133333,348.223333 67.96,346.79 C64.7066667,342.37 62.2233333,337.633333 60.51,332.58 C60.07,331.27 59.22,330.12 58.56,328.98 C58.4520186,328.803756 58.2339198,328.729274 58.0406906,328.802652 C57.8474615,328.87603 57.7337772,329.076506 57.77,329.28 C59.9633333,340.36 62.41,351.406667 65.11,362.42 C69.29,379.43 84.01,394.05 95.52,406.34 C95.6276648,406.459602 95.6353583,406.641482 95.5381309,406.768625 C95.4409035,406.895769 95.2677203,406.930299 95.13,406.85 C66.94,391.61 58.39,364.38 52.28,334.98 C52.2590136,334.879041 52.1823561,334.798852 52.0824444,334.773343 C51.9825327,334.747833 51.8768161,334.781459 51.81,334.86 C51.5966667,335.113333 51.4933333,335.49 51.499697,335.99 C51.7066667,355.436667 55.8966667,373.763333 64.07,390.97 C67.61,398.403333 70.8266667,404.23 73.72,408.45 C86.02,426.34 105.36,433.69 126.16,437.39 C137.18,439.35 145.75,438.58 155.24,433.64 C159.89,431.22 163.62,431.91 167.52,435.38 C170.686667,438.2 174.33,440.26 178.45,441.56 C178.756667,441.653333 178.97,441.553333 179.09,441.26 C179.543333,440.166667 179.23,439.353333 178.15,438.82 C175.01,437.27 161.96,428.97 165.8,424.84 C166.248187,424.361524 166.872466,424.087354 167.526672,424.081681 C168.180877,424.076009 168.807563,424.339333 169.26,424.81 C172.81,428.51 177.27,433.58 182.45,435.21 C182.598005,435.256049 182.758439,435.237485 182.890467,435.159034 C183.022495,435.080582 183.113384,434.94981 183.14,434.8 C183.51,432.84 184.66,432.36 186.61,432.45 C195.19,432.83 203.726667,433.033333 212.22,433.06 C212.337986,433.060064 212.452058,433.091175 212.55,433.15 C213.123333,433.536667 213.09,433.876667 212.45,434.17 C203.39,438.236667 194.046667,438.866667 184.42,436.06 C183.9,435.913333 183.8,436.06 184.12,436.5 C185.293333,438.14 186.896667,439.026667 188.93,439.16 C194.283333,439.506667 199.64,439.853333 205,440.2 C207.67,440.37 207.23,443.44 206.52,445.03 C206.36,445.39 206.083333,445.583333 205.69,445.61 C202.07,445.86 198.23,446.97 194.66,446.04 C192.446667,445.466667 190.04,445.076667 187.44,444.87 C187.16723,444.845217 186.917793,445.024911 186.854921,445.291491 C186.792048,445.55807 186.934903,445.830286 187.19,445.93 C195.31,449.22 204.55,449.58 212.2,452.06 C212.437743,452.139722 212.595463,452.365449 212.588564,452.616107 C212.581665,452.866765 212.411768,453.083476 212.17,453.15 C201.36,455.95 190.63,452.84 179.8,451.51 C179.672922,451.494072 179.545521,451.536997 179.453992,451.626578 C179.362462,451.71616 179.316808,451.842609 179.33,451.97 C179.503333,453.516667 180.316667,454.44 181.77,454.74 C217.97,462.33 247.68,446.48 271.95,420.94 C276.89,415.74 275.73,411.73 272.56,405.52 C265.473333,391.7 259.02,377.586667 253.2,363.18 C252.366667,361.133333 251.71,359.006667 251.23,356.8 C251.152164,356.477027 250.960428,356.192974 250.69,356 C247.78,353.96 245.9,355.48 244.32,358.19 C240.39,364.93 234.32,374.53 226.33,376.67 C225.756667,376.823333 225.603333,376.633333 225.87,376.1 C230.556667,366.626667 236.203333,357.98 242.81,350.16 C244.476667,348.2 245.48,346.593333 245.82,345.34 C246.44,343.08 245.943333,341.09 244.33,339.37 C243.523333,338.503333 242.853333,338.596667 242.32,339.65 C240.286667,343.69 238.596667,347.463333 237.25,350.97 C236.57,352.736667 233.973333,356.15 229.46,361.21 C227.1,363.856667 224.326667,365.64 221.14,366.56 C220.907037,366.634236 220.652677,366.551625 220.507792,366.354671 C220.362906,366.157716 220.359771,365.890296 220.5,365.69 C227.74,354.91 235.83,342.39 239.03,330.21 C239.843333,327.116667 239.366667,326.903333 237.6,329.57 C233.78,335.33 229.02,342.54 222.53,345.86 C222.32626,345.968784 222.076901,345.931244 221.912729,345.767072 C221.748557,345.6029 221.707057,345.349581 221.81,345.14 C225.24,338.38 228.8,331.83 232.86,325.56 C235.34,321.73 237.63,318.46 236.66,313.62 C234.733333,303.966667 232.673333,294.43 230.48,285.01 C230.429837,284.802808 230.266388,284.642066 230.058386,284.595372 C229.850384,284.548678 229.633911,284.62413 229.5,284.79 C226.11,289.06 224.35,294.67 219.74,297.78 C219.556311,297.906338 219.318935,297.924328 219.118305,297.827115 C218.917675,297.729902 218.784685,297.532457 218.77,297.31 C217.99,286.49 228.24,280.3 227.47,269.7 C227.460677,269.555225 227.360521,269.432314 227.22061,269.393951 C227.0807,269.355589 226.93186,269.410227 226.85,269.53 C222.65,275.62 220.06,282.4 214.44,287.17 C214.266233,287.313021 214.02441,287.342462 213.823182,287.245093 C213.621954,287.147725 213.499172,286.941863 213.51,286.72 C213.9,278.25 220.7,267.57 226.13,261.3 C226.416667,260.966667 226.39,260.663333 226.05,260.39 L224.44,259.11 C224.263765,258.968186 224.034645,258.909866 223.812055,258.950162 C223.589466,258.990458 223.395333,259.125402 223.28,259.32 C220.75,263.55 216.93,269.82 212.36,271.81 C212.086972,271.931033 211.76938,271.883676 211.541795,271.687995 C211.31421,271.492314 211.216474,271.182567 211.29,270.89 C212.296667,266.956667 213.963333,263.5 216.29,260.52 C218.73,257.4 223.01,252.23 223.1,248.16 C223.34,236.44 221.46,224.77 220.21,213.15 C220.17,212.77 219.983333,212.493333 219.65,212.32 L217.74,211.33 C217.572614,211.241516 217.368479,211.262108 217.222137,211.382239 C217.075795,211.502371 217.015825,211.698582 217.07,211.88 C218.92,217.82 215.1,219.15 211.9,222.75 C211.805487,222.86123 211.793078,223.022351 211.869566,223.145194 C211.946053,223.268037 212.093002,223.322998 212.23,223.28 L215.87,222.22 C216.203333,222.12 216.503333,222.18 216.77,222.4 C218.476667,223.833333 218.623333,225.353333 217.21,226.96 C215.643333,228.74 211.956667,231.73 206.15,235.93 C204.23,237.32 202.03,238.31 199.93,239.28 C199.717666,239.379998 199.467552,239.349668 199.283534,239.201607 C199.099515,239.053546 199.013031,238.81305 199.06,238.58 C200.38,232.19 206.87,228.73 211.24,224.08 C211.32,224 211.346667,223.903333 211.32,223.79 C211.293333,223.703333 211.27,223.61 211.25,223.51 C211.176667,223.143333 210.99,223.073333 210.69,223.3 C206.95,226.193333 202.72,227.806667 198,228.14 C197.825555,228.151221 197.667149,228.04403 197.61151,227.877114 C197.555871,227.710198 197.616418,227.523811 197.76,227.42 C199.42,226.3 202.64,225.64 201.26,222.73 C200.433333,220.996667 199.85,219.546667 199.51,218.38 C199.412972,218.062236 199.524401,217.716008 199.79,217.51 C203.54,214.58 207.89,211.78 205.38,206.29 C205.093398,205.665832 204.368,205.375673 203.73,205.63 L200.61,206.87 C200.441112,206.932776 200.251061,206.888762 200.126965,206.758134 C200.002868,206.627505 199.968651,206.435448 200.04,206.27 C201.76,202.48 205.19,195.41 210.52,200.7 C210.739648,200.920108 211.029252,201.057846 211.34,201.09 C214.97,201.42 214.57,196.65 213.05,194.72 C211.736667,193.053333 210.436667,191.36 209.15,189.64 C207.77,187.79 206.28,187.61 204.49,188.95 C199.103333,192.99 195.25,198.083333 192.93,204.23 C185.8,223.08 178.47,240.66 173.91,258.88 C165.923333,290.82 160.216667,324.693333 156.79,360.5 C155.123333,377.966667 154.426667,396.546667 154.7,416.24 C154.8,423.48 154.07,428.11 149.81,433.31 C149.67871,433.473818 149.459068,433.538176 149.260129,433.471118 C149.06119,433.40406 148.925328,433.219869 148.92,433.01 C148.753333,429.29 148.553333,425.51 148.32,421.67 C148.1,417.96 150.33,410.62 144.25,410.32 C134.21,409.826667 125.8,405.943333 119.02,398.67 C118.348742,397.945761 118.208292,396.878338 118.67,396.01 C119.416667,394.603333 120.62,394.323333 122.28,395.17 C129.28,398.78 136.29,401.54 143.49,405.79 C144.403333,406.33 145.503333,406.426667 146.79,406.08 C147.103765,405.990202 147.369393,405.782006 147.53,405.5 C148.98,402.9 147.43,401.06 144.68,400.75 C141.04,400.32 125.39,396.8 125.11,392.28 C124.95,389.86 126.9,389.18 128.95,390 C134.603333,392.28 140.333333,394.493333 146.14,396.64 C146.599975,396.809267 147.113055,396.749471 147.521778,396.478964 C147.930501,396.208457 148.186051,395.759546 148.21,395.27 L148.44,390.78 C148.507974,389.481743 147.513018,388.370784 146.21,388.29 C141.336667,387.983333 136.483333,387.303333 131.65,386.25 C129.05,385.683333 127.813333,384.083333 127.94,381.45 C127.96,381.076667 127.783333,380.893333 127.41,380.9 C121.67,381 118.54,376.32 113.55,374.67 C113.221454,374.557228 112.858757,374.662725 112.640381,374.934581 C112.422006,375.206436 112.393942,375.587396 112.57,375.89 L115.66,381.08 C115.885637,381.456567 115.863354,381.931742 115.603466,382.285539 C115.343577,382.639337 114.896811,382.802701 114.47,382.7 C109.236667,381.473333 106.073333,378.18 104.98,372.82 C103.76,366.81 98.96,361.15 95.62,356.05 C94.86,354.896667 94.6166667,353.486667 94.89,351.82 C94.9566667,351.413333 95.1966667,351.216667 95.61,351.23 L98.92,351.36 C99.2330915,351.37222 99.520518,351.536463 99.69,351.8 C103.72,357.94 110.81,372.73 120.44,366.35 C125.4,363.07 129.86,368.17 129.92,372.79 C129.95,374.83 128.55,377.06 127.9,379.19 C127.811706,379.478883 127.849668,379.791483 128.004351,380.049287 C128.159034,380.307092 128.415741,380.485608 128.71,380.54 L145.85,383.89 C146.523866,384.021615 147.221641,383.853239 147.761326,383.42879 C148.301011,383.00434 148.629093,382.365903 148.66,381.68 C150.2,345.24 155.34,309.35 164.08,274.01 C165.1,269.89 163.93,267.24 161.04,263.93 C158.54,261.07 148.94,248.71 152.88,245.01 C153.68,244.256667 154.726667,244.146667 156.02,244.68 C156.316694,244.802368 156.558626,245.030069 156.7,245.32 C159.42,251.02 161.68,256.31 165.9,258.89 C166.080597,259.000069 166.302121,259.019914 166.501065,258.943847 C166.70001,258.867779 166.854409,258.704199 166.92,258.5 L169.16,251.43 C169.293333,251.023333 169.163333,250.73 168.77,250.55 C161.696667,247.37 156.66,241.993333 153.66,234.42 C153.253333,233.38 153.16,232.446667 153.38,231.62 C153.462636,231.321524 153.670543,231.073494 153.95,230.94 C155.316667,230.313333 156.396667,230.45 157.19,231.35 C161.336667,236.07 165.37,242.046667 169.29,249.28 C169.523333,249.72 169.72,249.703333 169.88,249.23 C171.4,244.71 172.89,240.183333 174.35,235.65 C175.73,231.35 172.98,228.89 169.72,226.27 C167.63,224.6 161.2,213.59 163.9,210.57 C164.84,209.523333 165.94,209.193333 167.2,209.58 C167.853362,209.772211 168.365694,210.28831 168.56,210.95 C170.14,216.396667 172.78,221.263333 176.48,225.55 C177.04,226.196667 177.5,226.13 177.86,225.35 C179.61,221.57 183,215.59 182.57,211.26 C182.522518,210.803881 182.173703,210.436998 181.72056,210.366561 C181.267418,210.296125 180.823695,210.539815 180.64,210.96 L179.14,214.49 C178.983231,214.854502 178.646771,215.110074 178.253575,215.163319 C177.860378,215.216565 177.468064,215.059681 177.22,214.75 C173.88,210.57 169.67,203.8 170.15,198.5 C170.56,194.04 174.31,190.3 177.51,187.38 C177.714976,187.195431 177.9977,187.123252 178.264368,187.187413 C178.531035,187.251573 178.746772,187.443682 178.84,187.7 C180.606667,192.466667 183.003333,196.893333 186.03,200.98 C186.164694,201.186772 186.438551,201.250422 186.650629,201.124249 C186.862708,200.998076 186.937444,200.727035 186.82,200.51 C184.58,195.643333 184.023333,190.526667 185.15,185.16 C185.69,182.54 184.41,180.82 181.69,181.62 C163.98,186.79 150.71,200 136.19,210.97 C133.96,212.65 133.68,214.38 133.24,216.93 C133.145624,217.472419 132.795854,217.936217 132.30028,218.176074 C131.804707,218.415932 131.223959,218.402505 130.74,218.14 L128.23,216.79 C127.694228,216.498681 127.037825,216.54628 126.549686,216.911846 C126.061548,217.277412 125.831191,217.893907 125.96,218.49 C126.8,222.4 125.91,225.54 123.75,229.22 C119.39,236.66 116.49,244.546667 115.05,252.88 C114.992968,253.197908 114.73634,253.442102 114.415994,253.483289 C114.095648,253.524476 113.785596,253.353141 113.65,253.06 C110.823333,246.753333 111.2,241.13 114.78,236.19 C115.72,234.89 116.1,233.47 115.67,232.05 C115.487995,231.44961 114.998525,230.992583 114.387081,230.852117 C113.775638,230.71165 113.135784,230.909237 112.71,231.37 C110.26,234.03 107.98,235.55 108.79,239.76 C109.443333,243.173333 109.633333,246.903333 109.36,250.95 C109.233333,252.73 108.343333,253.29 106.69,252.63 C106.29,252.47 105.853333,251.916667 105.38,250.97 C104.21,248.61 104.79,245.74 103.47,243.12 C103.366383,242.900434 103.12001,242.787037 102.885835,242.851127 C102.651659,242.915217 102.497368,243.13827 102.52,243.38 C102.93,249.21 104.49,255.98 102.68,261.53 C102.566667,261.89 102.333333,261.996667 101.98,261.85 C99.15,260.67 98.4,256.19 98.02,253.44 C98.0172385,253.224609 97.840391,253.052239 97.625,253.055 C97.409609,253.057761 97.2372386,253.234609 97.24,253.45 C96.8333333,257.016667 97.0866667,260.626667 98,264.28 C99.2,269.11 93.9,269.46 92.03,272.54 C91.7213835,273.047713 91.1488122,273.3345 90.5589778,273.276799 C89.9691434,273.219098 89.4674299,272.827218 89.27,272.27 L87.24,266.65 C87.0734833,266.185781 86.5986823,265.907191 86.1122115,265.988269 C85.6257408,266.069348 85.2669581,266.486868 85.26,266.98 C85.2,270.53 87.31,276.41 86.05,279.62 C85.8966667,280.026667 85.6533333,280.086667 85.32,279.8 C83.58,278.28 82.99,275.8 79.92,276.3 C79.6,276.346667 79.3266667,276.486667 79.1,276.72 C70.42,285.4 73.1,294.59 76.27,305.1 C77.34,308.65 77.58,311.59 77.02,314.95 C76.9736933,315.23105 76.7497961,315.449211 76.4676385,315.488208 C76.185481,315.527205 75.9108033,315.377954 75.79,315.12 L68.16,299.07 C68.0921645,298.914349 67.9247953,298.827255 67.7583948,298.861017 C67.5919943,298.89478 67.4718056,299.040218 67.47,299.21 C67.37,300.79 68.14,302.55 68.19,303.98 C68.5166667,313.353333 69.7466667,322.396667 71.88,331.11 C72.0145303,331.674943 71.7610559,332.261027 71.2572596,332.549901 C70.7534633,332.838775 70.1196108,332.761479 69.7,332.36 L66.53,329.29 C66.4059751,329.173095 66.2214956,329.147619 66.0704287,329.226535 C65.9193618,329.30545 65.8348922,329.471422 65.86,329.64 C66.46,333.486667 67.4666667,337.28 68.88,341.02 C69.7266667,343.26 70.0666667,345.016667 69.9,346.29 Z M269.34,209.85 L269.02,208.08 C269.000537,207.969715 268.937835,207.87177 268.845826,207.807927 C268.753817,207.744084 268.640121,207.719631 268.53,207.74 L268.42,207.76 C262.61607,208.835668 257.064956,209.947182 252.99053,210.849484 C248.916103,211.751785 246.652938,212.370781 246.7,212.57 L246.9,213.65 C246.905064,213.857515 249.229717,213.626978 253.359078,213.009451 C257.488439,212.391924 263.08169,211.438374 268.9,210.36 L269.01,210.34 C269.235693,210.294699 269.382867,210.076168 269.34,209.85 Z M284.09,215.86 C279.34,215.78 274.84,216.4 270.08,216.77 C259.96,217.56 250.42,219.86 240.61,221.74 C238.863333,222.073333 237.746667,222.81 237.26,223.95 C236.526667,225.683333 236.683333,226.996667 237.73,227.89 C238.423333,228.476667 239.486667,228.653333 240.92,228.42 C256.226667,225.933333 271.303333,223.636667 286.15,221.53 C287.856667,221.283333 288.403333,220.353333 287.79,218.74 C287.07,216.853333 285.836667,215.893333 284.09,215.86 Z M244.73,233.62 C239.1,234.47 241.98,240.97 246.75,240.21 C262.756667,237.643333 278.75,235.04 294.73,232.4 C298.61,231.76 298.59,225.28 293.43,226.09 C277.19,228.656667 260.956667,231.166667 244.73,233.62 Z M259.88,244.16 C256.28,244.8 252.716667,245.323333 249.19,245.73 C248.925825,245.755222 248.715627,245.962402 248.686587,246.226184 C248.657547,246.489966 248.817639,246.737912 249.07,246.82 C249.703333,247.04 250.43,247.133333 251.25,247.1 C273.26,246.32 295.17,245.39 317.05,248.58 C324.37,249.64 325.39,245.42 320.14,241.18 C313.65,235.93 309.9,235.71 301.24,237.13 C287.433333,239.376667 273.646667,241.72 259.88,244.16 Z M339.79,263.64 C335.83,252.47 326.11,253.67 315.87,254.26 C311.856667,254.493333 307.943333,254.523333 304.13,254.35 C291.95,253.783333 279.77,253.78 267.59,254.34 C261.5,254.62 256.05,253.61 250.46,252.2 C249.153333,251.866667 248.483333,252.373333 248.45,253.72 C248.396667,256.246667 249.496667,257.53 251.75,257.57 C255.77,257.64 259.65,257.69 263.73,258.21 C287.65,261.236667 311.656667,263.22 335.75,264.16 C337.003333,264.206667 338.24,264.2 339.46,264.14 C339.786667,264.12 339.896667,263.953333 339.79,263.64 Z M352.08,298.67 C350.21,289.34 348.57,281.2 344.37,272.54 C343.37,270.5 341.9,269.78 339.75,269.82 C328.896667,270.02 318.063333,269.636667 307.25,268.67 C295.07,267.59 282.53,266.316667 269.63,264.85 C269.171442,264.800858 268.74496,265.091643 268.623194,265.536461 C268.501428,265.981279 268.720347,266.448737 269.14,266.64 C296.14,278.5 324.08,288.34 351.62,299.06 C351.737362,299.107873 351.87161,299.086489 351.96829,299.004521 C352.06497,298.922554 352.108028,298.793613 352.08,298.67 L352.08,298.67 Z M338.53,320.22 C318.29,316.97 297.2,305.45 280.14,294.45 C271.33,288.76 264.05,284.18 255.99,279.02 C255.895888,278.96759 255.777668,278.991034 255.710678,279.075392 C255.643688,279.159749 255.647634,279.280207 255.72,279.36 C271.48,295.34 285.04,305.89 306.9,323.37 C315.64,330.36 322.79,336.73 330.14,344.06 C330.359569,344.281349 330.686692,344.357029 330.981166,344.254603 C331.275641,344.152178 331.485189,343.889829 331.52,343.58 L331.84,340.59 C331.893333,340.15 332.116667,339.826667 332.51,339.62 C345.15,333 352.17,322.606667 353.57,308.44 C353.96,304.51 352.48,302.33 348.49,302.09 C338.09,301.44 328.48,298.48 318.46,293.75 C313.873333,291.583333 310.003333,289.876667 306.85,288.63 C288.99,281.556667 270.986667,274.343333 252.84,266.99 C252.551328,266.887294 252.230922,267.010857 252.085957,267.280792 C251.940992,267.550727 252.014946,267.886075 252.26,268.07 C269.5,280.136667 287.333333,291.55 305.76,302.31 C316.33,308.48 327.58,314.04 338.74,319.56 C338.896138,319.636108 338.972835,319.815213 338.920168,319.980735 C338.867502,320.146258 338.701409,320.248112 338.53,320.22 L338.53,320.22 Z M262.87,311.91 C259.32,307.93 264.31,306.01 267.04,308.73 C276.153333,317.836667 287.85,329.883333 302.13,344.87 C304.083333,346.923333 306.116667,348.53 308.23,349.69 C308.932203,350.078462 309.808264,349.942735 310.36,349.36 C312.73,346.85 315.72,345.74 318.1,349.14 C319.626667,351.333333 322.633333,355.073333 327.12,360.36 C327.326667,360.6 327.576667,360.66 327.87,360.54 C328.743333,360.186667 329.176667,359.51 329.170076,358.51 C329.170076,358.17 329.046667,357.876667 328.8,357.63 C321.15,349.89 318.9,339.84 309.64,332.95 C290.16,318.45 274.64,307.22 259.06,291.23 C257.88,290.023333 256.333333,289.363333 254.42,289.25 C254.086667,289.23 253.94,289.386667 253.98,289.72 C255.286667,299.66 257.04,307.843333 259.24,314.27 C263.813333,327.583333 267.826667,340.993333 271.28,354.5 C271.316453,354.626045 271.423129,354.720355 271.551376,354.739918 C271.679624,354.759481 271.804872,354.70055 271.87,354.59 C272.69,353.196667 273.863333,352.22 275.39,351.66 C275.716667,351.54 276.04,351.553333 276.36,351.7 C279.8,353.32 281.53,359.73 282.93,363.85 C283.96,366.87 285.45,368.92 287.75,370.8 C287.902043,370.918582 288.11358,370.924356 288.271865,370.814244 C288.430151,370.704133 288.498304,370.503792 288.44,370.32 C284.87,359.43 275.49,349.23 288.12,340.35 C288.42,340.136667 288.446667,339.896667 288.2,339.63 C279.606667,330.45 271.163333,321.21 262.87,311.91 Z M340.96,345.03 C343.07,348.65 345.11,348.55 347.48,345.37 C350.966667,340.683333 352.913333,335.45 353.32,329.67 C353.338623,329.418912 353.190303,329.185349 352.95513,329.09543 C352.719956,329.005511 352.453646,329.080539 352.3,329.28 C348.91,333.67 345.95,339.09 341.52,342.33 C340.52,343.056667 340.333333,343.956667 340.96,345.03 Z M259.46,357.81 C259.753333,358.623333 259.963333,358.603333 260.09,357.75 C260.963333,351.61 260.906667,345.496667 259.92,339.41 C259.876106,339.207644 259.697062,339.063274 259.49,339.063274 C259.282938,339.063274 259.103894,339.207644 259.06,339.41 C258.1,345.13 257.36,352.11 259.46,357.81 Z M288.83,340.88 C289.27,348.58 296.22,354.52 300.08,359.22 C300.506667,359.74 300.663333,359.666667 300.55,359 C299.283333,351.306667 295.51,345.193333 289.23,340.66 C288.943333,340.453333 288.81,340.526667 288.83,340.88 Z M277.54,389.32 C277.330122,388.547681 276.717384,387.950262 275.94,387.76 C273.76,387.226667 272.24,385.77 271.38,383.39 C270.36,380.59 269.576667,374.96 269.03,366.5 C268.956667,365.46 268.716667,364.83 268.31,364.61 C267.736667,364.303333 267.39,364.47 267.27,365.11 C264.86,377.72 270.88,389.11 278,399.03 C278.079142,399.140805 278.219737,399.189392 278.350406,399.151092 C278.481076,399.112792 278.573196,398.995996 278.58,398.86 C278.733333,395.613333 278.386667,392.433333 277.54,389.32 Z M160.19,444.63 L156,439.51 C155.639171,439.0686 155.087819,438.828027 154.518822,438.863714 C153.949825,438.8994 153.432851,439.206976 153.13,439.69 C152.176667,441.203333 152.253333,442.703333 153.36,444.19 C153.566667,444.47 153.836667,444.636667 154.17,444.69 L159.64,445.58 C159.879612,445.616008 160.116879,445.501858 160.238281,445.292163 C160.359684,445.082468 160.340536,444.819867 160.19,444.63 Z" id="Shape"></path>
            <path d="M348.53,75.18 C343.33,75.43 338.15,71.25 338.83,65.66 C338.87,65.32 339.046667,65.08 339.36,64.94 C348.08,61 349.81,67.38 349.53,74.19 C349.509269,74.7281759 349.073409,75.1596774 348.53,75.18 L348.53,75.18 Z" id="Path"></path>
            <path d="M215.09,71.71 C212.41,71.61 210.62,70.16 207.5,70.33 C204.486667,70.4833333 201.49,70.6166667 198.51,70.73 C197.416667,70.77 196.77,70.2566667 196.57,69.19 C196.18,67.08 196.92,65.93 199.05,65.52 C204.01,64.5666667 209.016667,64.2033333 214.07,64.43 C217,64.56 217.87,65.28 217.68,68.27 C217.56,70.09 217.42,71.79 215.09,71.71 Z" id="Path"></path>
            <path d="M170.5,79.55 C169.54,79.92 168.69,80.72 167.63,81.13 C167.203333,81.2966667 167.023333,81.1566667 167.09,80.71 C167.71,76.43 169.41,71.82 174.16,71.16 C174.717968,71.0834793 175.282384,71.2433866 175.71583,71.6007895 C176.149276,71.9581924 176.411986,72.4803016 176.44,73.04 C176.62,76.28 173.57,78.36 170.5,79.55 Z" id="Path"></path>
            <path d="M218.24,81.85 C213.98,82.1 209.66,81.27 205.35,81.41 C205.10547,81.4176081 204.874249,81.2987872 204.738074,81.0955407 C204.601898,80.8922942 204.579955,80.6332572 204.68,80.41 C207.05,75.08 215.07,75.04 219.28,76.97 C221.88,78.16 221.4,81.67 218.24,81.85 Z" id="Path"></path>
            <path d="M113.73,93.62 C110.176667,101.82 107.116667,110.226667 104.55,118.84 C104.492627,119.023736 104.322485,119.148851 104.13,119.148851 C103.937515,119.148851 103.767373,119.023736 103.71,118.84 C100.9,109.52 105.01,91.43 112.96,85.18 C113.428998,84.8107657 114.026274,84.6450862 114.617061,84.7203456 C115.207847,84.795605 115.742363,85.1054619 116.1,85.58 C116.52,86.1266667 116.523333,86.9133333 116.11,87.94 C115.343333,89.84 114.55,91.7333333 113.73,93.62 Z" id="Path"></path>
            <ellipse id="Oval" transform="translate(183.090000, 92.670000) rotate(-34.400000) translate(-183.090000, -92.670000) " cx="183.09" cy="92.67" rx="5.99" ry="2.68"></ellipse>
            <path d="M350.96,120.54 L341.89,93.54 C341.518598,92.4344656 342.070182,91.230612 343.15,90.79 C344.67,90.16 346.22,90.43 347.26,91.85 C351.94,98.27 353.78,107.27 355.57,114.89 C356.06,117 356.86,121.59 353.76,122.18 C352.551327,122.408435 351.357596,121.709249 350.96,120.54 L350.96,120.54 Z" id="Path"></path>
            <path d="M120.65,120.02 C118.01,111.64 123.19,95.2 132.07,91.11 C133.002901,90.6721024 134.114527,90.87677 134.84,91.62 C136.86,93.72 133.41,96.8 132.2,98.49 C127.81,104.58 124.57,112.95 121.85,120.05 C121.751221,120.303611 121.503296,120.469236 121.232575,120.462668 C120.961854,120.4557 120.727923,120.278029 120.65,120.02 L120.65,120.02 Z" id="Path"></path>
            <path d="M341.25,123.29 C337.88,115.51 333.96,107.54 330.94,99.5 C330.28,97.76 329.16,96.2 330.64,94.52 C331.562515,93.4568843 333.171929,93.3365127 334.25,94.25 C337.89,97.36 349.25,121.34 344.46,124.3 C343.908157,124.638424 343.236989,124.721497 342.620858,124.527636 C342.004728,124.333776 341.504453,123.882118 341.25,123.29 L341.25,123.29 Z" id="Path"></path>
            <path d="M144.81,113.34 C144.744695,113.087983 144.526644,112.905187 144.267097,112.884874 C144.00755,112.864562 143.763716,113.011211 143.66,113.25 L140.9,119.4 C140.273333,120.8 139.316667,121.08 138.03,120.24 C136.09,118.96 134.46,117.37 133.14,115.47 C133.05244,115.342968 132.905905,115.26965 132.75174,115.275735 C132.597575,115.281821 132.457275,115.366461 132.38,115.5 L128.67,121.99 C128.533977,122.239096 128.250148,122.368855 127.97277,122.308756 C127.695391,122.248657 127.490723,122.013057 127.47,121.73 C126.85,115.043333 128.106667,109.063333 131.24,103.79 C136.41,95.06 146.36,91.68 152.99,101.59 C159.23,110.91 164.75,119.83 161.01,130.53 C160.941856,130.728334 160.779489,130.879758 160.576889,130.933918 C160.374289,130.988078 160.158021,130.937874 160,130.8 C154.01,125.48 147.07,121.63 144.81,113.34 Z" id="Path"></path>
            <path d="M328.74,120.77 C325.59,113.57 322.37,106.02 320.02,98.66 C319.760621,97.841728 320.035102,96.9466792 320.71,96.41 C324.3,93.57 327.07,99.57 328.48,103 C329.94,106.56 334.95,117.45 333.27,121.78 C333.143706,122.094482 332.87712,122.331447 332.55,122.42 C330.71,122.913333 329.44,122.363333 328.74,120.77 Z" id="Path"></path>
            <path d="M314.48,103.8 C320.85,109.47 323.27,122.51 322.38,130.99 C322.346667,131.276667 322.296667,131.446667 322.23,131.5 C322.113366,131.594191 321.960031,131.629805 321.813823,131.596665 C321.667614,131.563524 321.544621,131.465275 321.48,131.33 C317.493333,123.196667 313.5,115.096667 309.5,107.03 C307.8,103.6 311.89,101.51 314.48,103.8 Z" id="Path"></path>
            <path d="M308.1,132.38 C304.13,123.48 300.95,115.32 300.81,105.48 C300.803501,105.267883 300.931611,105.074771 301.129566,104.998288 C301.327521,104.921805 301.552192,104.978616 301.69,105.14 C308.143333,112.533333 311.506667,121.236667 311.78,131.25 C311.82,132.643333 311.28,133.41 310.16,133.55 C309.29137,133.652397 308.456963,133.178486 308.1,132.38 Z" id="Path"></path>
            <path d="M296.03,113.69 C299.53,118.41 303.03,127.71 303.09,132.5 C303.11,133.88 302.506667,134.616667 301.28,134.71 C299.51,134.84 298.45,133.37 297.83,131.9 C295.73,126.94 293.686667,121.95 291.7,116.93 C290.1,112.89 293.97,110.91 296.03,113.69 Z" id="Path"></path>
            <path d="M286.1,116.19 C286.313665,116.242032 286.504573,116.369304 286.64,116.55 C290.006667,121.01 292.16,126.116667 293.1,131.87 C293.79,136.09 289.42,136.13 288.01,132.98 C286.196667,128.92 284.486667,124.81 282.88,120.65 C281.84,117.96 282.56,115.32 286.1,116.19 Z" id="Path"></path>
            <path d="M282.19,142.93 C277.87,138.82 276.13,134.73 274,129.66 C273.33,128.07 273.45,126.82 275.04,125.96 C276.070311,125.391069 277.357223,125.611089 278.14,126.49 C282.133333,130.936667 284.053333,136.18 283.9,142.22 C283.892871,142.621616 283.648432,142.980834 283.277458,143.134864 C282.906485,143.288894 282.479498,143.208455 282.19,142.93 Z" id="Path"></path>
            <path d="M124.07,137.26 L116.08,152.4 C115.953537,152.640534 115.685299,152.768351 115.417468,152.7157 C115.149636,152.663049 114.944178,152.442113 114.91,152.17 C114.176667,145.41 115.783333,139.593333 119.73,134.72 C120.583333,133.666667 121.64,133.41 122.9,133.95 C123.512022,134.216484 123.985948,134.724795 124.207948,135.352847 C124.429948,135.980899 124.379964,136.671942 124.07,137.26 L124.07,137.26 Z" id="Path"></path>
            <ellipse id="Oval" transform="translate(265.230000, 144.020000) rotate(71.800000) translate(-265.230000, -144.020000) " cx="265.23" cy="144.02" rx="9.53" ry="3.27"></ellipse>
            <path d="M86.16,163.45 C85.98,153.97 88,146.1 93.15,138.15 C95.08,135.19 99.6,136.27 98.14,139.63 C94.68,147.583333 91,155.593333 87.1,163.66 C87.0040901,163.867274 86.7783215,163.978318 86.5544828,163.928311 C86.330644,163.878305 86.1673828,163.68035 86.16,163.45 Z" id="Path"></path>
            <path d="M406.25,183.32 C402.24,171.19 394.07,161.82 392,148.77 C391.861305,147.885553 392.42826,147.043843 393.3,146.84 C394.94,146.45 395.81,147.02 396.56,148.52 C398.6,152.586667 401.643333,157.91 405.69,164.49 C408.996667,169.87 409.936667,175.85 408.51,182.43 C408.39,182.99 407.92,183.56 407.46,183.81 C407.239437,183.927833 406.977772,183.941345 406.744647,183.846939 C406.511522,183.752533 406.330588,183.559787 406.25,183.32 L406.25,183.32 Z" id="Path"></path>
            <path d="M379.79,158.14 C378.58,155.21 377.09,152.93 375.29,150.4 C375.10704,150.143354 375.087527,149.807745 375.24,149.54 C376.44,147.43 379.33,146.81 380.82,149.08 C385.38,156.04 387.97,163.743333 388.59,172.19 C388.756667,174.416667 388.083333,174.686667 386.57,173 C383.5,169.57 381.57,162.46 379.79,158.14 Z" id="Path"></path>
            <path d="M364.51,156.71 C363.55,154.6 362.55,153.29 362.85,150.77 C362.895651,150.427006 363.161562,150.157004 363.5,150.11 C365.31,149.85 367.23,150.2 368.35,151.86 C372.49,157.966667 373.966667,164.9 372.78,172.66 C372.744672,172.909049 372.547619,173.103984 372.298202,173.136618 C372.048786,173.169252 371.808214,173.031577 371.71,172.8 C369.396667,167.513333 366.996667,162.15 364.51,156.71 Z" id="Path"></path>
            <path d="M343.72,170.65 C342.866667,165.123333 341.1,159.87 338.42,154.89 C338.15547,154.39451 338.137444,153.803891 338.371316,153.294875 C338.605188,152.785859 339.06383,152.417491 339.61,152.3 C346.27,150.86 348.95,169.61 349.000081,173.85 C349.007633,174.619697 348.4726,175.288488 347.72,175.45 C343.94,176.27 344.11,173.22 343.72,170.65 Z" id="Path"></path>
            <path d="M325.58,155.69 C332.19,162.34 334.78,170.75 334.37,180.09 C334.369875,180.247223 334.264928,180.385069 334.113408,180.427028 C333.961887,180.468988 333.800982,180.404763 333.72,180.27 C332.7,178.67 331.5,177.1 330.73,175.35 C327.91,168.94 325.54,162.28 320.65,157.3 C320.185842,156.832234 320.019971,156.145341 320.219514,155.517304 C320.419058,154.889267 320.950975,154.424079 321.6,154.31 C323,154.06 324.52,154.62 325.58,155.69 Z" id="Path"></path>
            <path d="M352.81,156.19 C356.76,159.53 358.74,169.41 358.42,174.8 C358.389762,175.322867 358.073968,175.785005 357.6,176 C356.246667,176.613333 355.36,176.283333 354.94,175.01 C353.22,169.843333 351.563333,164.66 349.97,159.46 C349.73,158.68 349.683333,157.936667 349.83,157.23 C349.955822,156.593268 350.409495,156.070818 351.022293,155.856955 C351.635092,155.643093 352.315322,155.769818 352.81,156.19 L352.81,156.19 Z" id="Path"></path>
            <path d="M309.39,161.22 C308.81,160.68 308.356667,160.19 308.03,159.75 C307.618482,159.17504 307.562302,158.418469 307.884388,157.789034 C308.206473,157.1596 308.85295,156.762583 309.56,156.76 C318,156.77 320.69,171.28 319.88,177.1 C319.839535,177.392704 319.618707,177.626457 319.32766,177.684666 C319.036613,177.742876 318.737695,177.613073 318.58,177.36 C317.933333,176.293333 317.31,175.263333 316.71,174.27 C314.17,170.06 313.12,164.69 309.39,161.22 Z" id="Path"></path>
            <path d="M374.01,244.17 C374.184308,244.404805 374.474066,244.524114 374.76317,244.48012 C375.052275,244.436126 375.293427,244.236026 375.39,243.96 L388.78,204.4 C388.807601,204.314199 388.891685,204.259596 388.981294,204.269284 C389.070902,204.278971 389.141374,204.350283 389.15,204.44 C390.13,217.41 386.07,230.18 380.56,241.8 C376.586667,250.166667 372.543333,258.5 368.43,266.8 C368.15,267.36 367.983333,267.326667 367.93,266.7 C367.25,258.486667 367.666667,250.31 369.18,242.17 C369.299341,241.548504 369.773786,241.05575 370.39032,240.912973 C371.006854,240.770197 371.649609,241.004232 372.03,241.51 L374.01,244.17 Z" id="Path"></path>
            <path d="M397.59,219.52 C396.58,234.36 390.73,251.75 379.8,262.28 C379.486667,262.58 379.203333,262.766667 378.95,262.84 C378.791622,262.88312 378.622513,262.832313 378.514123,262.709047 C378.405734,262.585781 378.376976,262.411561 378.44,262.26 C385.206667,246.32 390.996667,230.03 395.81,213.39 C395.996667,212.743333 396.226667,212.726667 396.5,213.34 C397.38,215.293333 397.743333,217.353333 397.59,219.52 Z" id="Path"></path>
            <path d="M162.67,220.2 C164.11,225.47 167.05,230.23 168.59,235.59 C168.682861,235.909463 168.590579,236.25552 168.35,236.49 C166.956667,237.883333 165.593333,237.9 164.26,236.54 C161.82,234.06 152.78,220.03 160.15,218.62 C161.271135,218.403543 162.370388,219.092757 162.67,220.2 Z" id="Path"></path>
            <path d="M366.94,227.52 L355.66,260.49 C355.347171,261.411433 354.357718,261.919412 353.42,261.64 C351.44,261.04 351.02,259.54 351.3,257.56 C352.873333,246.193333 356.553333,235.566667 362.34,225.68 C362.43898,225.515003 362.568125,225.372264 362.72,225.26 C363.366667,224.786667 364.173333,224.6 365.14,224.7 C365.787842,224.772278 366.368343,225.133282 366.718269,225.681499 C367.068196,226.229717 367.14975,226.905934 366.94,227.52 L366.94,227.52 Z" id="Path"></path>
            <path d="M205.44,249.54 C205.255998,249.625508 205.038811,249.593811 204.886923,249.459281 C204.735034,249.324751 204.677339,249.112982 204.74,248.92 C206.47,243.66 210.13,239.8 214.82,234.5 C218.04,230.85 220.47,235.27 218.57,238.33 C215.563333,243.17 211.186667,246.906667 205.44,249.54 Z" id="Path"></path>
            <path d="M397.13,240.88 C397.33,238.813333 397.736667,236.963333 398.35,235.33 C398.752247,234.229452 399.972066,233.661991 401.08,234.06 C402.58,234.606667 403.24,235.723333 403.06,237.41 C401.32,253.85 390.77,272.27 379.31,285.02 C377.923333,286.566667 377.296667,286.303333 377.43,284.23 C377.536667,282.616667 378.283333,280.65 379.67,278.33 C386.416667,267.043333 390.94,258.603333 393.24,253.01 C395.593333,247.29 396.89,243.246667 397.13,240.88 Z" id="Path"></path>
            <path d="M25.48,239 C25.7266667,237.186667 26.55,236.066667 27.95,235.64 C28.3523706,235.514823 28.7892549,235.593238 29.12,235.85 C30.0533333,236.576667 30.5133333,237.793333 30.5,239.5 C30.4333333,246.406667 30.3266667,253.026667 30.18,259.36 C30.1654146,260.120659 29.6010282,260.755436 28.8466364,260.859662 C28.0922446,260.963887 27.3698592,260.506887 27.14,259.78 C25.06,253.093333 24.5066667,246.166667 25.48,239 Z" id="Path"></path>
            <path d="M41.54,238.61 C42.22,244.723333 42.0666667,250.7 41.08,256.54 C41.0390716,256.793583 40.8412641,256.992984 40.5880175,257.035945 C40.3347709,257.078907 40.0822689,256.955898 39.96,256.73 C36.7866667,250.856667 35.67,244.563333 36.61,237.85 C36.7042579,237.168079 37.10818,236.567916 37.7044336,236.223848 C38.3006872,235.87978 39.0224273,235.830381 39.66,236.09 C40.7733333,236.543333 41.4,237.383333 41.54,238.61 Z" id="Path"></path>
            <path d="M205.77,263.2 C207.02,254.1 211.6,248.36 217.85,242.35 C218.75,241.483333 219.76,241.276667 220.88,241.73 C221.421027,241.946987 221.835071,242.396865 222.007613,242.955203 C222.180155,243.513541 222.092907,244.12116 221.77,244.61 C218.43,249.663333 214.816667,254.683333 210.93,259.67 C209.583333,261.39 208.19,262.763333 206.75,263.79 C206.54841,263.937781 206.277795,263.950057 206.063654,263.821135 C205.849512,263.692213 205.733729,263.44731 205.77,263.2 L205.77,263.2 Z" id="Path"></path>
            <path d="M404.08,253.75 C406.97,267.61 395.85,287.88 388.1,298.62 C385.066667,302.84 381.586667,306.49 377.66,309.57 C377.500695,309.701696 377.270229,309.701418 377.111243,309.569337 C376.952257,309.437256 376.909737,309.210746 377.01,309.03 C383.18,297.27 390.11,285.73 395.65,273.86 C399.21,266.23 401.08,260.38 403.42,253.71 C403.465879,253.559642 403.608853,253.46034 403.765767,253.46985 C403.922681,253.47936 404.052616,253.595202 404.08,253.75 Z" id="Path"></path>
            <path d="M150.42,257.06 L160.31,275.97 C160.413189,276.172655 160.389724,276.415124 160.25,276.59 C159.343333,277.723333 158.393333,277.9 157.4,277.12 C152.973333,273.633333 149.59,269.34 147.25,264.24 C146.1,261.73 144.21,255.85 148.18,255.74 C149.115753,255.715024 149.984994,256.227255 150.42,257.06 L150.42,257.06 Z" id="Path"></path>
            <path d="M144.53,271.46 C145.19996,271.311865 145.889376,271.610209 146.24,272.2 C149.146667,277.093333 152.14,282.1 155.22,287.22 C156.633333,289.566667 157.506667,292.413333 157.84,295.76 C157.893333,296.246667 157.706667,296.373333 157.28,296.14 C151.02,292.64 145.2,282.66 142.63,276.41 C141.76,274.3 142.1,272.01 144.53,271.46 Z" id="Path"></path>
            <path d="M389.65,316.93 C385.923333,320.53 381.5,325.046667 376.38,330.48 C375.866667,331.026667 375.43,331.343333 375.07,331.43 C374.463333,331.583333 373.883333,331.393333 373.33,330.86 C372.659921,330.206283 372.595039,329.150871 373.18,328.42 C385.61,312.93 399.39,297.08 404.9,278.17 C406.006667,274.383333 406.846667,274.443333 407.42,278.35 C407.96,281.99 407.623333,285.54 406.41,289 C406.003333,290.166667 405.73,291.17 405.59,292.01 C405.55661,292.157806 405.631467,292.308769 405.769333,292.371655 C405.907199,292.434541 406.070271,292.392108 406.16,292.27 C408.033333,290.043333 409.266667,287.52 409.86,284.7 C410.073333,283.706667 410.5,282.85 411.14,282.13 C411.346667,281.903333 411.603333,281.79 411.91,281.79 C417.08,281.8 413.9,290.55 412.52,293.29 C404.56,309.14 392.79,323.03 380.82,336.13 C380.695053,336.272473 380.491139,336.311407 380.321147,336.225246 C380.151155,336.139086 380.05667,335.948909 380.09,335.76 C381.48,328.7 386.24,323.22 390.5,317.68 C393.626667,313.613333 393.343333,313.363333 389.65,316.93 Z" id="Path"></path>
            <path d="M87.37,304.58 C87.4966667,305.2 87.5266667,305.783333 87.46,306.33 C87.4449421,306.469388 87.349091,306.585811 87.2141104,306.628662 C87.0791299,306.671513 86.9293984,306.633053 86.83,306.53 C81.65,301.036667 78.7066667,294.523333 78,286.99 C77.82,285.17 78.04,281.99 80.49,281.94 C81.74,281.92 82.5,282.48 82.79,283.74 C84.4233333,290.666667 85.95,297.613333 87.37,304.58 Z" id="Path"></path>
            <path d="M140.33,290.44 C143.73,295.78 146.89,301.44 150.14,306.89 C151.14,308.563333 151.026667,310.1 149.8,311.5 C149.545494,311.791847 149.158032,311.928598 148.78,311.86 C147.886667,311.686667 147.06,311.136667 146.3,310.21 C143.71,307.03 132.06,293.68 137.11,289.86 C137.607604,289.485332 138.238604,289.334874 138.850253,289.445047 C139.461902,289.55522 139.998445,289.915981 140.33,290.44 Z" id="Path"></path>
            <path d="M149.8,332.39 C141.44,328.15 135.78,319.17 134.91,310.04 C134.69,307.66 135.86,305.77 138.26,305.52 C138.895528,305.452178 139.528971,305.665369 139.994164,306.10365 C140.459357,306.541932 140.709875,307.161562 140.68,307.8 C140.42,313.13 142.19,316.49 145.32,321.55 C147.26,324.676667 149.05,328.006667 150.69,331.54 C150.807121,331.792436 150.750394,332.091425 150.549306,332.283626 C150.34806,332.475828 150.046788,332.518597 149.8,332.39 L149.8,332.39 Z" id="Path"></path>
            <path d="M111.61,334.12 C106.25,330.886667 103.7,326.093333 103.96,319.74 C104.013333,318.513333 104.443333,318.36 105.25,319.28 C108.916667,323.433333 111.253333,328.23 112.26,333.67 C112.294345,333.838598 112.224881,334.011437 112.083414,334.109376 C111.941957,334.207314 111.755718,334.211494 111.61,334.12 L111.61,334.12 Z" id="Path"></path>
            <path d="M143.26,335.85 C144.63,337.6 146.72,339.7 144.91,341.76 C144.45912,342.27103 143.819824,342.576753 143.138991,342.606928 C142.458158,342.637104 141.794322,342.389137 141.3,341.92 C137.46,338.27 126,325.07 129.64,319.6 C130.077007,318.946256 130.832758,318.578418 131.615249,318.63861 C132.397741,318.698801 133.084431,319.177596 133.41,319.89 C135.923333,325.343333 139.206667,330.663333 143.26,335.85 Z" id="Path"></path>
            <path d="M93.72,336.14 C93.7933333,335.866667 93.9466667,335.806667 94.18,335.96 C98.86,339.06 102.04,346.42 103.7,351.6 C103.82,351.98 103.683333,352.193333 103.29,352.24 C101.336667,352.493333 99.9333333,351.893333 99.08,350.44 C96.16,345.47 92.02,342.47 93.72,336.14 Z" id="Path"></path>
            <path d="M133.17,354.04 C134.856667,356.68 135.976667,359.43 136.53,362.29 C136.568192,362.47273 136.486919,362.65967 136.327242,362.756376 C136.167564,362.853082 135.964244,362.838501 135.82,362.72 C128.533333,356.933333 122.956667,349.836667 119.09,341.43 C118.636667,340.45 118.603333,339.386667 118.99,338.24 C119.65,336.29 122.03,335.73 123.17,337.67 C126.39,343.196667 129.723333,348.653333 133.17,354.04 Z" id="Path"></path>
            <path d="M94.21,376.63 C93.86,370.73 87.44,366.53 86.14,361 C85.6733333,359 85.6166667,356.803333 85.97,354.41 C85.9972512,354.224213 86.1419048,354.077594 86.3273073,354.047838 C86.5127097,354.018082 86.6959796,354.112071 86.78,354.28 C89.3733333,359.433333 92.8133333,364.06 97.1,368.16 C99.65,370.6 102.1,375.09 102.8,378.99 C103.133333,380.85 103.686667,382.113333 104.46,382.78 C106.2,384.27 109.77,387.34 108.99,389.87 C108.837914,390.363759 108.470731,390.762234 107.992148,390.952889 C107.513565,391.143544 106.975533,391.105683 106.53,390.85 C97.49,385.69 86.98,378.6 80.41,370.46 C76.48,365.58 74.26,360.84 75.97,355.14 C76.0362476,354.924147 76.2276894,354.77071 76.4527887,354.753056 C76.6778879,354.735401 76.8909101,354.857114 76.99,355.06 C81.0233333,363.5 86.5633333,370.79 93.61,376.93 C93.7181625,377.025894 93.8729151,377.045744 94.0034621,376.980471 C94.1340092,376.915197 94.2152426,376.777354 94.21,376.63 L94.21,376.63 Z" id="Path"></path>
            <path d="M179.69,378.36 C174.1,375.33 169.33,372.17 169.39,364.89 C169.387086,364.689612 169.506494,364.507648 169.691487,364.430568 C169.876479,364.353488 170.089765,364.39683 170.23,364.54 L181.55,375.76 C182.045375,376.252028 182.113012,377.029852 181.71,377.6 C181.076667,378.5 180.403333,378.753333 179.69,378.36 Z" id="Path"></path>
            <path d="M228.67,389.42 C234.85,382.666667 239.89,375.323333 243.79,367.39 C244.091681,366.777305 244.700432,366.375017 245.382352,366.337709 C246.064272,366.3004 246.713277,366.633874 247.08,367.21 L248.06,368.75 C248.246667,369.043333 248.296667,369.356667 248.21,369.69 C245.17,381.17 237.68,387.66 230.76,396.11 C229.2,398.02 225.91,398.66 225.24,395.58 C224.75,393.33 226.81,391.46 228.67,389.42 Z" id="Path"></path>
            <path d="M74.47,376.82 C73.15,374.34 72.12,372.51 72.26,370.34 C72.3053615,369.633232 72.7502381,369.014386 73.4057306,368.74623 C74.0612231,368.478074 74.812282,368.607674 75.34,369.08 C80.01,373.24 83.15,379.12 86.46,382.95 C89.88,386.883333 93.5266667,390.593333 97.4,394.08 C100.75,397.1 97.06,400.83 94.04,398.76 C85.7,393.026667 79.1766667,385.713333 74.47,376.82 Z" id="Path"></path>
            <path d="M132.63,374.61 C135.09,371.46 144.12,375.88 146.58,377.59 C146.701637,377.674366 146.769879,377.816535 146.759624,377.96421 C146.749368,378.111885 146.66213,378.243257 146.53,378.31 C142.35,380.436667 138.2,380.3 134.08,377.9 C132.86,377.18 131.42,376.16 132.63,374.61 Z" id="Path"></path>
            <path d="M181.95,388.77 C174.91,389.12 168.64,384.47 167.15,377.45 C167.123188,377.316183 167.181516,377.179668 167.296747,377.106541 C167.411978,377.033414 167.560335,377.038763 167.67,377.12 L182.16,388.1 C182.289207,388.193221 182.34423,388.358686 182.296578,388.510719 C182.248926,388.662751 182.109301,388.767207 181.95,388.77 L181.95,388.77 Z" id="Path"></path>
            <path d="M253.03,382.45 C254.29,381.983333 255.423333,382.213333 256.43,383.14 C256.688664,383.37998 256.821644,383.723511 256.79,384.07 C255.88,394.92 242.71,408.26 231.71,408.69 C231.520456,408.700461 231.344733,408.590851 231.270767,408.416022 C231.1968,408.241192 231.240501,408.038749 231.38,407.91 C239.406667,400.55 246.346667,392.286667 252.2,383.12 C252.401457,382.814324 252.691686,382.580042 253.03,382.45 Z" id="Path"></path>
            <path d="M169.2,391.88 C169.793333,391.153333 170.44,391.1 171.14,391.72 C173.9,394.14 178.64,397.07 179.33,400.87 C179.576667,402.216667 179.013333,402.893333 177.64,402.90007 C173.63,402.92 171.35,398.66 169.14,395.95 C168.053333,394.623333 168.073333,393.266667 169.2,391.88 Z" id="Path"></path>
            <path d="M228.35,427.27 C227.71,426.51 227.47,425.816667 227.63,425.19 C227.736667,424.79 228.173333,424.333333 228.94,423.82 C241.83,415.25 251.34,408.46 261.17,397.74 C261.376667,397.513333 261.626667,397.36 261.92,397.28 C263.893333,396.773333 265.09,397.433333 265.51,399.26 C265.91,401.03 264.59,402.58 263.16,404.4 C254.11,415.93 242.18,421.99 229.38,427.51 C229.016134,427.663573 228.598345,427.566224 228.35,427.27 L228.35,427.27 Z" id="Path"></path>
            <path d="M137.78,420.15 L145.78,423.3 C146.082753,423.4169 146.283212,423.707065 146.285438,424.031596 C146.287627,424.356126 146.091134,424.648992 145.79,424.77 C136.14,428.76 123.4,423.17 117.96,415.52 C116.153333,412.973333 114.47,411.066667 112.91,409.8 C110.72,408.02 109.5,406.45 111.9,404.13 C114.65,401.46 116.69,404.76 118.5,406.34 C119.366667,407.1 120.34,407.666667 121.42,408.04 C128.32,410.413333 135.263333,412.63 142.25,414.69 C143.203333,414.97 143.643333,415.826667 143.57,417.26 C143.39,420.52 139.75,418.84 137.82,419.36 C137.645333,419.401781 137.520466,419.55283 137.511323,419.733401 C137.502181,419.913971 137.610867,420.082495 137.78,420.15 L137.78,420.15 Z" id="Path"></path>
            <path d="M170.89,404.97 C174.32,405.59 178.57,409.01 180.09,411.55 C180.89,412.89 180.51,413.52 178.95,413.44 C174.49,413.213333 171.24,411.156667 169.2,407.27 C168.913432,406.735403 168.960114,406.084396 169.320151,405.594404 C169.680189,405.104411 170.290111,404.861816 170.89,404.97 Z" id="Path"></path>
            <path d="M256.99,416.48 C259.05,415.38 260.66,412.62 261.97,410.02 C263.15,407.68 265.91,406.76 266.97,409.65 C269.58,416.74 259.87,424.46 254.32,426.37 C251.65,427.29 248.38,426.5 245.93,428.13 C238.64,432.99 230.31,438.37 221.15,437.43 C220.967838,437.415122 220.818356,437.283324 220.779652,437.103465 C220.740948,436.923605 220.821814,436.736539 220.98,436.64 C232.826667,429.693333 244.83,422.973333 256.99,416.48 Z" id="Path"></path>
            <path d="M138.24,432.43 C124.83,436.83 107.94,431.2 97.38,422.86 C92.81,419.25 90.44,415.55 88.64,410.19 C88.5733453,410.008407 88.6407209,409.806862 88.80359,409.700643 C88.9664592,409.594424 89.1832643,409.610633 89.33,409.74 C100.38,419.87 114.71,423.21 128.72,427.33 C132.093333,428.323333 135.3,429.596667 138.34,431.15 C138.586147,431.280689 138.731322,431.544939 138.709616,431.822782 C138.687909,432.100625 138.503457,432.339124 138.24,432.43 Z" id="Path"></path>
            <path d="M207.62,421.56 C210.84,421.066667 212.886667,420.866667 213.76,420.96 C214.926667,421.086667 215.49,421.806667 215.45,423.12 C215.416667,424.093333 214.93,424.703333 213.99,424.95 C208.73,426.323333 203.406667,427.313333 198.02,427.92 C186.45,429.22 178.03,430.29 171.94,420.02 C171.73513,419.673873 171.677458,419.262958 171.78,418.88 C172.31,416.9 173.39,416.49 175.19,417.51 C185.36,423.25 196.37,423.29 207.62,421.56 Z" id="Path"></path>
        </g>
    </g>
</svg>