<?xml version="1.0" encoding="UTF-8"?>
<svg width="337px" height="298px" viewBox="0 0 337 298" version="1.1" xmlns="http://www.w3.org/2000/svg" xmlns:xlink="http://www.w3.org/1999/xlink">
    <title>orange-2</title>
    <g id="Page-1" stroke="none" stroke-width="1" fill="none" fill-rule="evenodd">
        <g id="orange-2" fill="#E59247" fill-rule="nonzero">
            <path d="M11.67,214.67 C28.9,207.39 47.67,200.9 66.55,193.08 C84.0233333,185.846667 100.303333,176.63 115.39,165.43 C124.01,159.03 129.39,155.09 131.53,153.61 C143.26,145.49 155.98,137.02 166.35,128.56 C193.1,106.71 215,80.19 233.04,50.8 C238.326667,42.1933333 243.016667,33.2666667 247.11,24.02 C256.22,3.47 278.81,-7.68 298,9.22 C315.19,24.35 325.62,45.15 330.65,67.89 C343.3,125.18 335.52,183.85 297.18,229.83 C274.49,257.05 247.24,277 213.26,287.49 C197.96,292.21 181.863333,295.353333 164.97,296.92 C158.563333,297.513333 151.906667,297.63 145,297.27 C114.28,295.67 82.54,290.74 53.5,280.12 C48.06,278.133333 43.8533333,276.666667 40.88,275.72 C27.03,271.31 17,268.83 8.65,255.65 C0.61,242.96 -6.95,222.54 11.67,214.67 Z M43.86,239.84 C45.68,235.593333 48.22,231.8 51.48,228.46 C56.2066667,223.606667 60.8266667,218.63 65.34,213.53 C65.7666667,213.036667 65.6633333,212.87 65.03,213.03 C62.7366667,213.603333 60.7066667,214.823333 58.94,216.69 C54.0933333,221.81 48.3833333,227.496667 41.81,233.75 C40.49,235.01 39.04,235.37 37.66,234.07 C37.3924985,233.822228 37.3016872,233.435293 37.43,233.09 L38.48,230.2 C38.5938894,229.894193 38.4813655,229.550259 38.2087469,229.370905 C37.9361282,229.19155 37.575746,229.224361 37.34,229.45 C35.0133333,231.596667 32.3033333,232.94 29.21,233.48 C28.8512718,233.5455 28.4884729,233.388063 28.2912808,233.081319 C28.0940887,232.774576 28.1014808,232.379159 28.31,232.08 C32.79,225.51 40.34,220.47 46.39,215.24 C46.6191982,215.08536 46.6796397,214.774198 46.525,214.545 C46.3703603,214.315802 46.0591982,214.25536 45.83,214.41 C40.2033333,217.343333 35.07,220.426667 30.43,223.66 C26.65,226.3 23.55,228.06 19.76,229.71 C19.5272972,229.812206 19.2557843,229.762039 19.0749677,229.583428 C18.8941511,229.404816 18.8406566,229.133939 18.94,228.9 C20.84,224.32 25.03,221.61 28.6,218.68 C29.84,217.666667 29.6666667,217.256667 28.08,217.45 C25.09,217.81 21.16,219.57 19,221.87 C5.15,236.62 30.68,252.05 40.75,258.74 C45.68,262.01 48.62,264.85 50.49,270.03 C50.5920318,270.307922 50.8537903,270.495058 51.1497757,270.501684 C51.4457612,270.508311 51.7156324,270.333078 51.83,270.06 C53.54,265.92 54.52,261.14 59.94,261.2 C60.4139715,261.202918 60.8537862,261.447153 61.1068123,261.847947 C61.3598385,262.24874 61.391195,262.75084 61.19,263.18 L59.18,267.48 C58.96,267.953333 59.1033333,268.25 59.61,268.37 C61.4966667,268.79 63.4,269.126667 65.32,269.38 C70.36,270.03 69.39,274.32 69.2,277.76 C69.1493565,278.450831 69.6080121,279.076134 70.2821522,279.23534 C70.9562923,279.394547 71.6462336,279.040499 71.91,278.4 C72.83,276.27 73.2,273.18 76.41,273.79 C77.2238739,273.941708 77.8080736,274.657141 77.79,275.48 L77.71,280.56 C77.7045606,280.876908 77.9284851,281.151532 78.24,281.21 L79.72,281.49 C80.0213593,281.545708 80.3319784,281.468241 80.5703522,281.277926 C80.808726,281.087612 80.9510577,280.803449 80.96,280.5 C81.03,278.15 81.05,272.99 85.26,274.65 C85.5866667,274.783333 85.82,275.01 85.96,275.33 C87.31,278.45 83.95,281.77 87.31,283.62 C91.37,285.86 94.8166667,285.796667 97.65,283.43 C102.13,279.68 100.34,272.95 103.95,268.97 C104.150954,268.750107 104.422695,268.605414 104.72,268.56 C107.45,268.14 108.3,269.88 107.81,272.32 C107.21,275.266667 106.713333,278.24 106.32,281.24 C105.833333,284.953333 107.4,287.05 111.02,287.53 C115.726667,288.156667 120.446667,288.736667 125.18,289.27 C129.22,289.73 133.2,289.52 133.82,284.87 C133.899987,284.279086 134.392306,283.830659 134.988101,283.80604 C135.583895,283.78142 136.111533,284.1877 136.24,284.77 C137.11,288.72 138.1,291.38 142.89,290.14 C143.398137,290.008042 143.812386,289.64079 144.004289,289.15213 C144.196193,288.663469 144.142551,288.112471 143.86,287.67 C142.786667,285.996667 142.62,284.186667 143.36,282.24 C143.95,280.69 145.5,279.98 146.87,281 C149.47,282.95 146.88,287.6 150.93,289.93 C151.696667,290.37 152.946667,290.606667 154.68,290.64 C177,291.05 200.36,285.58 221.17,277.9 C237.04,272.04 250.85,263.56 263.89,252.88 C292.63,229.33 315.08,199.8 324.43,163.62 C327.37,152.26 328.99,138.79 329.91,126.75 C332.83,88.17 323.98,50.77 298.17,21.06 C293.703333,15.9133333 288.06,12.2233333 281.24,9.99 C273.39,7.42 267.89,9.43 262.19,15.43 C253.57,24.49 248.37,36.61 242.88,47.66 C242.486667,48.4533333 242.66,48.6033333 243.4,48.11 C252.32,42.1366667 261.05,36.23 269.59,30.39 C273.52,27.7 277.06,24.47 280.71,21.39 C282.01,20.29 283.056667,19.6066667 283.85,19.34 C286.47,18.47 289.11,19.93 288.74,22.95 C288.37,26.03 286.7,26.84 283.68,27.89 C281.013333,28.8233333 278.403333,30.2366667 275.85,32.13 C264.29,40.7033333 250.916667,50.08 235.73,60.26 C233.58,61.7 231.36,63.74 230.28,65.74 C221.65,81.67 209.9,94.57 197.54,107.63 C194.62,110.71 193.31,113.48 191.91,117.27 C190.59,120.876667 189.546667,123.206667 188.78,124.26 C185.92,128.19 182.94,130.35 177.87,131.18 C174.536667,131.726667 171.84,132.76 169.78,134.28 C156.586667,144.033333 143.346667,153.723333 130.06,163.35 C124.033333,167.723333 118.54,171.496667 113.58,174.67 C101.513333,182.41 89.2033333,189.746667 76.65,196.68 C70.6966667,199.966667 67.22,204.836667 66.22,211.29 C66.1865295,211.52198 66.3123882,211.74768 66.527333,211.841134 C66.7422778,211.934588 66.9931766,211.872696 67.14,211.69 C70.71,207.06 76.69,199.2 82.04,196.97 C82.6836325,196.69911 83.422986,196.793071 83.9784007,197.216342 C84.5338154,197.639614 84.8204938,198.327573 84.73,199.02 C84.6033333,200.013333 84.15,200.956667 83.37,201.85 C71.73,215.25 58.6,230.17 44.38,240.26 C44.2526362,240.345261 44.084614,240.337737 43.9653807,240.241433 C43.8461474,240.14513 43.8034425,239.982451 43.86,239.84 Z" id="Shape"></path>
            <path d="M259.13,52.49 C264.4,48.74 268.8,45.11 273.51,41.23 C275.12,39.91 278.67,38.4 281.16,37.79 C286.133333,36.5833333 291.223333,35.3833333 296.43,34.19 C297.34251,33.9847662 298.278764,34.420042 298.71,35.25 L301.36,40.38 C301.842963,41.3066998 301.495406,42.4474005 300.58,42.94 C298.186667,44.2466667 295.916667,45.55 293.77,46.85 C289.53,49.42 287.33,45.65 285.43,42.62 C285.2647,42.3475703 284.98561,42.1639588 284.67,42.12 C283.11,41.9066667 281.746667,42.2266667 280.58,43.08 C266.446667,53.4333333 252.223333,64.8333333 237.91,77.28 C234.12,80.58 230.5,82.93 226.35,85.36 C225.97413,85.584185 225.490231,85.4942569 225.22,85.15 L224.56,84.31 C224.266667,83.93 224.27,83.5533333 224.57,83.18 C233.87,71.42 246.95,61.15 259.13,52.49 Z" id="Path"></path>
            <path d="M225.86,95.7 C254.21,79.17 285.27,65.49 317.3,58.13 C317.435632,58.1026085 317.570934,58.1783982 317.618422,58.3083649 C317.66591,58.4383316 317.611342,58.5834971 317.49,58.65 C309.5,62.69 301.51,66.83 293.2,70.25 C270.98,79.3766667 248.573333,87.9466667 225.98,95.96 C225.908203,95.9931371 225.823137,95.961797 225.79,95.89 C225.756863,95.818203 225.788203,95.7331371 225.86,95.7 L225.86,95.7 Z" id="Path"></path>
            <path d="M314.91,73.91 C315.584658,74.0123809 316.145361,74.4835516 316.362413,75.1304933 C316.579465,75.7774349 316.416393,76.491436 315.94,76.98 C313.33,79.64 306.19,79.59 302.99,78.91 C302.49,78.81 302.41,78.57 302.75,78.19 C305.996667,74.5966667 310.05,73.17 314.91,73.91 Z" id="Path"></path>
            <path d="M218.26,110 C214.27,109.26 211.82,108.3 207.82,109.81 C207.473333,109.936667 207.406667,109.85 207.62,109.55 C213.566667,100.916667 221.6,98.3 231.72,101.7 C233.986667,102.466667 236.26,102.533333 238.54,101.9 C262.89,95.17 288.8,91.2 314.02,86.39 C316.49,85.92 317.74,88.44 316.73,90.07 C316.363333,90.6566667 315.623333,91.07 314.51,91.31 C291.89,96.1766667 269.18,100.536667 246.38,104.39 C239.35,105.58 231.99,106.32 224.75,107.22 C223.51,107.373333 222.113333,108.09 220.56,109.37 C220.16,109.696667 220.216667,109.89 220.73,109.95 C223.02,110.22 226.84,109.04 227.23,112.5 C227.87,118.12 220.86,117.2 217.47,116.97 C217.13,116.95 216.846667,116.813333 216.62,116.56 C213.94,113.59 216.7,112.38 218.44,110.55 C218.72,110.263333 218.66,110.08 218.26,110 Z" id="Path"></path>
            <path d="M289.09,104.4 C277.44,107.1 265.74,109.35 253.98,111.41 C251.913333,111.77 250.806667,111.07 250.66,109.31 C250.58477,108.366231 251.172107,107.499804 252.07,107.23 C266.656667,102.87 281.533333,100.123333 296.7,98.99 C297.238099,98.9475513 297.754237,99.2091061 298.039802,99.6689497 C298.325367,100.128793 298.333148,100.710902 298.06,101.18 C296.1,104.54 291.83,103.76 289.09,104.4 Z" id="Path"></path>
            <path d="M319.03,111.09 C311.98,114.24 302.39,116.46 295.24,117.41 C282.586667,119.083333 270.496667,120.173333 258.97,120.68 C256.67,120.78 256.57,120.353333 258.67,119.4 C277.45,110.91 299.8,109.27 318.9,110.39 C319.064789,110.405286 319.199386,110.528145 319.229604,110.690859 C319.259823,110.853574 319.178313,111.016566 319.03,111.09 L319.03,111.09 Z" id="Path"></path>
            <path d="M235.31,122.78 C229.55,128.02 220.16,127.52 213.14,125.93 C212.946309,125.88495 212.801932,125.722876 212.779479,125.525287 C212.757025,125.327697 212.861355,125.137361 213.04,125.05 C220.046667,121.763333 227.386667,120.726667 235.06,121.94 C235.242725,121.972244 235.391563,122.104932 235.444491,122.28277 C235.497419,122.460609 235.445357,122.653089 235.31,122.78 L235.31,122.78 Z" id="Path"></path>
            <path d="M256.14,130.95 C272.05,125.96 291.2,124.95 307.21,126.06 C310.176667,126.266667 310.203333,126.68 307.29,127.3 C290.463333,130.873333 273.436667,132.283333 256.21,131.53 C256.063436,131.532204 255.941233,131.425115 255.923602,131.279023 C255.90597,131.132931 255.998304,130.992541 256.14,130.95 L256.14,130.95 Z" id="Path"></path>
            <path d="M234.61,133.32 C231.87,133.253333 229.246667,133.73 226.74,134.75 C222.05,136.67 218.54,136.92 213.81,136.41 C210.78,136.08 210.99,131.95 213.43,130.74 C216.25,129.333333 218.356667,128.6 219.75,128.54 C225.663333,128.293333 231.583333,128.136667 237.51,128.07 C239.076667,128.05 240.13,128.75 240.67,130.17 C241.13419,131.410373 240.519199,132.791876 239.29,133.27 C237.78,133.86 235.9,133.36 234.61,133.32 Z" id="Path"></path>
            <path d="M224.41,146.89 C218.31,148.13 203.72,140.36 198.61,137.02 C198.111076,136.693053 197.801603,136.144531 197.779746,135.548426 C197.757889,134.952321 198.02636,134.382608 198.5,134.02 C202.6,130.89 220.61,142.87 224.62,145.99 C225.2,146.443333 225.13,146.743333 224.41,146.89 Z" id="Path"></path>
            <path d="M299.98,138.66 C285.94,143.38 271.13,143.66 256.51,141.67 C256.401376,141.655624 256.317975,141.566616 256.310686,141.457288 C256.303397,141.347959 256.374245,141.248668 256.48,141.22 C271.12,137.2 285.28,137.4 300.34,137.65 C300.451136,137.654231 300.553342,137.712667 300.611807,137.805405 C300.670272,137.898143 300.677113,138.012677 300.63,138.11 C300.51,138.37 300.293333,138.553333 299.98,138.66 Z" id="Path"></path>
            <path d="M206.18,154.66 C204.686667,154.266667 204.553333,154.54 205.78,155.48 C209.866667,158.633333 212.946667,162.583333 215.02,167.33 C215.124549,167.569963 215.067137,167.849733 214.876531,168.029127 C214.685925,168.20852 214.403192,168.248887 214.17,168.13 C204.076667,162.81 195.576667,155.62 188.67,146.56 C188.450487,146.275996 188.33727,145.925733 188.35,145.57 C188.443333,142.483333 189.973333,140.616667 192.94,139.97 C193.331172,139.880376 193.741029,139.948685 194.08,140.16 L221.99,157.23 C223.33,158.05 223.236667,158.643333 221.71,159.01 C216.29,160.29 211.12,155.98 206.18,154.66 Z" id="Path"></path>
            <path d="M196.38,169.65 C196.242899,169.647171 196.113462,169.713071 196.035093,169.8256 C195.956724,169.93813 195.939801,170.082389 195.99,170.21 C204.55,191.67 213.23,213.096667 222.03,234.49 C222.196667,234.896667 222.213333,235.206667 222.08,235.42 C221.733657,235.95099 221.149721,236.279259 220.516075,236.299185 C219.882429,236.319111 219.279021,236.02818 218.9,235.52 C213.62,228.413333 209.43,220.743333 206.33,212.51 C203.356667,204.61 201.856667,200.636667 201.83,200.59 C198.24,191.82 194.22,182.75 191.76,173.6 C190.26,168.01 189.6,164.04 185.29,159.27 C182.423333,156.083333 179.673333,152.8 177.04,149.42 C174.87,146.63 173.73,143.4 177.97,141.85 C178.878145,141.520141 179.88826,141.887839 180.36,142.72 C181.42,144.58 182.42,146.11 184.08,147.61 C191.24,154.116667 197.92,161.36 204.12,169.34 C204.340519,169.613736 204.360629,169.999849 204.17,170.3 C202.78,172.49 198.56,169.69 196.38,169.65 Z" id="Path"></path>
            <path d="M260.08,162.5 C257.89,159.34 254.83,157.06 250.91,154.31 C247.183333,151.683333 243.776667,148.683333 240.69,145.31 C240.343333,144.923333 240.14,144.533333 240.08,144.14 C240.062462,144.009435 240.113799,143.879102 240.215667,143.79557 C240.317536,143.712038 240.4554,143.687226 240.58,143.73 C261.62,151.04 280.54,161.67 294.78,179.16 C294.895335,179.297021 294.908385,179.493047 294.81223,179.644147 C294.716076,179.795246 294.532972,179.866448 294.36,179.82 C287.793333,178.24 281.24,176.293333 274.7,173.98 C268.82,171.9 263.946667,168.073333 260.08,162.5 Z" id="Path"></path>
            <path d="M168.2,200.23 L171.88,249.74 C171.900306,249.991913 171.792374,250.237113 171.59288,250.392275 C171.393387,250.547436 171.129164,250.591691 170.89,250.51 C168.336667,249.67 166.9,247.906667 166.58,245.22 C163.33,217.88 159.48,189.24 161.96,162.25 C162.12,160.496667 161.806667,159.07 161.02,157.97 C160.792795,157.647974 160.431232,157.448745 160.04,157.43 C158.14,157.336667 156.516667,156.656667 155.17,155.39 C154.938924,155.178479 154.796066,154.885619 154.77,154.57 C154.57,152.26 155.73,151.31 157.97,151.11 C159.85,150.943333 161.566667,150.34 163.12,149.3 C163.4,149.113333 163.686667,149.1 163.98,149.26 C164.986667,149.813333 165.606667,150.663333 165.84,151.81 C171.833333,181.056667 178.02,210.263333 184.4,239.43 C185.91,246.35 186.59,253.1 187.22,259.97 C187.290191,260.719579 186.797506,261.406347 186.064959,261.580043 C185.332412,261.75374 184.58383,261.361293 184.31,260.66 C183.95,259.746667 183.583333,258.59 183.21,257.19 C178.07,238.23 174.52,218.93 169.12,200.06 C168.273333,197.12 167.966667,197.176667 168.2,200.23 Z" id="Path"></path>
            <path d="M304.91,159.99 C304.789682,160.438823 304.46942,160.807255 304.041717,160.988882 C303.614014,161.17051 303.126506,161.145103 302.72,160.92 L300.34,159.59 C300.087995,159.444655 299.918067,159.193457 299.88,158.91 C298.92,151.38 305.63,150.89 311.07,151.17 C311.687282,151.202019 312.254641,151.519111 312.603879,152.027272 C312.953117,152.535432 313.044153,153.176343 312.85,153.76 C312,156.36 308.61,156.27 306.4,156.61 C306.036082,156.664966 305.738154,156.931534 305.64,157.29 L304.91,159.99 Z" id="Path"></path>
            <path d="M240.05,169.12 C234.04,168.2 234.33,160.56 235.12,155.92 C235.166667,155.626667 235.333333,155.433333 235.62,155.34 C241,153.57 241.33,165.51 240.66,168.7 C240.586667,169.026667 240.383333,169.166667 240.05,169.12 Z" id="Path"></path>
            <path d="M201.05,248.85 C197.6,243.55 195.06,237.29 193.14,231.19 C186.206667,209.25 180.02,187.103333 174.58,164.75 C174.173333,163.056667 174.123333,161.566667 174.43,160.28 C174.72779,159.021895 175.942132,158.203629 177.22,158.4 C178.433333,158.586667 179.2,159.28 179.52,160.48 C184.38,178.6 189.453333,196.663333 194.74,214.67 C197.99,225.74 201.46,236.49 203.68,247.78 C203.804013,248.455811 203.436684,249.125877 202.800245,249.384808 C202.163807,249.643739 201.433015,249.420437 201.05,248.85 Z" id="Path"></path>
            <path d="M261.39,171.11 C268.29,177.143333 275.223333,183.16 282.19,189.16 C282.556667,189.473333 282.596667,189.823333 282.31,190.21 L281.11,191.84 C280.864954,192.17212 280.426293,192.289096 280.06,192.12 C270.39,187.63 261.29,179.61 254.75,171.27 C254.362262,170.77339 254.213068,170.13115 254.342185,169.514473 C254.471301,168.897796 254.865608,168.369352 255.42,168.07 C257.27,167.08 260.11,170 261.39,171.11 Z" id="Path"></path>
            <path d="M144.34,214.28 C143.393333,220.46 142.346667,228.206667 141.2,237.52 C140.926667,239.74 139.746667,240.826667 137.66,240.78 C137.076442,240.763968 136.52635,240.504612 136.144066,240.06527 C135.761782,239.625929 135.582499,239.047048 135.65,238.47 L142.67,176.53 C142.780212,175.547252 143.654984,174.832336 144.64,174.92 C147.68,175.186667 149.923333,176.513333 151.37,178.9 C152.15,180.193333 152.49,181.983333 152.39,184.27 C151.53,203.22 151.96,222.23 149.71,241 C149.463333,243.04 148.626667,244.68 147.2,245.92 C147.031869,246.068579 146.793639,246.109739 146.585584,246.024819 C146.37753,245.939898 146.23578,245.744163 146.22,245.52 C145.77,239.5 145.3,233.61 145.45,227.49 C145.576667,222.55 145.673333,218.186667 145.74,214.4 C145.873333,207.3 145.406667,207.26 144.34,214.28 Z" id="Path"></path>
            <path d="M260.74,193.22 C263.94,200.39 267.13,205.4 266.45,213.77 C266.434349,213.945649 266.315338,214.094986 266.147611,214.149443 C265.979885,214.2039 265.795848,214.152955 265.68,214.02 C263.58,211.54 261.95,208.703333 260.79,205.51 C259.5,201.95 257.99,200.5 254.16,199.28 C250.593333,198.14 247.666667,196.08 245.38,193.1 C243.89,191.16 246.18,187.31 248.65,189.42 C250.016667,190.586667 251.356667,191.783333 252.67,193.01 C252.883333,193.216667 253.07,193.193333 253.23,192.94 C256.003333,188.433333 255.863333,184.09 252.81,179.91 C252.256667,179.143333 252.21,178.286667 252.67,177.34 C252.895661,176.882746 253.325864,176.56041 253.82673,176.473303 C254.327596,176.386196 254.838332,176.54489 255.2,176.9 C263.64,185.09 273.07,194.51 277.98,205.17 C278.061255,205.36034 278.016847,205.581068 277.868305,205.725176 C277.719763,205.869283 277.497791,205.906984 277.31,205.82 C270.98,202.78 266.89,197.36 261.82,192.46 C260.153333,190.846667 259.793333,191.1 260.74,193.22 Z" id="Path"></path>
            <path d="M131.82,185.48 C129.426667,190.266667 127.47,195.276667 125.95,200.51 C122.623333,211.983333 118.96,223.346667 114.96,234.6 C114.54,235.766667 113.636667,236.336667 112.25,236.31 C106.57,236.21 111.08,229.24 111.75,226.95 C116.53,210.66 120.49,196.02 127.63,181.61 C128.56,179.72 130.07,179.13 132.01,179.69 C132.303333,179.77 132.466667,179.963333 132.5,180.27 L132.67,181.76 C132.688449,181.940533 132.821622,182.086684 133.000727,182.122959 C133.179832,182.159233 133.364766,182.077508 133.46,181.92 C134.55,180.07 135.88,175.63 139.1,178.01 C139.366667,178.21 139.513333,178.473333 139.54,178.8 C139.673333,180.16 139.673333,181.15 139.54,181.77 C134.146667,206.843333 128.796667,231.923333 123.49,257.01 C123.27,258.063333 122.506667,258.973333 121.2,259.74 C120.86,259.94 120.683333,259.843333 120.67,259.45 C120.616667,256.923333 120.696667,254.443333 120.91,252.01 C122.88,229.73 127.62,207.47 132.29,185.65 C132.332409,185.5215 132.264878,185.382582 132.137629,185.336555 C132.01038,185.290529 131.869607,185.354103 131.82,185.48 Z" id="Path"></path>
            <path d="M227.99,200.99 C230.463333,208.556667 234.07,216.43 238.81,224.61 C240.86,228.14 242.17,231.97 243.67,235.65 C243.744166,235.834809 243.684964,236.046392 243.525655,236.165874 C243.366347,236.285355 243.14665,236.282946 242.99,236.16 C233.71,228.98 227.85,217.5 223.38,206.92 C219.913333,198.74 216.536667,190.523333 213.25,182.27 C212.703333,180.89 213.203333,179.796667 214.75,178.99 C215.01,178.856667 215.28,178.823333 215.56,178.89 C217.38,179.31 219.116667,179.91 220.77,180.69 C222.29,181.41 223.67,182.593333 224.91,184.24 C233.063333,195.08 240.43,206.426667 247.01,218.28 C247.563333,219.286667 247.303333,219.586667 246.23,219.18 C239.2,216.5 233.25,206.45 229.2,200.4 C227.38,197.693333 226.976667,197.89 227.99,200.99 Z" id="Path"></path>
            <path d="M98.58,225.12 C91.57,231.73 87,239.97 79.41,246.11 C79.0833333,246.376667 78.7566667,246.376667 78.43,246.11 L76.67,244.67 C76.3666423,244.418258 76.3179466,243.971143 76.56,243.66 L115.25,194.11 C115.557688,193.714267 116.03632,193.487937 116.54,193.499541 C117.293333,193.52 117.746667,193.816667 117.9,194.39 C117.973333,194.67 117.926667,195.066667 117.76,195.58 C111.213333,215.42 102.506667,234.196667 91.64,251.91 C91.5205557,252.117587 91.2727573,252.214097 91.0443759,252.141976 C90.8159945,252.069856 90.668563,251.848537 90.69,251.61 C91.26,242.25 96.32,234.57 99.1,225.44 C99.3266667,224.68 99.1533333,224.573333 98.58,225.12 Z" id="Path"></path>
            <path d="M58.15,240.38 C63.81,231.22 71.35,223.71 77.67,214.91 C81.97,208.916667 86.4266667,203.04 91.04,197.28 C92.3866667,195.6 93.79,195.37 95.25,196.59 C96.0496305,197.255314 96.2297921,198.409206 95.67,199.28 C85.52,215.2 73.68,231.7 59.42,243.84 C59.1145589,244.099917 58.7008809,244.19311 58.3134934,244.089274 C57.926106,243.985439 57.6144965,243.697838 57.48,243.32 C57.2066667,242.526667 57.43,241.546667 58.15,240.38 Z" id="Path"></path>
            <rect id="Rectangle" transform="translate(95.870000, 270.390000) rotate(10.700000) translate(-95.870000, -270.390000) " x="93.17" y="259.78" width="5.4" height="21.22" rx="2.6"></rect>
            <path d="M215.77,266.61 C215.653655,265.431595 216.512058,264.380945 217.69,264.26 L220.05,264.03 C223.227889,263.712221 226.324017,263.88666 228.65706,264.514931 C230.990104,265.143203 232.368887,266.173824 232.49,267.38 L232.49,267.42 C232.735465,269.931053 227.574274,272.500458 220.96,273.16 L218.61,273.4 C218.040798,273.458592 217.47172,273.287866 217.02877,272.925624 C216.58582,272.563381 216.305544,272.039508 216.25,271.47 L215.77,266.61 Z" id="Path"></path>
            <path d="M168.25,286.98 C163.16,284.66 159.17,278.17 157.45,273.28 C156.59,270.82 155.68,267.45 157.57,265.81 C158.146664,265.304708 158.934285,265.113975 159.678231,265.299462 C160.422176,265.48495 161.028059,266.023126 161.3,266.74 L168.82,286.44 C168.887117,286.600947 168.8478,286.786624 168.721208,286.906553 C168.594616,287.026482 168.407086,287.055712 168.25,286.98 L168.25,286.98 Z" id="Path"></path>
            <path d="M181,284.57 C175.33,282.58 173.4,275.52 174.48,270.16 C174.546667,269.84 174.733333,269.616667 175.04,269.49 C176.333333,268.963333 177.506667,269.236667 178.56,270.31 C178.657567,270.407833 178.723739,270.533211 178.75,270.67 L181.68,283.96 C181.723952,284.145338 181.663053,284.339873 181.521265,284.467066 C181.379477,284.594258 181.179493,284.633749 181,284.57 L181,284.57 Z" id="Path"></path>
            <rect id="Rectangle" transform="translate(113.030000, 277.870000) rotate(7.500000) translate(-113.030000, -277.870000) " x="110.32" y="271.96" width="5.42" height="11.82" rx="2.56"></rect>
        </g>
    </g>
</svg>