<?xml version="1.0" encoding="UTF-8"?>
<svg width="1126px" height="454px" viewBox="0 0 1126 454" version="1.1" xmlns="http://www.w3.org/2000/svg" xmlns:xlink="http://www.w3.org/1999/xlink">
    <title>Group 4</title>
    <g id="Page-1" stroke="none" stroke-width="1" fill="none" fill-rule="evenodd">
        <g id="Artboard-Copy-27" transform="translate(-437.000000, -773.000000)" fill="#FDC772" fill-rule="nonzero">
            <g id="Group-4" transform="translate(437.000000, 773.500000)">
                <g id="Group" transform="translate(0.000000, 42.214802)">
                    <path d="M47.8458106,163.911695 L47.8458106,92.4853349 L68.1687805,92.4853349 L68.1687805,62.6914665 L47.8458106,62.6914665 L47.8458106,32.305667 L12.1326306,32.305667 L12.1326306,62.6914665 L0.294007438,62.6914665 L0.294007438,92.4853349 L12.1326306,92.4853349 L12.1326306,163.911695 L47.8458106,163.911695 Z M102.106167,43.9469798 C104.868512,43.9469798 107.466432,43.4208188 109.899927,42.3684967 C112.333422,41.3161746 114.470951,39.8692318 116.312515,38.0276682 C118.154078,36.1861046 119.601021,34.0485754 120.653343,31.6150806 C121.705665,29.1815859 122.231826,26.5836658 122.231826,23.8213204 C122.231826,21.0589749 121.705665,18.4610549 120.653343,16.0275601 C119.601021,13.5940653 118.154078,11.4565361 116.312515,9.61497252 C114.470951,7.77340891 112.333422,6.32646607 109.899927,5.27414401 C107.466432,4.22182195 104.868512,3.69566092 102.106167,3.69566092 C99.3438215,3.69566092 96.7459015,4.22182195 94.3124067,5.27414401 C91.8789119,6.32646607 89.7413827,7.77340891 87.8998191,9.61497252 C86.0582555,11.4565361 84.6113127,13.5940653 83.5589906,16.0275601 C82.5066685,18.4610549 81.9805075,21.0589749 81.9805075,23.8213204 C81.9805075,26.5836658 82.5066685,29.1815859 83.5589906,31.6150806 C84.6113127,34.0485754 86.0582555,36.1861046 87.8998191,38.0276682 C89.7413827,39.8692318 91.8789119,41.3161746 94.3124067,42.3684967 C96.7459015,43.4208188 99.3438215,43.9469798 102.106167,43.9469798 Z M120.061412,163.911695 L120.061412,62.6914665 L84.3482322,62.6914665 L84.3482322,163.911695 L120.061412,163.911695 Z M191.685083,167.068661 C204.707568,167.068661 215.033478,162.267442 222.662813,152.665003 L222.662813,152.665003 L222.662813,163.911695 L258.573304,163.911695 L258.573304,0.144073957 L222.662813,0.144073957 L222.662813,72.7542962 C214.375777,63.941099 203.918326,59.5345003 191.290462,59.5345003 C183.792667,59.5345003 176.919689,60.9485581 170.671526,63.7766737 C164.423364,66.6047892 159.063099,70.4523417 154.59073,75.3193313 C150.118361,80.1863208 146.665429,85.875437 144.231935,92.3866797 C141.79844,98.8979225 140.581692,105.770901 140.581692,113.005615 C140.581692,120.63495 141.86421,127.738124 144.429245,134.315137 C146.99428,140.89215 150.578752,146.614151 155.182661,151.481141 C159.78657,156.34813 165.179721,160.162798 171.362113,162.925143 C177.544505,165.687488 184.318828,167.068661 191.685083,167.068661 Z M200.76136,136.288241 C197.472854,136.288241 194.414543,135.69631 191.586427,134.512447 C188.758312,133.328585 186.324817,131.684332 184.285943,129.579688 C182.247069,127.475043 180.635701,125.008664 179.451839,122.180548 C178.267976,119.352433 177.676045,116.294122 177.676045,113.005615 C177.676045,109.848649 178.300861,106.921878 179.550494,104.225303 C180.800126,101.528728 182.444379,99.1281179 184.483253,97.0234738 C186.522127,94.9188297 188.955622,93.2745765 191.783738,92.0907141 C194.611853,90.9068518 197.604394,90.3149207 200.76136,90.3149207 C203.918326,90.3149207 206.910867,90.9068518 209.738983,92.0907141 C212.567098,93.2745765 215.000593,94.9188297 217.039467,97.0234738 C219.078341,99.1281179 220.722594,101.594498 221.972227,104.422613 C223.221859,107.250729 223.846676,110.24327 223.846676,113.400236 C223.846676,116.557202 223.221859,119.516858 221.972227,122.279203 C220.722594,125.041549 219.078341,127.475043 217.039467,129.579688 C215.000593,131.684332 212.567098,133.328585 209.738983,134.512447 C206.910867,135.69631 203.918326,136.288241 200.76136,136.288241 Z M327.040008,214.423154 L408.331887,62.6914665 L367.291327,62.6914665 L341.049045,114.584098 L314.017522,62.6914665 L272.582341,62.6914665 L321.515317,150.099968 L286.985999,214.423154 L327.040008,214.423154 Z M523.363842,163.911695 L523.363842,109.848649 C523.363842,103.140096 524.975211,97.9771407 528.197947,94.3597836 C531.420683,90.7424265 536.057477,88.933748 542.108329,88.933748 C546.580698,88.933748 550.395365,90.3149207 553.552332,93.0772661 C555.393895,94.7872894 556.709298,97.2207842 557.498539,100.37775 C558.287781,103.534717 558.682402,107.678235 558.682402,112.808305 L558.682402,112.808305 L558.682402,163.911695 L594.395582,163.911695 L594.395582,99.5885088 C594.395582,87.6183454 591.13996,78.1145618 584.628718,71.077158 C578.117475,64.0397542 568.482151,60.5210523 555.722746,60.5210523 C549.014193,60.5210523 543.160651,61.5404893 538.162121,63.5793633 C533.163592,65.6182373 528.230832,69.5973301 523.363842,75.5166417 L523.363842,75.5166417 L523.363842,0.144073957 L487.650662,0.144073957 L487.650662,163.911695 L523.363842,163.911695 Z M674.898219,167.660592 C683.711417,167.660592 691.899798,166.34519 699.463363,163.714385 C707.026927,161.083579 713.505285,157.367567 718.898436,152.566348 C724.291586,147.765128 728.53376,142.043127 731.624956,135.400344 C734.716152,128.757561 736.26175,121.424192 736.26175,113.400236 C736.26175,105.37628 734.749037,98.0429108 731.723611,91.4001278 C728.698185,84.7573448 724.456012,79.0353436 718.997091,74.2341241 C713.53817,69.4329047 707.092698,65.6840074 699.660673,62.9874321 C692.228648,60.2908568 684.171808,58.9425692 675.490151,58.9425692 C666.676953,58.9425692 658.554342,60.3237419 651.122318,63.0860873 C643.690293,65.8484327 637.277706,69.6302151 631.884555,74.4314345 C626.491405,79.2326539 622.282116,84.888885 619.25669,91.4001278 C616.231264,97.9113705 614.718552,104.915889 614.718552,112.413684 C614.718552,120.70072 616.231264,128.2314 619.25669,135.005723 C622.282116,141.780047 626.45852,147.600703 631.7859,152.467692 C637.11328,157.334682 643.460098,161.083579 650.826352,163.714385 C658.192607,166.34519 666.216562,167.660592 674.898219,167.660592 Z M675.490151,136.288241 C672.333184,136.288241 669.340644,135.69631 666.512528,134.512447 C663.684412,133.328585 661.250918,131.684332 659.212044,129.579688 C657.17317,127.475043 655.528916,125.008664 654.279284,122.180548 C653.029652,119.352433 652.404835,116.228351 652.404835,112.808305 C652.404835,109.651339 653.029652,106.691683 654.279284,103.929337 C655.528916,101.166992 657.17317,98.7334972 659.212044,96.628853 C661.250918,94.5242089 663.684412,92.8799557 666.512528,91.6960934 C669.340644,90.512231 672.333184,89.9202999 675.490151,89.9202999 C678.647117,89.9202999 681.639658,90.512231 684.467773,91.6960934 C687.295889,92.8799557 689.729384,94.5242089 691.768258,96.628853 C693.807131,98.7334972 695.451385,101.199877 696.701017,104.027993 C697.95065,106.856108 698.575466,109.848649 698.575466,113.005615 C698.575466,116.294122 697.95065,119.352433 696.701017,122.180548 C695.451385,125.008664 693.807131,127.475043 691.768258,129.579688 C689.729384,131.684332 687.295889,133.328585 684.467773,134.512447 C681.639658,135.69631 678.647117,136.288241 675.490151,136.288241 Z M792.49521,163.911695 L792.49521,113.992167 C792.49521,108.599016 792.922716,104.225303 793.777727,100.871026 C794.632739,97.5167498 795.816601,94.8859446 797.329314,92.9786109 C798.842027,91.0712771 800.584936,89.7887596 802.55804,89.1310583 C804.531143,88.4733571 806.635788,88.1445064 808.871972,88.1445064 C811.502777,88.1445064 813.804732,88.5062421 815.777836,89.2297135 C817.750939,89.953185 819.362308,91.3014726 820.61194,93.2745765 C821.861572,95.2476803 822.815239,97.9113705 823.472941,101.265647 C824.130642,104.619924 824.459493,108.862097 824.459493,113.992167 L824.459493,113.992167 L824.459493,163.911695 L860.172673,163.911695 L860.172673,113.992167 C860.172673,97.2865543 865.894674,88.933748 877.338676,88.933748 C879.44332,88.933748 881.416424,89.2625986 883.257988,89.9202999 C885.099551,90.5780012 886.71092,91.8276336 888.092092,93.6691972 C889.473265,95.5107608 890.525587,98.0757959 891.249058,101.364302 C891.97253,104.652809 892.334266,108.862097 892.334266,113.992167 L892.334266,113.992167 L892.334266,163.911695 L928.047446,163.911695 L928.047446,98.2073361 C928.047446,91.498783 927.159549,85.7767818 925.383755,81.0413325 C923.607962,76.3058832 921.207352,72.4583307 918.181926,69.4986749 C915.1565,66.5390191 911.539143,64.3686048 907.329855,62.9874321 C903.120567,61.6062594 898.648198,60.915673 893.912749,60.915673 C879.0487,60.915673 867.604697,67.2953756 859.580741,80.0547806 C851.688326,67.4269158 840.244323,61.1129834 825.248734,61.1129834 C813.14703,61.1129834 802.229189,65.7826626 792.49521,75.1220209 L792.49521,75.1220209 L792.49521,62.6914665 L756.78203,62.6914665 L756.78203,163.911695 L792.49521,163.911695 Z M1006.18236,167.660592 C1034.06889,167.660592 1051.49798,156.08505 1058.46961,132.933964 L1058.46961,132.933964 L1023.94029,132.933964 C1019.99409,139.247897 1014.14054,142.404863 1006.37967,142.404863 C991.910241,142.404863 984.675527,134.709758 984.675527,119.319548 L984.675527,119.319548 L1059.85078,119.319548 L1059.85078,115.57065 C1059.85078,106.757453 1058.60115,98.8321524 1056.10189,91.7947486 C1053.60262,84.7573448 1049.98526,78.8051481 1045.24982,73.9381586 C1040.51437,69.071169 1034.72659,65.3551567 1027.8865,62.7901217 C1021.04641,60.2250867 1013.3513,58.9425692 1004.80119,58.9425692 C996.119529,58.9425692 988.325769,60.2250867 981.419905,62.7901217 C974.514042,65.3551567 968.627615,69.0053989 963.760626,73.7408482 C958.893636,78.4762975 955.144739,84.2311837 952.513933,91.005507 C949.883128,97.7798303 948.567726,105.37628 948.567726,113.794857 C948.567726,121.950353 949.948898,129.316607 952.711244,135.89362 C955.473589,142.470633 959.386912,148.126864 964.451212,152.862313 C969.515512,157.597763 975.599249,161.248005 982.702423,163.81304 C989.805597,166.378075 997.632242,167.660592 1006.18236,167.660592 Z M1026.50533,98.6019569 L985.662078,98.6019569 C986.58286,93.3403466 988.78616,89.2625986 992.271976,86.3687129 C995.757793,83.4748273 1000.26305,82.0278844 1005.78774,82.0278844 C1011.04935,82.0278844 1015.52172,83.5405974 1019.20484,86.5660233 C1022.88797,89.5914492 1025.32147,93.6034271 1026.50533,98.6019569 L1026.50533,98.6019569 Z M1101.48328,168.055213 C1104.64024,168.055213 1107.63278,167.463282 1110.4609,166.27942 C1113.28901,165.095557 1115.75539,163.451304 1117.86004,161.34666 C1119.96468,159.242016 1121.60893,156.775636 1122.7928,153.94752 C1123.97666,151.119405 1124.56859,148.126864 1124.56859,144.969898 C1124.56859,141.812932 1123.97666,138.820391 1122.7928,135.992275 C1121.60893,133.16416 1119.96468,130.69778 1117.86004,128.593136 C1115.75539,126.488492 1113.28901,124.844238 1110.4609,123.660376 C1107.63278,122.476514 1104.64024,121.884583 1101.48328,121.884583 C1098.32631,121.884583 1095.33377,122.476514 1092.50565,123.660376 C1089.67754,124.844238 1087.21116,126.488492 1085.10651,128.593136 C1083.00187,130.69778 1081.35762,133.16416 1080.17375,135.992275 C1078.98989,138.820391 1078.39796,141.812932 1078.39796,144.969898 C1078.39796,148.126864 1078.98989,151.119405 1080.17375,153.94752 C1081.35762,156.775636 1083.00187,159.242016 1085.10651,161.34666 C1087.21116,163.451304 1089.67754,165.095557 1092.50565,166.27942 C1095.33377,167.463282 1098.32631,168.055213 1101.48328,168.055213 Z M47.8458106,358.724482 L47.8458106,287.298122 L68.1687805,287.298122 L68.1687805,257.504253 L47.8458106,257.504253 L47.8458106,227.118454 L12.1326306,227.118454 L12.1326306,257.504253 L0.294007438,257.504253 L0.294007438,287.298122 L12.1326306,287.298122 L12.1326306,358.724482 L47.8458106,358.724482 Z M102.106167,238.759767 C104.868512,238.759767 107.466432,238.233606 109.899927,237.181284 C112.333422,236.128961 114.470951,234.682019 116.312515,232.840455 C118.154078,230.998891 119.601021,228.861362 120.653343,226.427867 C121.705665,223.994373 122.231826,221.396453 122.231826,218.634107 C122.231826,215.871762 121.705665,213.273842 120.653343,210.840347 C119.601021,208.406852 118.154078,206.269323 116.312515,204.427759 C114.470951,202.586196 112.333422,201.139253 109.899927,200.086931 C107.466432,199.034609 104.868512,198.508448 102.106167,198.508448 C99.3438215,198.508448 96.7459015,199.034609 94.3124067,200.086931 C91.8789119,201.139253 89.7413827,202.586196 87.8998191,204.427759 C86.0582555,206.269323 84.6113127,208.406852 83.5589906,210.840347 C82.5066685,213.273842 81.9805075,215.871762 81.9805075,218.634107 C81.9805075,221.396453 82.5066685,223.994373 83.5589906,226.427867 C84.6113127,228.861362 86.0582555,230.998891 87.8998191,232.840455 C89.7413827,234.682019 91.8789119,236.128961 94.3124067,237.181284 C96.7459015,238.233606 99.3438215,238.759767 102.106167,238.759767 Z M120.061412,358.724482 L120.061412,257.504253 L84.3482322,257.504253 L84.3482322,358.724482 L120.061412,358.724482 Z M191.685083,361.881448 C204.707568,361.881448 215.033478,357.080228 222.662813,347.47779 L222.662813,347.47779 L222.662813,358.724482 L258.573304,358.724482 L258.573304,194.956861 L222.662813,194.956861 L222.662813,267.567083 C214.375777,258.753886 203.918326,254.347287 191.290462,254.347287 C183.792667,254.347287 176.919689,255.761345 170.671526,258.58946 C164.423364,261.417576 159.063099,265.265129 154.59073,270.132118 C150.118361,274.999108 146.665429,280.688224 144.231935,287.199467 C141.79844,293.710709 140.581692,300.583688 140.581692,307.818402 C140.581692,315.447737 141.86421,322.550911 144.429245,329.127924 C146.99428,335.704937 150.578752,341.426938 155.182661,346.293927 C159.78657,351.160917 165.179721,354.975584 171.362113,357.73793 C177.544505,360.500275 184.318828,361.881448 191.685083,361.881448 Z M200.76136,331.101028 C197.472854,331.101028 194.414543,330.509096 191.586427,329.325234 C188.758312,328.141372 186.324817,326.497119 184.285943,324.392474 C182.247069,322.28783 180.635701,319.82145 179.451839,316.993335 C178.267976,314.165219 177.676045,311.106908 177.676045,307.818402 C177.676045,304.661436 178.300861,301.734665 179.550494,299.03809 C180.800126,296.341514 182.444379,293.940905 184.483253,291.836261 C186.522127,289.731617 188.955622,288.087363 191.783738,286.903501 C194.611853,285.719639 197.604394,285.127707 200.76136,285.127707 C203.918326,285.127707 206.910867,285.719639 209.738983,286.903501 C212.567098,288.087363 215.000593,289.731617 217.039467,291.836261 C219.078341,293.940905 220.722594,296.407285 221.972227,299.2354 C223.221859,302.063516 223.846676,305.056057 223.846676,308.213023 C223.846676,311.369989 223.221859,314.329645 221.972227,317.09199 C220.722594,319.854336 219.078341,322.28783 217.039467,324.392474 C215.000593,326.497119 212.567098,328.141372 209.738983,329.325234 C206.910867,330.509096 203.918326,331.101028 200.76136,331.101028 Z M327.040008,409.235941 L408.331887,257.504253 L367.291327,257.504253 L341.049045,309.396885 L314.017522,257.504253 L272.582341,257.504253 L321.515317,344.912755 L286.985999,409.235941 L327.040008,409.235941 Z M523.363842,358.724482 L523.363842,308.804954 C523.363842,303.411803 523.791348,299.03809 524.64636,295.683813 C525.501372,292.329537 526.685234,289.698731 528.197947,287.791398 C529.71066,285.884064 531.453568,284.601546 533.426672,283.943845 C535.399776,283.286144 537.50442,282.957293 539.740605,282.957293 C542.37141,282.957293 544.673364,283.319029 546.646468,284.0425 C548.619572,284.765972 550.23094,286.114259 551.480573,288.087363 C552.730205,290.060467 553.683872,292.724157 554.341573,296.078434 C554.999274,299.432711 555.328125,303.674884 555.328125,308.804954 L555.328125,308.804954 L555.328125,358.724482 L591.041305,358.724482 L591.041305,308.804954 C591.041305,292.099341 596.763306,283.746535 608.207309,283.746535 C610.311953,283.746535 612.285057,284.075385 614.12662,284.733087 C615.968184,285.390788 617.579552,286.64042 618.960725,288.481984 C620.341898,290.323548 621.39422,292.888583 622.117691,296.177089 C622.841162,299.465596 623.202898,303.674884 623.202898,308.804954 L623.202898,308.804954 L623.202898,358.724482 L658.916078,358.724482 L658.916078,293.020123 C658.916078,286.31157 658.028181,280.589569 656.252388,275.854119 C654.476594,271.11867 652.075985,267.271118 649.050559,264.311462 C646.025133,261.351806 642.407776,259.181392 638.198488,257.800219 C633.989199,256.419046 629.516831,255.72846 624.781381,255.72846 C609.917332,255.72846 598.47333,262.108162 590.449374,274.867567 C582.556958,262.239703 571.112956,255.92577 556.117367,255.92577 C544.015663,255.92577 533.097822,260.595449 523.363842,269.934808 L523.363842,269.934808 L523.363842,257.504253 L487.650662,257.504253 L487.650662,358.724482 L523.363842,358.724482 Z M701.140501,238.759767 C703.902846,238.759767 706.500766,238.233606 708.934261,237.181284 C711.367756,236.128961 713.505285,234.682019 715.346849,232.840455 C717.188412,230.998891 718.635355,228.861362 719.687677,226.427867 C720.739999,223.994373 721.26616,221.396453 721.26616,218.634107 C721.26616,215.871762 720.739999,213.273842 719.687677,210.840347 C718.635355,208.406852 717.188412,206.269323 715.346849,204.427759 C713.505285,202.586196 711.367756,201.139253 708.934261,200.086931 C706.500766,199.034609 703.902846,198.508448 701.140501,198.508448 C698.378155,198.508448 695.780235,199.034609 693.346741,200.086931 C690.913246,201.139253 688.775717,202.586196 686.934153,204.427759 C685.092589,206.269323 683.645647,208.406852 682.593325,210.840347 C681.541002,213.273842 681.014841,215.871762 681.014841,218.634107 C681.014841,221.396453 681.541002,223.994373 682.593325,226.427867 C683.645647,228.861362 685.092589,230.998891 686.934153,232.840455 C688.775717,234.682019 690.913246,236.128961 693.346741,237.181284 C695.780235,238.233606 698.378155,238.759767 701.140501,238.759767 Z M719.095746,358.724482 L719.095746,257.504253 L683.382566,257.504253 L683.382566,358.724482 L719.095746,358.724482 Z M779.275414,358.724482 L779.275414,304.661436 C779.275414,297.952883 780.886782,292.789928 784.109518,289.17257 C787.332255,285.555213 791.969049,283.746535 798.019901,283.746535 C800.256085,283.746535 802.360729,284.075385 804.333833,284.733087 C806.306937,285.390788 808.08273,286.50888 809.661214,288.087363 C811.502777,289.928927 812.785295,292.395307 813.508766,295.486503 C814.232237,298.577699 814.593973,302.622562 814.593973,307.621092 L814.593973,307.621092 L814.593973,358.724482 L850.307153,358.724482 L850.307153,294.401296 C850.307153,289.008145 849.780992,284.206926 848.72867,279.997637 C847.676348,275.788349 845.703244,271.973682 842.809358,268.553635 C839.257772,264.344347 834.949828,261.088725 829.885528,258.786771 C824.821228,256.484816 818.737491,255.333839 811.634317,255.333839 C804.925764,255.333839 799.072223,256.353276 794.073693,258.39215 C789.075163,260.431024 784.142404,264.410117 779.275414,270.329428 L779.275414,270.329428 L779.275414,257.504253 L743.562234,257.504253 L743.562234,358.724482 L779.275414,358.724482 Z M921.733513,361.881448 C934.755999,361.881448 945.081909,357.080228 952.711244,347.47779 L952.711244,347.47779 L952.711244,358.724482 L988.621734,358.724482 L988.621734,194.956861 L952.711244,194.956861 L952.711244,267.567083 C944.424208,258.753886 933.966757,254.347287 921.338892,254.347287 C913.841098,254.347287 906.968119,255.761345 900.719957,258.58946 C894.471795,261.417576 889.111529,265.265129 884.63916,270.132118 C880.166792,274.999108 876.71386,280.688224 874.280365,287.199467 C871.84687,293.710709 870.630123,300.583688 870.630123,307.818402 C870.630123,315.447737 871.912641,322.550911 874.477676,329.127924 C877.042711,335.704937 880.627183,341.426938 885.231092,346.293927 C889.835001,351.160917 895.228151,354.975584 901.410543,357.73793 C907.592935,360.500275 914.367259,361.881448 921.733513,361.881448 Z M930.809791,331.101028 C927.521285,331.101028 924.462974,330.509096 921.634858,329.325234 C918.806742,328.141372 916.373248,326.497119 914.334374,324.392474 C912.2955,322.28783 910.684132,319.82145 909.500269,316.993335 C908.316407,314.165219 907.724476,311.106908 907.724476,307.818402 C907.724476,304.661436 908.349292,301.734665 909.598924,299.03809 C910.848557,296.341514 912.49281,293.940905 914.531684,291.836261 C916.570558,289.731617 919.004053,288.087363 921.832168,286.903501 C924.660284,285.719639 927.652825,285.127707 930.809791,285.127707 C933.966757,285.127707 936.959298,285.719639 939.787414,286.903501 C942.615529,288.087363 945.049024,289.731617 947.087898,291.836261 C949.126772,293.940905 950.771025,296.407285 952.020658,299.2354 C953.27029,302.063516 953.895106,305.056057 953.895106,308.213023 C953.895106,311.369989 953.27029,314.329645 952.020658,317.09199 C950.771025,319.854336 949.126772,322.28783 947.087898,324.392474 C945.049024,326.497119 942.615529,328.141372 939.787414,329.325234 C936.959298,330.509096 933.966757,331.101028 930.809791,331.101028 Z M1034.20043,362.868 C1037.3574,362.868 1040.34994,362.276069 1043.17806,361.092206 C1046.00617,359.908344 1048.47255,358.264091 1050.5772,356.159447 C1052.68184,354.054803 1054.32609,351.588423 1055.50996,348.760307 C1056.69382,345.932192 1057.28575,342.939651 1057.28575,339.782685 C1057.28575,336.625718 1056.69382,333.633178 1055.50996,330.805062 C1054.32609,327.976946 1052.68184,325.510567 1050.5772,323.405923 C1048.47255,321.301278 1046.00617,319.657025 1043.17806,318.473163 C1040.34994,317.289301 1037.3574,316.697369 1034.20043,316.697369 C1031.04347,316.697369 1028.05093,317.289301 1025.22281,318.473163 C1022.3947,319.657025 1019.92832,321.301278 1017.82367,323.405923 C1015.71903,325.510567 1014.07477,327.976946 1012.89091,330.805062 C1011.70705,333.633178 1011.11512,336.625718 1011.11512,339.782685 C1011.11512,342.939651 1011.70705,345.932192 1012.89091,348.760307 C1014.07477,351.588423 1015.71903,354.054803 1017.82367,356.159447 C1019.92832,358.264091 1022.3947,359.908344 1025.22281,361.092206 C1028.05093,362.276069 1031.04347,362.868 1034.20043,362.868 Z" id="tidyhome.tidymind."></path>
                </g>
                <path d="M1083.41064,43.8824118 L1086.80738,20.6047813 L1095.89864,43.8824118 L1101.09365,43.8824118 L1110.68443,20.6047813 L1113.58165,43.8824118 L1125.37032,43.8824118 L1118.97646,0.923694677 L1107.2877,0.923694677 L1098.69595,22.9025732 L1090.50383,0.923694677 L1078.91496,0.923694677 L1071.72188,43.8824118 L1083.41064,43.8824118 Z M1060.53263,43.8824118 L1060.53263,11.013998 L1069.52399,11.013998 L1069.52399,0.923694677 L1039.7526,0.923694677 L1039.7526,11.013998 L1048.74396,11.013998 L1048.74396,43.8824118 L1060.53263,43.8824118 Z" id="™"></path>
            </g>
        </g>
    </g>
</svg>