<?xml version="1.0" encoding="UTF-8"?>
<svg width="724px" height="157px" viewBox="0 0 724 157" version="1.1" xmlns="http://www.w3.org/2000/svg" xmlns:xlink="http://www.w3.org/1999/xlink">
    <title>Group 4 Copy</title>
    <g id="Page-1" stroke="none" stroke-width="1" fill="none" fill-rule="evenodd">
        <g id="Artboard-Copy-21" transform="translate(-259.000000, -253.000000)">
            <g id="Group-4-Copy" transform="translate(259.500000, 253.500000)">
                <g id="Group-3" transform="translate(197.000000, 0.000000)" fill="#FDC772" font-family="Futura-Bold, Futura" font-size="79" font-weight="bold" line-spacing="78">
                    <g id="Group">
                        <text id="CLEMENTINE-CLEANING">
                            <tspan x="0" y="82">CLEMENTINE</tspan>
                            <tspan x="0" y="160">CLEANING</tspan>
                        </text>
                    </g>
                </g>
                <g id="Logo" transform="translate(0.000000, 7.000000)">
                    <path d="M159.630524,78.2269472 C163.684138,66.7092278 162.475849,53.8273115 160.156715,43.6737889 C158.759425,37.3771597 156.742272,31.2343087 154.13476,25.335085 C151.289435,21.9635699 148.931323,24.1073078 146.5927,27.7321739 C144.254077,31.3570399 141.895965,36.4630339 139.109105,39.016031 L138.056725,38.1000702 L136.984856,37.2815521 C136.887413,36.9502471 136.809459,36.6384307 136.712017,36.3266142 C136.614574,36.0147978 136.419689,35.761447 136.419689,35.4691191 C138.821309,27.2702379 138.888799,18.5640473 136.614574,10.3289193 C134.665721,4.15105624 131.586534,0.44823612 129.364842,0 C125.8746,0.320202351 122.448537,1.14061983 119.191831,2.43606587 C112.15259,5.04164848 106.176044,9.90787238 102.197835,16.27292 C100.126948,15.9655377 98.0130982,16.1389134 96.0199723,16.7796217 C93.8924403,15.7557642 91.6656214,14.9525422 89.3743846,14.3825329 C84.3312689,13.0830411 79.0410526,13.0830411 73.9979369,14.3825329 C71.707721,14.9558973 69.4812371,15.7589985 67.3523492,16.7796217 C66.3646488,16.4654858 65.3449024,16.2628439 64.312139,16.1754774 C63.2564323,16.0596048 62.1912157,16.0596048 61.1355091,16.1754774 C57.1690044,9.80783946 51.1974886,4.94012851 44.1610021,2.33862323 C40.9105271,1.08394408 37.4985466,0.296563977 34.0269681,0 C31.7857875,0.44823612 28.6676232,4.15105624 26.777236,10.3289193 C24.5093656,18.5658576 24.5836045,27.2720525 26.9916098,35.4691191 C26.9916098,35.761447 26.777236,36.0732634 26.6797934,36.3850798 C26.5823508,36.6968963 26.4849081,37.0087127 26.406954,37.3400177 C26.036672,37.5933685 25.6858785,37.8856964 25.335085,38.1585358 L24.2827046,39.0744966 C21.4373797,36.5214995 19.157222,31.4155055 16.7991102,27.7906394 C14.4409985,24.1657734 12.0828867,22.0220355 9.23756178,25.335085 C6.65493124,31.2218248 4.64484283,37.3434577 3.23509547,43.6153233 C0.915960767,53.8273115 -0.311816431,66.7092278 3.7612857,78.2269472 C-3.15690436,94.6006171 -0.319366283,113.469869 11.1084604,127.084684 C21.671242,139.810692 38.5872834,146.748608 56.5167282,141.194378 C60.6098324,143.546077 65.0399253,145.255015 69.6519953,146.261395 C73.610293,147.147087 77.6598217,147.559236 81.7153935,147.489172 C85.7709653,147.559236 89.820494,147.147087 93.7787917,146.261395 C98.3908617,145.255015 102.820955,143.546077 106.914059,141.194378 C124.824015,146.748608 141.740057,139.810692 152.302838,127.084684 C163.724081,113.465938 166.554039,94.597041 159.630524,78.2269472 L159.630524,78.2269472 Z M147.138379,38.4898407 C148.385644,36.6968963 149.515979,35.0403715 150.490405,33.5787319 C152.364445,38.8264762 153.7858,44.2250194 154.738904,49.7152323 C156.016521,56.4607441 156.128578,63.3753284 155.070209,70.158697 C152.728418,65.97273 150.771532,61.5827828 149.223651,57.0429184 C147.669343,52.4554422 145.568992,48.0715309 142.967834,43.9856053 C144.487939,42.1341953 145.891113,40.2632967 147.138379,38.4898407 Z M118.763083,9.23756178 C121.586418,7.87401667 124.593182,6.92865859 127.688829,6.4312139 C129.082188,9.00402248 130.149297,11.7405348 130.865459,14.5774182 C131.977856,18.9103147 132.229462,23.4193483 131.606023,27.849105 C128.817702,25.2029903 125.610751,23.0364875 122.11511,21.4373797 C118.858837,19.9358498 115.230342,19.4339644 111.688748,19.9952287 C111.084604,19.6249466 110.499948,19.2936417 109.934781,18.9818253 C109.369613,18.6700088 108.784957,18.3776809 108.239279,18.1243301 C110.922925,14.3048104 114.548049,11.2435946 118.763083,9.23756178 L118.763083,9.23756178 Z M32.5263515,14.5774182 C33.2425131,11.7405348 34.309622,9.00402248 35.7029814,6.4312139 C38.7979931,6.93134206 41.8043763,7.87658044 44.6287267,9.23756178 C48.8483518,11.2544679 52.4739192,14.3294862 55.1525313,18.1633071 C54.587364,18.416658 54.0221967,18.7089859 53.4570294,19.0208023 C52.8918622,19.3326187 52.2877178,19.6639237 51.703062,20.0342057 C48.1614802,19.4717573 44.5326398,19.9736903 41.2767001,21.4763567 C37.7811651,23.0588945 34.5736375,25.2126143 31.7857875,27.849105 C31.1623482,23.4193483 31.4139536,18.9103147 32.5263515,14.5774182 L32.5263515,14.5774182 Z M8.63341744,49.7152323 C9.60111519,44.2262441 11.0288107,38.8283815 12.9014048,33.5787319 C13.8563427,35.0403715 14.9866772,36.6968963 16.2534315,38.4898407 C17.5201857,40.2827852 18.8843826,42.1341953 20.3655107,44.0245824 C17.7571507,48.1065052 15.6563688,52.4913148 14.1096935,57.0818955 C12.5534878,61.6184886 10.5969289,66.0077025 8.26313543,70.1976741 C7.22309533,63.3986667 7.34831204,56.4722056 8.63341744,49.7152323 L8.63341744,49.7152323 Z M19.6639237,127.026219 C11.1653233,119.743024 6.45738722,108.977926 6.87945002,97.7934283 C5.94400072,91.7130079 7.83438784,84.6971382 11.0499948,78.3049013 C14.0200407,72.3016481 18.1460419,66.943807 23.1913471,62.538683 C22.5750654,66.6764415 22.2170828,70.848566 22.1194781,75.0308288 C21.9376566,79.1715332 22.0483668,83.3199079 22.4507831,87.4450205 C23.0055234,94.5584767 24.9943032,101.48606 28.2973411,107.810531 C31.5134925,114.15199 36.8114786,119.195398 43.3035069,122.095621 C44.1236921,127.593477 46.7092151,132.675603 50.6701701,136.575597 L50.6701701,136.575597 C39.4605404,137.799969 28.2424173,134.344984 19.6639237,127.026219 L19.6639237,127.026219 Z M81.695905,141.233355 C53.6908918,140.76563 46.1878089,125.642533 49.4423929,107.907974 C52.6969769,90.1734142 66.6702507,70.158697 81.695905,60.1221057 C96.7020708,70.158697 110.714322,90.2708569 113.949417,107.907974 C117.184513,125.545091 109.700918,140.76563 81.695905,141.233355 L81.695905,141.233355 Z M140.23944,62.5191945 C145.27916,66.9295667 149.404246,72.2862182 152.380792,78.2854128 C155.596399,84.6971382 157.486786,91.7130079 156.551337,97.7739397 C156.95244,108.968325 152.232268,119.73577 143.727886,127.026219 C135.293725,134.241853 124.297308,137.717062 113.263227,136.671631 L112.702151,136.614574 C114.66422,134.687455 116.302788,132.456633 117.554795,130.007963 C118.828489,127.517583 119.696888,124.840017 120.12728,122.076133 C126.611298,119.16397 131.905765,114.123914 135.133446,107.791043 C138.436484,101.466571 140.425264,94.5389882 140.980004,87.4255319 C141.38242,83.3004194 141.49313,79.1520447 141.311309,75.0113403 C141.203956,70.8296146 140.846024,66.6580844 140.23944,62.5191945 Z M61.4473255,40.867441 C58.5074521,44.1092016 56.0106289,47.7266462 54.0221967,51.6251079 C52.0383549,55.5701194 50.4708154,59.7110364 49.3449503,63.980834 C47.7663796,72.3998776 46.8309303,80.8189213 45.9149695,89.315919 C44.9990087,97.8129168 44.1025365,106.23196 42.640897,114.748447 C32.136581,107.069967 28.1219444,94.8701492 28.4142723,82.3000493 C28.8271291,69.8346011 32.8932039,57.7651359 40.1073885,47.5909828 C43.5178807,42.4849888 46.0124121,39.6396638 49.0721109,38.645749 C52.1318096,37.6323456 55.7566756,38.4898407 61.4473255,40.867441 Z M114.300211,38.645749 C117.359909,39.6396638 119.873929,42.5434543 123.362376,47.5325172 C130.577594,57.7061441 134.643776,69.775929 135.055492,82.2415838 C135.367308,94.8116836 131.352672,107.011502 120.848356,114.689981 C119.386716,106.173495 118.490244,97.6959856 117.574283,89.2574535 C116.658322,80.8189213 115.62543,72.3998776 114.124814,63.9223684 C113.007611,59.6498024 111.439733,55.5079921 109.447567,51.5666423 C107.433748,47.6952728 104.90306,44.1155941 101.924996,40.9259066 C107.635134,38.4898407 111.26,37.6323456 114.300211,38.645749 Z M76.0052551,43.6348119 C77.6357426,44.8246396 78.6219952,46.7035586 78.6751833,48.7213174 C78.7803495,50.7077562 78.7803495,52.6983678 78.6751833,54.6848066 C73.6713103,58.4668116 68.9790037,62.6442679 64.6434439,67.1769524 C60.2267178,71.8128862 56.2593041,76.8569829 52.7944195,82.2415838 C53.346577,73.2439585 55.3198593,64.3904985 58.6409776,56.0100265 C62.4607289,46.7724647 68.2098444,40.0099458 76.0052551,43.6348119 Z M104.711855,55.9710494 L104.711855,56.0100265 C108.044063,64.3870848 110.017746,73.2423397 110.558413,82.2415838 C107.100654,76.857141 103.139719,71.8129855 98.7288776,67.1769524 C94.3725308,62.6011749 89.6539811,58.3844599 84.6191841,54.5678755 C84.5047948,52.5816914 84.5047948,50.5905704 84.6191841,48.6043862 C84.6675389,46.6099109 85.6305774,44.7485156 87.2306467,43.5568578 C95.2014542,40.0099458 100.931081,46.7724647 104.711855,55.9710494 Z M39.0744966,38.6262604 C37.2531992,40.709168 35.5796096,42.9167433 34.0659451,45.2328711 C32.5368285,47.5564879 31.1505793,49.9710347 29.9148889,52.4631146 C28.0829673,51.3522685 27.0695639,51.3717571 26.0171835,52.073344 C24.964803,52.774931 23.5811176,54.1586164 21.4373797,55.7566756 C21.9440814,54.4119673 22.5287372,53.2036786 23.0744159,52.0928326 C23.6200947,50.9819865 24.1462849,49.9880716 24.6140095,49.1305765 C25.998411,46.3550898 28.0551771,43.9700451 30.5969873,42.1926609 C33.1348165,40.4104795 36.0258671,39.1942444 39.0744966,38.6262604 Z M124.375779,38.6262604 C127.396849,39.2059961 130.260053,40.4216955 132.775334,42.1926609 C135.327654,43.9638456 137.392123,46.3500501 138.7778,49.1305765 C139.245525,49.9880716 139.771715,50.9819865 140.317394,52.0928326 C140.863073,53.2036786 141.447729,54.4119673 142.051873,55.7566756 C139.791204,54.1586164 138.563427,52.774931 137.433092,52.073344 C136.302758,51.3717571 135.289354,51.3522685 133.535387,52.4631146 C132.284785,49.9790319 130.899022,47.5653335 129.38433,45.2328711 C127.864293,42.9212397 126.191026,40.7140895 124.375779,38.6262604 Z M81.6179509,19.6249466 C83.01667,19.6172745 84.4130074,19.7412484 85.7884957,19.9952287 C87.0648278,20.2169116 88.3222774,20.5361604 89.5497814,20.9501665 C87.3196825,22.8289432 85.9193739,25.5105342 85.652076,28.4142723 C85.4063547,31.3090749 85.6701979,34.2245426 86.4316171,37.0282012 C85.4969198,37.4436828 84.6139531,37.9669223 83.8006659,38.5872834 C83.1156945,39.0968904 82.4843755,39.6743213 81.9162134,40.3105855 L81.6374394,40.6335787 C81.0108041,39.8716904 80.2979635,39.1850091 79.51319,38.5872834 C78.7210854,37.9666472 77.857427,37.4432178 76.9407044,37.0282012 C77.7236482,34.2017994 77.9812656,31.2557125 77.700757,28.3363182 C77.4438484,25.4295294 76.0415912,22.7442069 73.8030516,20.8722124 C75.0128175,20.4751936 76.2505288,20.1690229 77.5058717,19.9562516 L77.4279176,19.9952287 C78.8100826,19.7420734 80.21281,19.6181115 81.6179509,19.6249466 Z M105.238046,23.6590717 L105.900655,23.9708882 L106.602242,24.3216816 C106.062954,25.8152004 105.607513,27.337677 105.238046,28.881997 C104.988592,29.7394921 104.742257,30.6063418 104.52648,31.365303 L104.400901,31.8067952 C104.137708,32.7312461 103.935432,33.4337373 103.85436,33.6566861 C102.580241,34.1471916 101.278836,34.5636414 99.9566548,34.9039518 C98.6438817,35.2097128 97.4465761,35.8861566 96.5071855,36.8528045 C95.8733918,36.603535 95.2219887,36.4016 94.5583328,36.2486601 C93.883673,36.1086823 93.1998038,36.0174998 92.5120375,35.9758208 C90.7784479,32.2646709 91.4641056,27.8733803 94.2465164,24.8673604 L94.2465164,24.8283833 C97.2415617,22.0352879 101.722408,21.5586021 105.238046,23.6590717 Z M69.1258051,24.8673604 C71.9693214,27.8158774 72.7402018,32.194478 71.0746578,35.9368437 C70.3804491,35.9785286 69.6901007,36.0697067 69.008874,36.2096831 C68.3457041,36.3644193 67.6944303,36.5663142 67.0600213,36.8138274 C66.1147187,35.8548729 64.9197864,35.1797699 63.610552,34.8649747 C62.2883708,34.5246643 60.9869653,34.1082146 59.7128466,33.617709 C59.5756474,33.2404111 59.0913341,31.4897489 58.5388053,29.6141257 L58.3866339,29.1004318 C58.36106,29.0146125 58.3353975,28.9287694 58.3096727,28.8430199 C57.9116076,27.2934972 57.4169308,25.7704135 56.8285446,24.2827046 L57.4326889,23.9708882 L58.1147874,23.6590717 C61.6419285,21.5522436 66.1394804,22.0457802 69.1258051,24.8673604 Z M51.2353374,27.3229148 C51.2353374,27.5178001 51.6056194,28.550692 51.8979473,29.5835839 C52.1902752,30.6164759 52.5020916,31.6688563 52.5800457,31.9027186 L44.1025365,31.9027186 L44.1025365,31.9027186 C41.2012561,31.9143026 38.3155469,32.3274837 35.5275846,33.1304958 C37.7179871,30.8327781 40.2811249,28.9219556 43.1086216,27.478823 C46.1878089,25.9392294 49.3644388,25.335085 51.2353374,27.3229148 Z M120.283188,27.4203574 C123.10934,28.8810666 125.666346,30.8120018 127.844737,33.1304958 C125.056775,32.3274837 122.171065,31.9143026 119.269785,31.9027186 C116.443949,31.7857875 113.637601,31.9222072 110.811764,31.844253 C110.811764,31.6103907 111.182046,30.5580103 111.493863,29.5251183 C111.591305,29.2023396 111.684942,28.8795609 111.770014,28.5823561 L111.867685,28.2396226 C112.007111,27.7488457 112.112623,27.3740722 112.156473,27.2644492 C114.105325,25.3155965 117.204001,25.8807638 120.283188,27.4203574 Z" id="Shape" fill-rule="nonzero"></path>
                    <g id="inner-overlay" transform="translate(21.437380, 19.624611)" fill="#FDC772" fill-opacity="0.7" fill-rule="nonzero">
                        <path d="M54.5678755,24.0102006 C56.198363,25.2000283 57.1846155,27.0789473 57.2378037,29.0967061 C57.3429698,31.0831449 57.3429698,33.0737566 57.2378037,35.0601954 C52.2339306,38.8422003 47.541624,43.0196566 43.2060643,47.5523412 C38.7893381,52.188275 34.8219245,57.2323716 31.3570399,62.6169725 C31.9091974,53.6193473 33.8824797,44.7658872 37.203598,36.3854152 C41.0233492,27.1478534 46.7724647,20.3853346 54.5678755,24.0102006 Z" id="Path"></path>
                        <path d="M14.090205,13.5058846 C16.2806074,11.2081668 18.8437452,9.29734432 21.671242,7.85421175 C24.7504292,6.31461812 27.9270591,5.71047378 29.7979577,7.69830353 C29.7979577,7.8931888 30.1682397,8.92608073 30.4605676,9.95897266 C30.7528955,10.9918646 31.064712,12.044245 31.1426661,12.2781074 C28.3168297,12.2781074 25.4909933,12.2781074 22.6651569,12.2781074 C19.7638765,12.2896914 16.8781673,12.7028725 14.090205,13.5058846 L14.090205,13.5058846 Z" id="Path"></path>
                        <path d="M27.6347312,19.0211377 C30.69443,18.0077343 34.319296,18.8652295 40.0099458,21.2428298 C37.0700725,24.4845903 34.5732493,28.1020349 32.5848171,32.0004966 C30.6009752,35.9455081 29.0334357,40.0864251 27.9075706,44.3562227 C26.3289999,52.7752664 25.3935506,61.19431 24.4775899,69.6913078 C23.5616291,78.1883055 22.6651569,86.6073492 21.2035173,95.1238355 C10.6992013,87.4453558 6.68456475,75.245538 6.97689265,62.6754381 C7.38974947,50.2099899 11.4558242,38.1405246 18.6700088,27.9663716 C22.080501,22.8603775 24.5750325,20.0150526 27.6347312,19.0211377 Z" id="Path"></path>
                        <path d="M1.63703626,32.4682213 C2.18271502,31.3573753 2.70890525,30.3634604 3.17662989,29.5059652 C4.56103136,26.7304785 6.61779746,24.3454338 9.15960767,22.5680496 C11.6974369,20.7858682 14.5884874,19.5696331 17.6371169,19.0016492 C15.8158195,21.0845567 14.14223,23.2921321 12.6285655,25.6082598 C11.0994489,27.9318767 9.71319965,30.3464234 8.47750923,32.8385033 C6.64558769,31.7276573 5.63218429,31.7471458 4.57980384,32.4487328 C3.52742338,33.1503197 2.14373797,34.5340052 -1.77635684e-15,36.1320644 C0.506701701,34.787356 1.09135751,33.5790673 1.63703626,32.4682213 Z" id="Path"></path>
                        <path d="M72.8091367,5.20377208 C75.804182,2.4106766 80.2850286,1.9339908 83.8006659,4.03446046 L84.4632758,4.34627689 L85.1648628,4.69707038 C84.6255746,6.19058913 84.1701329,7.71306572 83.8006659,9.25738569 C83.1770331,11.4011237 82.5728887,13.6033272 82.4169805,14.0320748 C81.1428618,14.5225804 79.8414563,14.9390301 78.5192751,15.2793405 C77.206502,15.5851015 76.0091965,16.2615453 75.0698058,17.2281932 C74.4360121,16.9789237 73.784609,16.7769887 73.1209531,16.6240489 C72.4462933,16.4840711 71.7624241,16.3928885 71.0746578,16.3512095 C69.3410683,12.6400597 70.0267259,8.24876908 72.8091367,5.24274913 L72.8091367,5.20377208 Z" id="Path"></path>
                        <path d="M35.9953093,4.34627689 L36.6774077,4.03446046 C40.2045489,1.9276323 44.7021008,2.42116897 47.6884255,5.24274913 C50.5319418,8.19126618 51.3028221,12.5698668 49.6372782,16.3122324 C48.9430695,16.3539173 48.2527211,16.4450954 47.5714943,16.5850718 C46.9083244,16.7398081 46.2570506,16.941703 45.6226416,17.1892162 C44.677339,16.2302617 43.4824067,15.5551587 42.1731723,15.2403635 C40.8509912,14.9000531 39.5495857,14.4836033 38.2754669,13.9930977 C38.1195587,13.5643501 37.5154144,11.3621466 36.872293,9.21840863 C36.4742279,7.66888597 35.9795512,6.14580228 35.391165,4.65809333 L35.9953093,4.34627689 Z" id="Path"></path>
                        <path d="M89.3743846,12.2196418 C89.3743846,11.9857795 89.7446666,10.933399 90.0564831,9.90050708 C90.3682995,8.86761515 90.6411389,7.83472322 90.719093,7.63983795 C92.6679457,5.69098525 95.7666215,6.25615254 98.8458087,7.79574617 C101.67196,9.25645529 104.228966,11.1873906 106.407357,13.5058846 C103.619395,12.7028725 100.733686,12.2896914 97.8324053,12.2781074 C95.0065689,12.1611762 92.200221,12.2975959 89.3743846,12.2196418 L89.3743846,12.2196418 Z" id="Path"></path>
                        <path d="M92.862831,19.0211377 C95.9225297,20.0150526 98.4365497,22.9188431 101.924996,27.907906 C109.140214,38.0815328 113.206397,50.1513178 113.618112,62.6169725 C113.929929,75.1870724 109.915292,87.3868903 99.410976,95.0653699 C97.9493365,86.5488836 97.0528642,78.0713744 96.1369035,69.6328422 C95.2209427,61.19431 94.1880508,52.7752664 92.6874342,44.2977572 C91.5702312,40.0251912 90.0023535,35.8833808 88.0101877,31.9420311 C85.9963687,28.0706615 83.4656801,24.4909828 80.4876163,21.3012953 C86.1977547,18.8652295 89.8226207,18.0077343 92.862831,19.0211377 L92.862831,19.0211377 Z" id="Path"></path>
                        <path d="M111.337955,22.5680496 C113.890274,24.3392343 115.954743,26.7254388 117.340421,29.5059652 C117.808145,30.3634604 118.334336,31.3573753 118.880014,32.4682213 C119.425693,33.5790673 120.010349,34.787356 120.614493,36.1320644 C118.353824,34.5340052 117.126047,33.1503197 115.995712,32.4487328 C114.865378,31.7471458 113.851974,31.7276573 112.098007,32.8385033 C110.847405,30.3544207 109.461643,27.9407222 107.946951,25.6082598 C106.426914,23.2966285 104.753646,21.0894782 102.938399,19.0016492 C105.959469,19.5813848 108.822674,20.7970842 111.337955,22.5680496 L111.337955,22.5680496 Z" id="Path"></path>
                        <path d="M83.2744757,36.3854152 C86.6066835,44.7624735 88.5803659,53.6177285 89.1210338,62.6169725 C85.663274,57.2325297 81.7023395,52.1883742 77.2914979,47.5523412 C72.9351511,42.9765636 68.2166014,38.7598486 63.1818044,34.9432642 C63.0674152,32.9570801 63.0674152,30.9659591 63.1818044,28.979775 C63.2301592,26.9852997 64.1931978,25.1239043 65.793267,23.9322465 C73.7640745,20.3853346 79.4937015,27.1478534 83.2744757,36.3464382 L83.2744757,36.3854152 Z" id="Path"></path>
                        <path d="M55.9905379,0.370617395 C57.372703,0.117462156 58.7754303,-0.00649979898 60.1805712,0.000335382655 C61.5792903,-0.00733677096 62.9756278,0.116637114 64.351116,0.370617395 C65.6274481,0.592300301 66.8848978,0.911549169 68.1124017,1.32555522 C65.8823029,3.20433198 64.4819943,5.88592296 64.2146963,8.78966104 C63.968975,11.6844636 64.2328183,14.5999313 64.9942374,17.40359 C64.0595401,17.8190715 63.1765734,18.342311 62.3632863,18.9626721 C61.5641529,19.5572137 60.8380466,20.244071 60.2000598,21.0089674 L60.2000598,21.0089674 C59.5734245,20.2470792 58.8605839,19.5603978 58.0758103,18.9626721 C57.2837057,18.3420359 56.4200473,17.8186066 55.5033248,17.40359 C56.2862685,14.5771881 56.543886,11.6311012 56.2633773,8.71170693 C56.0064687,5.80491817 54.6042115,3.11959563 52.3656719,1.24760111 C53.5754378,0.850582353 54.8131492,0.544411654 56.0684921,0.331640341 L55.9905379,0.370617395 Z" id="Path"></path>
                    </g>
                    <g id="outer-overlay" transform="translate(6.639903, 6.431214)" fill="#FDC772">
                        <path d="M137.087983,120.595005 C128.510869,127.932938 117.283908,131.402577 106.062248,130.18336 L106.062248,130.18336 C108.024317,128.256241 109.662885,126.025419 110.914891,123.576749 C112.188585,121.086369 113.056985,118.408803 113.487377,115.644919 C119.971395,112.732757 125.265861,107.6927 128.493542,101.359829 C131.79658,95.0353574 133.78536,88.1077743 134.340101,80.994318 C134.742517,76.8692055 134.853227,72.7208308 134.671406,68.5801264 C134.564052,64.3984007 134.206121,60.2268705 133.599537,56.0879806 C138.639257,60.4983528 142.764342,65.8550043 145.740889,71.8541989 C148.956496,78.2659243 150.846883,85.281794 149.911434,91.3427259 C150.312537,102.537111 145.592364,113.304556 137.087983,120.595005 Z" id="Path"></path>
                        <path d="M75.0560016,134.802141 C47.0509883,134.334416 39.5479055,119.211319 42.8024895,101.47676 C46.0570735,83.7422003 60.0303473,63.7274832 75.0560016,53.6908918 C90.0621673,63.7274832 104.074418,83.839643 107.309514,101.47676 C110.544609,119.113877 103.061015,134.334416 75.0560016,134.802141 L75.0560016,134.802141 Z" id="Path"></path>
                        <path d="M13.0240203,120.595005 C4.52541991,113.31181 -0.182516211,102.546712 0.239546587,91.3622144 C-0.695902707,85.281794 1.19448441,78.2659243 4.41009136,71.8736874 C7.38013725,65.8704342 11.5061385,60.5125931 16.5514437,56.1074691 C15.9351619,60.2452276 15.5771793,64.4173521 15.4795747,68.5996149 C15.2977532,72.7403193 15.4084634,76.888694 15.8108796,81.0138066 C16.3656199,88.1272628 18.3543998,95.054846 21.6574377,101.379317 C24.8735891,107.720776 30.1715752,112.764184 36.6636035,115.664407 C37.4837887,121.162263 40.0693117,126.244389 44.0302667,130.144383 L44.0302667,130.144383 C32.820637,131.368755 21.6025139,127.913771 13.0240203,120.595005 L13.0240203,120.595005 Z" id="Path"></path>
                        <path d="M1.99351401,43.2840184 C2.96121176,37.7950302 4.38890731,32.3971676 6.26150142,27.1475181 C7.21643924,28.6091576 8.3467738,30.2656824 9.61352805,32.0586268 C10.8802823,33.8515713 12.2444792,35.7029814 13.7256072,37.5933685 C11.1172473,41.6752913 9.0164654,46.0601009 7.46979009,50.6506816 C5.91358439,55.1872747 3.95702546,59.5764886 1.623232,63.7664602 C0.583191903,56.9674528 0.708408612,50.0409917 1.99351401,43.2840184 L1.99351401,43.2840184 Z" id="Path"></path>
                        <path d="M25.8864481,8.14620427 C26.6026096,5.30932092 27.6697185,2.57280858 29.063078,1.0125234e-13 C32.1580897,0.500128165 35.1644728,1.44536654 37.9888233,2.80634788 C42.2084484,4.82325396 45.8340158,7.89827227 48.5126279,11.7320932 C47.9474606,11.9854441 47.3822933,12.277772 46.817126,12.5895884 C46.2519587,12.9014048 45.6478144,13.2327098 45.0631586,13.6029918 C41.5215768,13.0405434 37.8927364,13.5424765 34.6367967,15.0451428 C31.1412616,16.6276807 27.9337341,18.7814004 25.145884,21.4178911 C24.5224448,16.9881344 24.7740502,12.4791008 25.8864481,8.14620427 L25.8864481,8.14620427 Z" id="Path"></path>
                        <path d="M112.12318,2.80634788 C114.946515,1.44280277 117.953279,0.497444695 121.048925,1.17239551e-13 C122.442285,2.57280858 123.509394,5.30932092 124.225555,8.14620427 C125.337953,12.4791008 125.589558,16.9881344 124.966119,21.4178911 C122.177799,18.7717764 118.970848,16.6052737 115.475206,15.0061658 C112.218934,13.5046359 108.590438,13.0027505 105.048845,13.5640148 C104.4447,13.1937328 103.860044,12.8624278 103.294877,12.5506114 C102.72971,12.2387949 102.145054,11.946467 101.599375,11.6931162 C104.283021,7.87359651 107.908145,4.81238071 112.12318,2.80634788 L112.12318,2.80634788 Z" id="Path"></path>
                        <path d="M140.498475,32.0586268 C141.745741,30.2656824 142.876075,28.6091576 143.850502,27.1475181 C145.724541,32.3952623 147.145897,37.7938055 148.099001,43.2840184 C149.376617,50.0295302 149.488675,56.9441146 148.430306,63.7274832 C146.088515,59.5415161 144.131629,55.1515689 142.583747,50.6117045 C141.02944,46.0242283 138.929088,41.640317 136.32793,37.5543914 C137.848035,35.7029814 139.251209,33.8320828 140.498475,32.0586268 Z" id="Path"></path>
                    </g>
                </g>
            </g>
        </g>
    </g>
</svg>